<svg width="547" height="396" viewBox="0 0 547 396" fill="none" xmlns="http://www.w3.org/2000/svg">
<g filter="url(#filter0_d_1167_1903)">
<rect x="60.5" y="2" width="426" height="52" rx="4" fill="#7D5FFF"/>
<path d="M207.508 34.192C206.612 34.192 205.753 34.0747 204.932 33.84C204.111 33.5947 203.449 33.28 202.948 32.896L203.828 30.944C204.308 31.2853 204.873 31.568 205.524 31.792C206.185 32.0053 206.852 32.112 207.524 32.112C208.036 32.112 208.447 32.064 208.756 31.968C209.076 31.8613 209.311 31.7173 209.46 31.536C209.609 31.3547 209.684 31.1467 209.684 30.912C209.684 30.6133 209.567 30.3787 209.332 30.208C209.097 30.0267 208.788 29.8827 208.404 29.776C208.02 29.6587 207.593 29.552 207.124 29.456C206.665 29.3493 206.201 29.2213 205.732 29.072C205.273 28.9227 204.852 28.7307 204.468 28.496C204.084 28.2613 203.769 27.952 203.524 27.568C203.289 27.184 203.172 26.6933 203.172 26.096C203.172 25.456 203.343 24.8747 203.684 24.352C204.036 23.8187 204.559 23.3973 205.252 23.088C205.956 22.768 206.836 22.608 207.892 22.608C208.596 22.608 209.289 22.6933 209.972 22.864C210.655 23.024 211.257 23.2693 211.78 23.6L210.98 25.568C210.457 25.2693 209.935 25.0507 209.412 24.912C208.889 24.7627 208.377 24.688 207.876 24.688C207.375 24.688 206.964 24.7467 206.644 24.864C206.324 24.9813 206.095 25.136 205.956 25.328C205.817 25.5093 205.748 25.7227 205.748 25.968C205.748 26.256 205.865 26.4907 206.1 26.672C206.335 26.8427 206.644 26.9813 207.028 27.088C207.412 27.1947 207.833 27.3013 208.292 27.408C208.761 27.5147 209.225 27.6373 209.684 27.776C210.153 27.9147 210.58 28.1013 210.964 28.336C211.348 28.5707 211.657 28.88 211.892 29.264C212.137 29.648 212.26 30.1333 212.26 30.72C212.26 31.3493 212.084 31.9253 211.732 32.448C211.38 32.9707 210.852 33.392 210.148 33.712C209.455 34.032 208.575 34.192 207.508 34.192ZM215.395 34V24.912H211.811V22.8H221.571V24.912H217.987V34H215.395ZM224.549 27.312H229.941V29.328H224.549V27.312ZM224.741 31.92H230.837V34H222.165V22.8H230.63V24.88H224.741V31.92ZM232.1 34V22.8H236.948C237.951 22.8 238.815 22.9653 239.54 23.296C240.265 23.616 240.825 24.08 241.22 24.688C241.615 25.296 241.812 26.0213 241.812 26.864C241.812 27.696 241.615 28.416 241.22 29.024C240.825 29.632 240.265 30.1013 239.54 30.432C238.815 30.752 237.951 30.912 236.948 30.912H233.54L234.692 29.744V34H232.1ZM234.692 30.032L233.54 28.8H236.804C237.604 28.8 238.201 28.6293 238.596 28.288C238.991 27.9467 239.188 27.472 239.188 26.864C239.188 26.2453 238.991 25.7653 238.596 25.424C238.201 25.0827 237.604 24.912 236.804 24.912H233.54L234.692 23.68V30.032ZM250.846 34.192C249.929 34.192 249.107 33.968 248.382 33.52C247.657 33.0613 247.086 32.4 246.67 31.536C246.254 30.672 246.046 29.6267 246.046 28.4C246.046 27.1733 246.254 26.128 246.67 25.264C247.086 24.4 247.657 23.744 248.382 23.296C249.107 22.8373 249.929 22.608 250.846 22.608C251.774 22.608 252.595 22.8373 253.31 23.296C254.035 23.744 254.606 24.4 255.022 25.264C255.438 26.128 255.646 27.1733 255.646 28.4C255.646 29.6267 255.438 30.672 255.022 31.536C254.606 32.4 254.035 33.0613 253.31 33.52C252.595 33.968 251.774 34.192 250.846 34.192ZM250.846 32C251.283 32 251.662 31.8773 251.982 31.632C252.313 31.3867 252.569 30.9973 252.75 30.464C252.942 29.9307 253.038 29.2427 253.038 28.4C253.038 27.5573 252.942 26.8693 252.75 26.336C252.569 25.8027 252.313 25.4133 251.982 25.168C251.662 24.9227 251.283 24.8 250.846 24.8C250.419 24.8 250.041 24.9227 249.71 25.168C249.39 25.4133 249.134 25.8027 248.942 26.336C248.761 26.8693 248.67 27.5573 248.67 28.4C248.67 29.2427 248.761 29.9307 248.942 30.464C249.134 30.9973 249.39 31.3867 249.71 31.632C250.041 31.8773 250.419 32 250.846 32ZM257.771 34V23.76L258.891 24.88H255.531V22.8H260.363V34H257.771Z" fill="#FFDB43"/>
<path d="M276.372 22.064V24.64C276.372 27.248 278.004 29.856 280.084 30.848L279.316 31.888C277.684 31.072 276.372 29.36 275.716 27.344C275.092 29.472 273.764 31.28 272.148 32.144L271.348 31.104C273.428 30.064 275.06 27.296 275.06 24.64V22.064H276.372ZM281.86 20.832H283.172V35.2H281.86V26.768H278.532V25.696H281.86V20.832ZM291.187 27.744V23.136H287.219V27.744H291.187ZM295.763 24.432H292.467V26.432H295.763V24.432ZM292.467 27.504V28.784H285.923V22.096H292.467V23.36H295.763V20.848H297.091V31.312H295.763V27.504H292.467ZM289.171 33.792H297.427V34.864H287.859V30.384H289.171V33.792ZM314.458 20.848V31.328H313.146V20.848H314.458ZM304.298 25.36C304.298 26.784 305.354 27.776 306.746 27.776C308.17 27.776 309.226 26.784 309.226 25.36C309.226 23.968 308.17 22.976 306.746 22.976C305.354 22.976 304.298 23.968 304.298 25.36ZM310.506 25.36C310.506 27.44 308.89 28.912 306.746 28.912C304.618 28.912 303.018 27.44 303.018 25.36C303.018 23.296 304.618 21.84 306.746 21.84C308.89 21.84 310.506 23.296 310.506 25.36ZM306.538 33.792H314.89V34.864H305.226V30.256H306.538V33.792ZM318.569 27.232V30.672C321.161 30.672 322.825 30.576 324.777 30.224L324.921 31.296C322.841 31.664 321.097 31.744 318.361 31.744H317.257V22.128H323.897V23.216H318.569V26.176H323.273V27.232H318.569ZM327.113 20.816H328.425V35.2H327.113V27.328H324.153V26.24H327.113V20.816ZM340.568 26.448V24.368H333.448V26.448H340.568ZM341.88 21.392V27.504H332.152V21.392H333.448V23.312H340.568V21.392H341.88ZM343.528 29.216V30.288H340.232V35.184H338.92V30.288H335.096V35.184H333.784V30.288H330.504V29.216H343.528Z" fill="white"/>
</g>
<g filter="url(#filter1_d_1167_1903)">
<path d="M268.25 61.75C268.25 61.5511 268.329 61.3603 268.47 61.2197C268.61 61.079 268.801 61 269 61H278C278.199 61 278.39 61.079 278.53 61.2197C278.671 61.3603 278.75 61.5511 278.75 61.75C278.75 61.9489 278.671 62.1397 278.53 62.2803C278.39 62.421 278.199 62.5 278 62.5H269C268.801 62.5 268.61 62.421 268.47 62.2803C268.329 62.1397 268.25 61.9489 268.25 61.75ZM283.193 70.4631C283.136 70.3261 283.04 70.2089 282.917 70.1265C282.793 70.044 282.648 70 282.5 70H278.75V67.75C278.75 67.5511 278.671 67.3603 278.53 67.2197C278.39 67.079 278.199 67 278 67H269C268.801 67 268.61 67.079 268.47 67.2197C268.329 67.3603 268.25 67.5511 268.25 67.75V70H264.5C264.352 69.9999 264.207 70.0438 264.083 70.1262C263.96 70.2086 263.863 70.3258 263.807 70.4629C263.75 70.6 263.735 70.7509 263.764 70.8965C263.793 71.042 263.864 71.1757 263.969 71.2806L272.969 80.2806C273.039 80.3504 273.122 80.4057 273.213 80.4434C273.304 80.4812 273.402 80.5006 273.5 80.5006C273.599 80.5006 273.696 80.4812 273.787 80.4434C273.878 80.4057 273.961 80.3504 274.031 80.2806L283.031 71.2806C283.136 71.1757 283.207 71.042 283.236 70.8965C283.265 70.751 283.25 70.6002 283.193 70.4631ZM269 65.5H278C278.199 65.5 278.39 65.421 278.53 65.2803C278.671 65.1397 278.75 64.9489 278.75 64.75C278.75 64.5511 278.671 64.3603 278.53 64.2197C278.39 64.079 278.199 64 278 64H269C268.801 64 268.61 64.079 268.47 64.2197C268.329 64.3603 268.25 64.5511 268.25 64.75C268.25 64.9489 268.329 65.1397 268.47 65.2803C268.61 65.421 268.801 65.5 269 65.5Z" fill="#FFD401"/>
</g>
<g filter="url(#filter2_d_1167_1903)">
<rect x="60.5" y="86" width="426" height="52" rx="4" fill="#7D5FFF"/>
<path d="M213.008 118.192C212.112 118.192 211.253 118.075 210.432 117.84C209.611 117.595 208.949 117.28 208.448 116.896L209.328 114.944C209.808 115.285 210.373 115.568 211.024 115.792C211.685 116.005 212.352 116.112 213.024 116.112C213.536 116.112 213.947 116.064 214.256 115.968C214.576 115.861 214.811 115.717 214.96 115.536C215.109 115.355 215.184 115.147 215.184 114.912C215.184 114.613 215.067 114.379 214.832 114.208C214.597 114.027 214.288 113.883 213.904 113.776C213.52 113.659 213.093 113.552 212.624 113.456C212.165 113.349 211.701 113.221 211.232 113.072C210.773 112.923 210.352 112.731 209.968 112.496C209.584 112.261 209.269 111.952 209.024 111.568C208.789 111.184 208.672 110.693 208.672 110.096C208.672 109.456 208.843 108.875 209.184 108.352C209.536 107.819 210.059 107.397 210.752 107.088C211.456 106.768 212.336 106.608 213.392 106.608C214.096 106.608 214.789 106.693 215.472 106.864C216.155 107.024 216.757 107.269 217.28 107.6L216.48 109.568C215.957 109.269 215.435 109.051 214.912 108.912C214.389 108.763 213.877 108.688 213.376 108.688C212.875 108.688 212.464 108.747 212.144 108.864C211.824 108.981 211.595 109.136 211.456 109.328C211.317 109.509 211.248 109.723 211.248 109.968C211.248 110.256 211.365 110.491 211.6 110.672C211.835 110.843 212.144 110.981 212.528 111.088C212.912 111.195 213.333 111.301 213.792 111.408C214.261 111.515 214.725 111.637 215.184 111.776C215.653 111.915 216.08 112.101 216.464 112.336C216.848 112.571 217.157 112.88 217.392 113.264C217.637 113.648 217.76 114.133 217.76 114.72C217.76 115.349 217.584 115.925 217.232 116.448C216.88 116.971 216.352 117.392 215.648 117.712C214.955 118.032 214.075 118.192 213.008 118.192ZM220.895 118V108.912H217.311V106.8H227.071V108.912H223.487V118H220.895ZM230.049 111.312H235.441V113.328H230.049V111.312ZM230.241 115.92H236.337V118H227.665V106.8H236.13V108.88H230.241V115.92ZM237.6 118V106.8H242.448C243.451 106.8 244.315 106.965 245.04 107.296C245.765 107.616 246.325 108.08 246.72 108.688C247.115 109.296 247.312 110.021 247.312 110.864C247.312 111.696 247.115 112.416 246.72 113.024C246.325 113.632 245.765 114.101 245.04 114.432C244.315 114.752 243.451 114.912 242.448 114.912H239.04L240.192 113.744V118H237.6ZM240.192 114.032L239.04 112.8H242.304C243.104 112.8 243.701 112.629 244.096 112.288C244.491 111.947 244.688 111.472 244.688 110.864C244.688 110.245 244.491 109.765 244.096 109.424C243.701 109.083 243.104 108.912 242.304 108.912H239.04L240.192 107.68V114.032ZM256.346 118.192C255.429 118.192 254.607 117.968 253.882 117.52C253.157 117.061 252.586 116.4 252.17 115.536C251.754 114.672 251.546 113.627 251.546 112.4C251.546 111.173 251.754 110.128 252.17 109.264C252.586 108.4 253.157 107.744 253.882 107.296C254.607 106.837 255.429 106.608 256.346 106.608C257.274 106.608 258.095 106.837 258.81 107.296C259.535 107.744 260.106 108.4 260.522 109.264C260.938 110.128 261.146 111.173 261.146 112.4C261.146 113.627 260.938 114.672 260.522 115.536C260.106 116.4 259.535 117.061 258.81 117.52C258.095 117.968 257.274 118.192 256.346 118.192ZM256.346 116C256.783 116 257.162 115.877 257.482 115.632C257.813 115.387 258.069 114.997 258.25 114.464C258.442 113.931 258.538 113.243 258.538 112.4C258.538 111.557 258.442 110.869 258.25 110.336C258.069 109.803 257.813 109.413 257.482 109.168C257.162 108.923 256.783 108.8 256.346 108.8C255.919 108.8 255.541 108.923 255.21 109.168C254.89 109.413 254.634 109.803 254.442 110.336C254.261 110.869 254.17 111.557 254.17 112.4C254.17 113.243 254.261 113.931 254.442 114.464C254.634 114.997 254.89 115.387 255.21 115.632C255.541 115.877 255.919 116 256.346 116ZM261.447 118V116.32L265.767 112.24C266.108 111.931 266.359 111.653 266.519 111.408C266.679 111.163 266.785 110.939 266.839 110.736C266.903 110.533 266.935 110.347 266.935 110.176C266.935 109.728 266.78 109.387 266.471 109.152C266.172 108.907 265.729 108.784 265.143 108.784C264.673 108.784 264.236 108.875 263.831 109.056C263.436 109.237 263.1 109.52 262.823 109.904L260.935 108.688C261.361 108.048 261.959 107.541 262.727 107.168C263.495 106.795 264.38 106.608 265.383 106.608C266.215 106.608 266.94 106.747 267.559 107.024C268.188 107.291 268.673 107.669 269.015 108.16C269.367 108.651 269.543 109.237 269.543 109.92C269.543 110.283 269.495 110.645 269.399 111.008C269.313 111.36 269.132 111.733 268.855 112.128C268.588 112.523 268.193 112.965 267.671 113.456L264.087 116.832L263.591 115.888H269.911V118H261.447Z" fill="#FFDB43"/>
<path d="M284.872 106.064V108.64C284.872 111.248 286.504 113.856 288.584 114.848L287.816 115.888C286.184 115.072 284.872 113.36 284.216 111.344C283.592 113.472 282.264 115.28 280.648 116.144L279.848 115.104C281.928 114.064 283.56 111.296 283.56 108.64V106.064H284.872ZM290.36 104.832H291.672V119.2H290.36V110.768H287.032V109.696H290.36V104.832ZM303.879 108.096V106.448H295.303V105.392H305.207V109.088H296.663V110.848H305.527V111.904H295.351V108.096H303.879ZM306.775 113.392V114.448H303.383V119.2H302.071V114.448H298.455V119.2H297.143V114.448H293.751V113.392H306.775ZM319.87 111.328L319.214 112.368C317.566 111.792 316.254 110.576 315.598 109.024C314.974 110.688 313.646 112.016 311.95 112.64L311.278 111.616C313.454 110.832 314.926 108.912 314.926 106.8V105.408H316.238V106.8C316.238 108.832 317.742 110.624 319.87 111.328ZM314.958 114.864V117.936H321.678V114.864H314.958ZM313.678 118.992V113.824H322.958V118.992H313.678ZM321.646 104.848H322.958V113.008H321.646V104.848ZM329.917 106.08V108.656C329.917 111.184 331.549 113.792 333.565 114.8L332.749 115.84C331.229 115.024 329.933 113.344 329.277 111.376C328.653 113.472 327.325 115.264 325.709 116.128L324.925 115.072C326.989 114.016 328.621 111.264 328.621 108.656V106.08H329.917ZM338.509 110.656V111.744H336.141V119.184H334.829V104.848H336.141V110.656H338.509Z" fill="white"/>
</g>
<g filter="url(#filter3_d_1167_1903)">
<path d="M268.25 145.75C268.25 145.551 268.329 145.36 268.47 145.22C268.61 145.079 268.801 145 269 145H278C278.199 145 278.39 145.079 278.53 145.22C278.671 145.36 278.75 145.551 278.75 145.75C278.75 145.949 278.671 146.14 278.53 146.28C278.39 146.421 278.199 146.5 278 146.5H269C268.801 146.5 268.61 146.421 268.47 146.28C268.329 146.14 268.25 145.949 268.25 145.75ZM283.193 154.463C283.136 154.326 283.04 154.209 282.917 154.126C282.793 154.044 282.648 154 282.5 154H278.75V151.75C278.75 151.551 278.671 151.36 278.53 151.22C278.39 151.079 278.199 151 278 151H269C268.801 151 268.61 151.079 268.47 151.22C268.329 151.36 268.25 151.551 268.25 151.75V154H264.5C264.352 154 264.207 154.044 264.083 154.126C263.96 154.209 263.863 154.326 263.807 154.463C263.75 154.6 263.735 154.751 263.764 154.896C263.793 155.042 263.864 155.176 263.969 155.281L272.969 164.281C273.039 164.35 273.122 164.406 273.213 164.443C273.304 164.481 273.402 164.501 273.5 164.501C273.599 164.501 273.696 164.481 273.787 164.443C273.878 164.406 273.961 164.35 274.031 164.281L283.031 155.281C283.136 155.176 283.207 155.042 283.236 154.896C283.265 154.751 283.25 154.6 283.193 154.463ZM269 149.5H278C278.199 149.5 278.39 149.421 278.53 149.28C278.671 149.14 278.75 148.949 278.75 148.75C278.75 148.551 278.671 148.36 278.53 148.22C278.39 148.079 278.199 148 278 148H269C268.801 148 268.61 148.079 268.47 148.22C268.329 148.36 268.25 148.551 268.25 148.75C268.25 148.949 268.329 149.14 268.47 149.28C268.61 149.421 268.801 149.5 269 149.5Z" fill="#FFD401"/>
</g>
<g filter="url(#filter4_d_1167_1903)">
<rect x="60.5" y="170" width="426" height="52" rx="4" fill="#7D5FFF"/>
<path d="M204.508 202.192C203.612 202.192 202.753 202.075 201.932 201.84C201.111 201.595 200.449 201.28 199.948 200.896L200.828 198.944C201.308 199.285 201.873 199.568 202.524 199.792C203.185 200.005 203.852 200.112 204.524 200.112C205.036 200.112 205.447 200.064 205.756 199.968C206.076 199.861 206.311 199.717 206.46 199.536C206.609 199.355 206.684 199.147 206.684 198.912C206.684 198.613 206.567 198.379 206.332 198.208C206.097 198.027 205.788 197.883 205.404 197.776C205.02 197.659 204.593 197.552 204.124 197.456C203.665 197.349 203.201 197.221 202.732 197.072C202.273 196.923 201.852 196.731 201.468 196.496C201.084 196.261 200.769 195.952 200.524 195.568C200.289 195.184 200.172 194.693 200.172 194.096C200.172 193.456 200.343 192.875 200.684 192.352C201.036 191.819 201.559 191.397 202.252 191.088C202.956 190.768 203.836 190.608 204.892 190.608C205.596 190.608 206.289 190.693 206.972 190.864C207.655 191.024 208.257 191.269 208.78 191.6L207.98 193.568C207.457 193.269 206.935 193.051 206.412 192.912C205.889 192.763 205.377 192.688 204.876 192.688C204.375 192.688 203.964 192.747 203.644 192.864C203.324 192.981 203.095 193.136 202.956 193.328C202.817 193.509 202.748 193.723 202.748 193.968C202.748 194.256 202.865 194.491 203.1 194.672C203.335 194.843 203.644 194.981 204.028 195.088C204.412 195.195 204.833 195.301 205.292 195.408C205.761 195.515 206.225 195.637 206.684 195.776C207.153 195.915 207.58 196.101 207.964 196.336C208.348 196.571 208.657 196.88 208.892 197.264C209.137 197.648 209.26 198.133 209.26 198.72C209.26 199.349 209.084 199.925 208.732 200.448C208.38 200.971 207.852 201.392 207.148 201.712C206.455 202.032 205.575 202.192 204.508 202.192ZM212.395 202V192.912H208.811V190.8H218.571V192.912H214.987V202H212.395ZM221.549 195.312H226.941V197.328H221.549V195.312ZM221.741 199.92H227.837V202H219.165V190.8H227.63V192.88H221.741V199.92ZM229.1 202V190.8H233.948C234.951 190.8 235.815 190.965 236.54 191.296C237.265 191.616 237.825 192.08 238.22 192.688C238.615 193.296 238.812 194.021 238.812 194.864C238.812 195.696 238.615 196.416 238.22 197.024C237.825 197.632 237.265 198.101 236.54 198.432C235.815 198.752 234.951 198.912 233.948 198.912H230.54L231.692 197.744V202H229.1ZM231.692 198.032L230.54 196.8H233.804C234.604 196.8 235.201 196.629 235.596 196.288C235.991 195.947 236.188 195.472 236.188 194.864C236.188 194.245 235.991 193.765 235.596 193.424C235.201 193.083 234.604 192.912 233.804 192.912H230.54L231.692 191.68V198.032ZM247.846 202.192C246.929 202.192 246.107 201.968 245.382 201.52C244.657 201.061 244.086 200.4 243.67 199.536C243.254 198.672 243.046 197.627 243.046 196.4C243.046 195.173 243.254 194.128 243.67 193.264C244.086 192.4 244.657 191.744 245.382 191.296C246.107 190.837 246.929 190.608 247.846 190.608C248.774 190.608 249.595 190.837 250.31 191.296C251.035 191.744 251.606 192.4 252.022 193.264C252.438 194.128 252.646 195.173 252.646 196.4C252.646 197.627 252.438 198.672 252.022 199.536C251.606 200.4 251.035 201.061 250.31 201.52C249.595 201.968 248.774 202.192 247.846 202.192ZM247.846 200C248.283 200 248.662 199.877 248.982 199.632C249.313 199.387 249.569 198.997 249.75 198.464C249.942 197.931 250.038 197.243 250.038 196.4C250.038 195.557 249.942 194.869 249.75 194.336C249.569 193.803 249.313 193.413 248.982 193.168C248.662 192.923 248.283 192.8 247.846 192.8C247.419 192.8 247.041 192.923 246.71 193.168C246.39 193.413 246.134 193.803 245.942 194.336C245.761 194.869 245.67 195.557 245.67 196.4C245.67 197.243 245.761 197.931 245.942 198.464C246.134 198.997 246.39 199.387 246.71 199.632C247.041 199.877 247.419 200 247.846 200ZM256.581 202.192C255.802 202.192 255.029 202.091 254.261 201.888C253.493 201.675 252.842 201.376 252.309 200.992L253.317 199.008C253.744 199.317 254.24 199.563 254.805 199.744C255.37 199.925 255.941 200.016 256.517 200.016C257.168 200.016 257.68 199.888 258.053 199.632C258.426 199.376 258.613 199.024 258.613 198.576C258.613 198.149 258.448 197.813 258.117 197.568C257.786 197.323 257.253 197.2 256.517 197.2H255.333V195.488L258.453 191.952L258.741 192.88H252.869V190.8H260.709V192.48L257.605 196.016L256.293 195.264H257.045C258.421 195.264 259.461 195.573 260.165 196.192C260.869 196.811 261.221 197.605 261.221 198.576C261.221 199.205 261.056 199.797 260.725 200.352C260.394 200.896 259.888 201.339 259.205 201.68C258.522 202.021 257.648 202.192 256.581 202.192Z" fill="#FFDB43"/>
<path d="M271.092 202V200.912L275.652 196.512C276.057 196.128 276.356 195.792 276.548 195.504C276.751 195.205 276.884 194.933 276.948 194.688C277.023 194.432 277.06 194.187 277.06 193.952C277.06 193.376 276.857 192.923 276.452 192.592C276.047 192.261 275.455 192.096 274.676 192.096C274.079 192.096 273.54 192.197 273.06 192.4C272.58 192.592 272.164 192.896 271.812 193.312L270.724 192.368C271.151 191.824 271.721 191.408 272.436 191.12C273.161 190.821 273.956 190.672 274.82 190.672C275.599 190.672 276.276 190.8 276.852 191.056C277.428 191.301 277.871 191.659 278.18 192.128C278.5 192.597 278.66 193.152 278.66 193.792C278.66 194.155 278.612 194.512 278.516 194.864C278.42 195.216 278.239 195.589 277.972 195.984C277.705 196.379 277.321 196.821 276.82 197.312L272.756 201.232L272.372 200.608H279.14V202H271.092ZM280.711 195.632C280.413 195.632 280.157 195.531 279.943 195.328C279.73 195.115 279.623 194.848 279.623 194.528C279.623 194.208 279.73 193.947 279.943 193.744C280.157 193.541 280.413 193.44 280.711 193.44C280.999 193.44 281.245 193.541 281.447 193.744C281.661 193.947 281.767 194.208 281.767 194.528C281.767 194.848 281.661 195.115 281.447 195.328C281.245 195.531 280.999 195.632 280.711 195.632ZM280.711 202.096C280.413 202.096 280.157 201.995 279.943 201.792C279.73 201.579 279.623 201.312 279.623 200.992C279.623 200.672 279.73 200.411 279.943 200.208C280.157 200.005 280.413 199.904 280.711 199.904C280.999 199.904 281.245 200.005 281.447 200.208C281.661 200.411 281.767 200.672 281.767 200.992C281.767 201.312 281.661 201.579 281.447 201.792C281.245 201.995 280.999 202.096 280.711 202.096ZM284.368 202V191.44L285.056 192.192H281.84V190.8H285.952V202H284.368ZM299.867 195.328L299.211 196.368C297.563 195.792 296.251 194.576 295.595 193.024C294.971 194.688 293.643 196.016 291.947 196.64L291.275 195.616C293.451 194.832 294.923 192.912 294.923 190.8V189.408H296.235V190.8C296.235 192.832 297.739 194.624 299.867 195.328ZM294.955 198.864V201.936H301.675V198.864H294.955ZM293.675 202.992V197.824H302.955V202.992H293.675ZM301.643 188.848H302.955V197.008H301.643V188.848ZM306.266 195.184L305.866 194.176C308.538 193.92 310.746 192.848 310.874 191.28H306.442V190.24H310.938V188.784H312.25V190.24H316.746V191.28H312.298C312.426 192.848 314.618 193.92 317.322 194.176L316.922 195.184C314.554 194.944 312.458 194.096 311.594 192.688C310.714 194.096 308.634 194.944 306.266 195.184ZM311.578 202.176C313.85 202.176 315.162 201.68 315.162 200.784C315.162 199.888 313.85 199.376 311.578 199.376C309.306 199.376 307.994 199.888 307.994 200.784C307.994 201.68 309.306 202.176 311.578 202.176ZM311.578 198.4C314.666 198.4 316.49 199.232 316.49 200.784C316.49 202.336 314.666 203.168 311.578 203.168C308.49 203.168 306.666 202.336 306.666 200.784C306.666 199.232 308.49 198.4 311.578 198.4ZM305.098 196.128H318.074V197.184H305.098V196.128ZM324.937 195.744V191.136H320.969V195.744H324.937ZM329.513 192.432H326.217V194.432H329.513V192.432ZM326.217 195.504V196.784H319.673V190.096H326.217V191.36H329.513V188.848H330.841V199.312H329.513V195.504H326.217ZM322.921 201.792H331.177V202.864H321.609V198.384H322.921V201.792ZM341.4 195.504L340.744 196.544C339.144 195.952 337.912 194.768 337.272 193.296C336.664 194.944 335.352 196.24 333.672 196.88L332.984 195.84C335.112 195.088 336.6 193.184 336.6 191.136V190.768H333.4V189.696H341.064V190.768H337.912V191.136C337.912 192.976 339.32 194.768 341.4 195.504ZM343.448 201.92V200.112H336.856V201.92H343.448ZM343.448 199.088V197.312H344.744V202.992H335.56V197.312H336.856V199.088H343.448ZM343.432 188.848H344.744V196.624H343.432V193.392H340.6V192.32H343.432V188.848Z" fill="white"/>
</g>
<g filter="url(#filter5_d_1167_1903)">
<path d="M268.25 229.75C268.25 229.551 268.329 229.36 268.47 229.22C268.61 229.079 268.801 229 269 229H278C278.199 229 278.39 229.079 278.53 229.22C278.671 229.36 278.75 229.551 278.75 229.75C278.75 229.949 278.671 230.14 278.53 230.28C278.39 230.421 278.199 230.5 278 230.5H269C268.801 230.5 268.61 230.421 268.47 230.28C268.329 230.14 268.25 229.949 268.25 229.75ZM283.193 238.463C283.136 238.326 283.04 238.209 282.917 238.126C282.793 238.044 282.648 238 282.5 238H278.75V235.75C278.75 235.551 278.671 235.36 278.53 235.22C278.39 235.079 278.199 235 278 235H269C268.801 235 268.61 235.079 268.47 235.22C268.329 235.36 268.25 235.551 268.25 235.75V238H264.5C264.352 238 264.207 238.044 264.083 238.126C263.96 238.209 263.863 238.326 263.807 238.463C263.75 238.6 263.735 238.751 263.764 238.896C263.793 239.042 263.864 239.176 263.969 239.281L272.969 248.281C273.039 248.35 273.122 248.406 273.213 248.443C273.304 248.481 273.402 248.501 273.5 248.501C273.599 248.501 273.696 248.481 273.787 248.443C273.878 248.406 273.961 248.35 274.031 248.281L283.031 239.281C283.136 239.176 283.207 239.042 283.236 238.896C283.265 238.751 283.25 238.6 283.193 238.463ZM269 233.5H278C278.199 233.5 278.39 233.421 278.53 233.28C278.671 233.14 278.75 232.949 278.75 232.75C278.75 232.551 278.671 232.36 278.53 232.22C278.39 232.079 278.199 232 278 232H269C268.801 232 268.61 232.079 268.47 232.22C268.329 232.36 268.25 232.551 268.25 232.75C268.25 232.949 268.329 233.14 268.47 233.28C268.61 233.421 268.801 233.5 269 233.5Z" fill="#FFD401"/>
</g>
<g filter="url(#filter6_d_1167_1903)">
<rect x="60.5" y="254" width="426" height="52" rx="4" fill="#7D5FFF"/>
<path d="M173.508 286.192C172.612 286.192 171.753 286.075 170.932 285.84C170.111 285.595 169.449 285.28 168.948 284.896L169.828 282.944C170.308 283.285 170.873 283.568 171.524 283.792C172.185 284.005 172.852 284.112 173.524 284.112C174.036 284.112 174.447 284.064 174.756 283.968C175.076 283.861 175.311 283.717 175.46 283.536C175.609 283.355 175.684 283.147 175.684 282.912C175.684 282.613 175.567 282.379 175.332 282.208C175.097 282.027 174.788 281.883 174.404 281.776C174.02 281.659 173.593 281.552 173.124 281.456C172.665 281.349 172.201 281.221 171.732 281.072C171.273 280.923 170.852 280.731 170.468 280.496C170.084 280.261 169.769 279.952 169.524 279.568C169.289 279.184 169.172 278.693 169.172 278.096C169.172 277.456 169.343 276.875 169.684 276.352C170.036 275.819 170.559 275.397 171.252 275.088C171.956 274.768 172.836 274.608 173.892 274.608C174.596 274.608 175.289 274.693 175.972 274.864C176.655 275.024 177.257 275.269 177.78 275.6L176.98 277.568C176.457 277.269 175.935 277.051 175.412 276.912C174.889 276.763 174.377 276.688 173.876 276.688C173.375 276.688 172.964 276.747 172.644 276.864C172.324 276.981 172.095 277.136 171.956 277.328C171.817 277.509 171.748 277.723 171.748 277.968C171.748 278.256 171.865 278.491 172.1 278.672C172.335 278.843 172.644 278.981 173.028 279.088C173.412 279.195 173.833 279.301 174.292 279.408C174.761 279.515 175.225 279.637 175.684 279.776C176.153 279.915 176.58 280.101 176.964 280.336C177.348 280.571 177.657 280.88 177.892 281.264C178.137 281.648 178.26 282.133 178.26 282.72C178.26 283.349 178.084 283.925 177.732 284.448C177.38 284.971 176.852 285.392 176.148 285.712C175.455 286.032 174.575 286.192 173.508 286.192ZM181.395 286V276.912H177.811V274.8H187.571V276.912H183.987V286H181.395ZM190.549 279.312H195.941V281.328H190.549V279.312ZM190.741 283.92H196.837V286H188.165V274.8H196.63V276.88H190.741V283.92ZM198.1 286V274.8H202.948C203.951 274.8 204.815 274.965 205.54 275.296C206.265 275.616 206.825 276.08 207.22 276.688C207.615 277.296 207.812 278.021 207.812 278.864C207.812 279.696 207.615 280.416 207.22 281.024C206.825 281.632 206.265 282.101 205.54 282.432C204.815 282.752 203.951 282.912 202.948 282.912H199.54L200.692 281.744V286H198.1ZM200.692 282.032L199.54 280.8H202.804C203.604 280.8 204.201 280.629 204.596 280.288C204.991 279.947 205.188 279.472 205.188 278.864C205.188 278.245 204.991 277.765 204.596 277.424C204.201 277.083 203.604 276.912 202.804 276.912H199.54L200.692 275.68V282.032ZM216.846 286.192C215.929 286.192 215.107 285.968 214.382 285.52C213.657 285.061 213.086 284.4 212.67 283.536C212.254 282.672 212.046 281.627 212.046 280.4C212.046 279.173 212.254 278.128 212.67 277.264C213.086 276.4 213.657 275.744 214.382 275.296C215.107 274.837 215.929 274.608 216.846 274.608C217.774 274.608 218.595 274.837 219.31 275.296C220.035 275.744 220.606 276.4 221.022 277.264C221.438 278.128 221.646 279.173 221.646 280.4C221.646 281.627 221.438 282.672 221.022 283.536C220.606 284.4 220.035 285.061 219.31 285.52C218.595 285.968 217.774 286.192 216.846 286.192ZM216.846 284C217.283 284 217.662 283.877 217.982 283.632C218.313 283.387 218.569 282.997 218.75 282.464C218.942 281.931 219.038 281.243 219.038 280.4C219.038 279.557 218.942 278.869 218.75 278.336C218.569 277.803 218.313 277.413 217.982 277.168C217.662 276.923 217.283 276.8 216.846 276.8C216.419 276.8 216.041 276.923 215.71 277.168C215.39 277.413 215.134 277.803 214.942 278.336C214.761 278.869 214.67 279.557 214.67 280.4C214.67 281.243 214.761 281.931 214.942 282.464C215.134 282.997 215.39 283.387 215.71 283.632C216.041 283.877 216.419 284 216.846 284ZM221.977 283.648V281.904L227.257 274.8H229.977L224.809 281.904L223.545 281.536H232.361V283.648H221.977ZM228.009 286V283.648L228.089 281.536V279.44H230.537V286H228.009Z" fill="#FFDB43"/>
<path d="M247.436 274.08V276.656C247.436 279.28 249.148 281.92 251.276 282.88L250.492 283.936C248.86 283.136 247.484 281.44 246.796 279.392C246.14 281.552 244.764 283.344 243.084 284.208L242.284 283.136C244.396 282.128 246.14 279.376 246.14 276.656V274.08H247.436ZM252.78 272.832H254.092V287.216H252.78V272.832ZM260.043 282.928V285.936H266.811V282.928H260.043ZM258.763 286.992V281.888H268.091V286.992H258.763ZM262.155 279.296V276.96H258.283V279.296H262.155ZM266.763 272.848L268.091 272.832V281.152H266.763V277.536H263.451V280.352H256.987V273.648H258.283V275.92H262.155V273.632H263.451V276.464H266.763V272.848ZM270.825 273.904H277.45C277.45 277.552 274.905 280.224 270.745 281.456L270.217 280.4C273.625 279.392 275.786 277.44 276.025 274.96H270.825V273.904ZM276.826 286.128C278.889 286.128 280.201 285.472 280.201 284.384C280.201 283.28 278.889 282.624 276.826 282.624C274.761 282.624 273.449 283.28 273.449 284.384C273.449 285.472 274.761 286.128 276.826 286.128ZM276.826 281.6C279.658 281.6 281.498 282.64 281.498 284.384C281.498 286.112 279.658 287.168 276.826 287.168C273.993 287.168 272.153 286.112 272.153 284.384C272.153 282.64 273.993 281.6 276.826 281.6ZM281.321 276.544H283.45V277.632H281.321V281.408H280.01V272.832H281.321V276.544ZM288.76 273.888C291 273.888 292.6 275.248 292.6 277.264C292.6 279.264 291 280.64 288.76 280.64C286.536 280.64 284.92 279.264 284.92 277.264C284.92 275.248 286.536 273.888 288.76 273.888ZM288.76 275.008C287.288 275.008 286.2 275.92 286.2 277.264C286.2 278.592 287.288 279.52 288.76 279.52C290.248 279.52 291.32 278.592 291.32 277.264C291.32 275.92 290.248 275.008 288.76 275.008ZM294.488 272.832H295.8V287.216H294.488V272.832ZM284.36 284.064L284.2 282.96C286.808 282.96 290.408 282.944 293.544 282.464L293.656 283.44C290.424 284.032 286.952 284.064 284.36 284.064ZM313.296 272.848V283.344H311.984V272.848H313.296ZM310.288 280.256L309.648 281.296C308 280.72 306.688 279.536 306.032 278.032C305.424 279.664 304.096 280.96 302.4 281.568L301.712 280.544C303.888 279.792 305.344 277.92 305.344 275.872V275.088H302.064V274.032H309.936V275.088H306.688V275.872C306.688 277.808 308.176 279.552 310.288 280.256ZM305.376 285.792H313.728V286.864H304.064V282.352H305.376V285.792ZM324.463 277.808V281.392H323.215V273.104H324.463V276.736H326.287V272.832H327.551V281.92H326.287V277.808H324.463ZM322.639 274.544L322.655 275.584H315.359V274.544H318.367V272.944H319.663V274.544H322.639ZM317.135 278.784C317.135 279.68 317.887 280.272 319.023 280.272C320.143 280.272 320.911 279.68 320.911 278.784C320.911 277.904 320.143 277.312 319.023 277.312C317.887 277.312 317.135 277.904 317.135 278.784ZM322.079 278.784C322.079 280.288 320.831 281.248 319.023 281.248C317.215 281.248 315.951 280.288 315.951 278.784C315.951 277.312 317.215 276.336 319.023 276.336C320.831 276.336 322.079 277.312 322.079 278.784ZM322.831 286.16C325.007 286.16 326.319 285.616 326.319 284.672C326.319 283.712 325.007 283.168 322.831 283.168C320.639 283.168 319.327 283.712 319.327 284.672C319.327 285.616 320.639 286.16 322.831 286.16ZM322.831 282.16C325.823 282.16 327.631 283.056 327.631 284.672C327.631 286.272 325.823 287.168 322.831 287.168C319.839 287.168 318.031 286.272 318.031 284.672C318.031 283.056 319.839 282.16 322.831 282.16ZM344.614 272.832V281.072H343.302V272.832H344.614ZM339.03 278.576V274.8H334.886V278.576H339.03ZM340.31 273.76V279.632H333.606V273.76H340.31ZM344.95 283.056H340.758C340.774 284.432 342.998 285.824 345.462 286.128L345.014 287.136C342.854 286.832 340.934 285.84 340.086 284.512C339.222 285.872 337.238 286.832 335.078 287.136L334.646 286.128C337.094 285.84 339.382 284.48 339.398 283.056H335.206V282.048H339.414V280.656H340.742V282.048H344.95V283.056ZM360.766 281.68V279.04H358.398V277.968H360.766V276.464H358.398V275.392H360.766V272.848H362.094V281.68H360.766ZM353.39 274.976V279.712C354.094 279.696 354.83 279.664 355.55 279.632V274.976H353.39ZM358.702 279.376L358.782 280.352C356.014 280.784 352.782 280.832 350.462 280.832L350.318 279.744C350.862 279.744 351.486 279.744 352.126 279.728V274.976H350.702V273.92H358.254V274.976H356.83V279.552C357.47 279.504 358.11 279.456 358.702 279.376ZM357.358 286.144C359.534 286.144 360.83 285.568 360.83 284.56C360.83 283.584 359.534 282.992 357.358 282.992C355.182 282.992 353.886 283.584 353.886 284.56C353.886 285.568 355.182 286.144 357.358 286.144ZM357.358 281.984C360.318 281.984 362.142 282.912 362.142 284.56C362.142 286.224 360.318 287.168 357.358 287.168C354.382 287.168 352.574 286.224 352.574 284.56C352.574 282.912 354.382 281.984 357.358 281.984ZM364.957 274.368H371.517C371.517 278.448 369.645 282.144 365.005 284.464L364.285 283.44C367.949 281.6 369.917 278.848 370.221 275.456H364.957V274.368ZM377.533 278.656V279.744H375.229V287.184H373.917V272.832H375.229V278.656H377.533Z" fill="white"/>
</g>
<g filter="url(#filter7_d_1167_1903)">
<path d="M268.25 313.75C268.25 313.551 268.329 313.36 268.47 313.22C268.61 313.079 268.801 313 269 313H278C278.199 313 278.39 313.079 278.53 313.22C278.671 313.36 278.75 313.551 278.75 313.75C278.75 313.949 278.671 314.14 278.53 314.28C278.39 314.421 278.199 314.5 278 314.5H269C268.801 314.5 268.61 314.421 268.47 314.28C268.329 314.14 268.25 313.949 268.25 313.75ZM283.193 322.463C283.136 322.326 283.04 322.209 282.917 322.126C282.793 322.044 282.648 322 282.5 322H278.75V319.75C278.75 319.551 278.671 319.36 278.53 319.22C278.39 319.079 278.199 319 278 319H269C268.801 319 268.61 319.079 268.47 319.22C268.329 319.36 268.25 319.551 268.25 319.75V322H264.5C264.352 322 264.207 322.044 264.083 322.126C263.96 322.209 263.863 322.326 263.807 322.463C263.75 322.6 263.735 322.751 263.764 322.896C263.793 323.042 263.864 323.176 263.969 323.281L272.969 332.281C273.039 332.35 273.122 332.406 273.213 332.443C273.304 332.481 273.402 332.501 273.5 332.501C273.599 332.501 273.696 332.481 273.787 332.443C273.878 332.406 273.961 332.35 274.031 332.281L283.031 323.281C283.136 323.176 283.207 323.042 283.236 322.896C283.265 322.751 283.25 322.6 283.193 322.463ZM269 317.5H278C278.199 317.5 278.39 317.421 278.53 317.28C278.671 317.14 278.75 316.949 278.75 316.75C278.75 316.551 278.671 316.36 278.53 316.22C278.39 316.079 278.199 316 278 316H269C268.801 316 268.61 316.079 268.47 316.22C268.329 316.36 268.25 316.551 268.25 316.75C268.25 316.949 268.329 317.14 268.47 317.28C268.61 317.421 268.801 317.5 269 317.5Z" fill="#FFD401"/>
</g>
<g filter="url(#filter8_d_1167_1903)">
<rect x="60.5" y="338" width="426" height="52" rx="4" fill="#7D5FFF"/>
<path d="M213.008 370.192C212.112 370.192 211.253 370.075 210.432 369.84C209.611 369.595 208.949 369.28 208.448 368.896L209.328 366.944C209.808 367.285 210.373 367.568 211.024 367.792C211.685 368.005 212.352 368.112 213.024 368.112C213.536 368.112 213.947 368.064 214.256 367.968C214.576 367.861 214.811 367.717 214.96 367.536C215.109 367.355 215.184 367.147 215.184 366.912C215.184 366.613 215.067 366.379 214.832 366.208C214.597 366.027 214.288 365.883 213.904 365.776C213.52 365.659 213.093 365.552 212.624 365.456C212.165 365.349 211.701 365.221 211.232 365.072C210.773 364.923 210.352 364.731 209.968 364.496C209.584 364.261 209.269 363.952 209.024 363.568C208.789 363.184 208.672 362.693 208.672 362.096C208.672 361.456 208.843 360.875 209.184 360.352C209.536 359.819 210.059 359.397 210.752 359.088C211.456 358.768 212.336 358.608 213.392 358.608C214.096 358.608 214.789 358.693 215.472 358.864C216.155 359.024 216.757 359.269 217.28 359.6L216.48 361.568C215.957 361.269 215.435 361.051 214.912 360.912C214.389 360.763 213.877 360.688 213.376 360.688C212.875 360.688 212.464 360.747 212.144 360.864C211.824 360.981 211.595 361.136 211.456 361.328C211.317 361.509 211.248 361.723 211.248 361.968C211.248 362.256 211.365 362.491 211.6 362.672C211.835 362.843 212.144 362.981 212.528 363.088C212.912 363.195 213.333 363.301 213.792 363.408C214.261 363.515 214.725 363.637 215.184 363.776C215.653 363.915 216.08 364.101 216.464 364.336C216.848 364.571 217.157 364.88 217.392 365.264C217.637 365.648 217.76 366.133 217.76 366.72C217.76 367.349 217.584 367.925 217.232 368.448C216.88 368.971 216.352 369.392 215.648 369.712C214.955 370.032 214.075 370.192 213.008 370.192ZM220.895 370V360.912H217.311V358.8H227.071V360.912H223.487V370H220.895ZM230.049 363.312H235.441V365.328H230.049V363.312ZM230.241 367.92H236.337V370H227.665V358.8H236.13V360.88H230.241V367.92ZM237.6 370V358.8H242.448C243.451 358.8 244.315 358.965 245.04 359.296C245.765 359.616 246.325 360.08 246.72 360.688C247.115 361.296 247.312 362.021 247.312 362.864C247.312 363.696 247.115 364.416 246.72 365.024C246.325 365.632 245.765 366.101 245.04 366.432C244.315 366.752 243.451 366.912 242.448 366.912H239.04L240.192 365.744V370H237.6ZM240.192 366.032L239.04 364.8H242.304C243.104 364.8 243.701 364.629 244.096 364.288C244.491 363.947 244.688 363.472 244.688 362.864C244.688 362.245 244.491 361.765 244.096 361.424C243.701 361.083 243.104 360.912 242.304 360.912H239.04L240.192 359.68V366.032ZM256.346 370.192C255.429 370.192 254.607 369.968 253.882 369.52C253.157 369.061 252.586 368.4 252.17 367.536C251.754 366.672 251.546 365.627 251.546 364.4C251.546 363.173 251.754 362.128 252.17 361.264C252.586 360.4 253.157 359.744 253.882 359.296C254.607 358.837 255.429 358.608 256.346 358.608C257.274 358.608 258.095 358.837 258.81 359.296C259.535 359.744 260.106 360.4 260.522 361.264C260.938 362.128 261.146 363.173 261.146 364.4C261.146 365.627 260.938 366.672 260.522 367.536C260.106 368.4 259.535 369.061 258.81 369.52C258.095 369.968 257.274 370.192 256.346 370.192ZM256.346 368C256.783 368 257.162 367.877 257.482 367.632C257.813 367.387 258.069 366.997 258.25 366.464C258.442 365.931 258.538 365.243 258.538 364.4C258.538 363.557 258.442 362.869 258.25 362.336C258.069 361.803 257.813 361.413 257.482 361.168C257.162 360.923 256.783 360.8 256.346 360.8C255.919 360.8 255.541 360.923 255.21 361.168C254.89 361.413 254.634 361.803 254.442 362.336C254.261 362.869 254.17 363.557 254.17 364.4C254.17 365.243 254.261 365.931 254.442 366.464C254.634 366.997 254.89 367.387 255.21 367.632C255.541 367.877 255.919 368 256.346 368ZM265.413 370.192C264.635 370.192 263.861 370.091 263.093 369.888C262.336 369.675 261.685 369.376 261.141 368.992L262.165 367.008C262.592 367.317 263.083 367.563 263.637 367.744C264.203 367.925 264.773 368.016 265.349 368.016C266 368.016 266.512 367.888 266.885 367.632C267.259 367.376 267.445 367.019 267.445 366.56C267.445 366.272 267.371 366.016 267.221 365.792C267.072 365.568 266.805 365.397 266.421 365.28C266.048 365.163 265.52 365.104 264.837 365.104H261.973L262.549 358.8H269.381V360.88H263.477L264.821 359.696L264.421 364.192L263.077 363.008H265.445C266.555 363.008 267.445 363.163 268.117 363.472C268.8 363.771 269.296 364.181 269.605 364.704C269.915 365.227 270.069 365.819 270.069 366.48C270.069 367.141 269.904 367.755 269.573 368.32C269.243 368.875 268.731 369.328 268.037 369.68C267.355 370.021 266.48 370.192 265.413 370.192Z" fill="#FFDB43"/>
<path d="M287.512 360.56H290.344V356.848H291.672V365.392H290.344V361.632H287.512V360.56ZM288.312 363.824L287.656 364.848C286.056 364.272 284.824 363.088 284.2 361.616C283.592 363.28 282.264 364.624 280.584 365.264L279.896 364.224C282.04 363.44 283.512 361.504 283.512 359.44V358.944H280.312V357.888H287.976V358.944H284.824V359.44C284.824 361.28 286.232 363.088 288.312 363.824ZM286.936 370.16C289.096 370.16 290.408 369.552 290.408 368.512C290.408 367.472 289.096 366.848 286.936 366.848C284.776 366.848 283.464 367.472 283.464 368.512C283.464 369.552 284.776 370.16 286.936 370.16ZM286.936 365.84C289.88 365.84 291.72 366.816 291.72 368.512C291.72 370.208 289.88 371.184 286.936 371.184C283.992 371.184 282.152 370.208 282.152 368.512C282.152 366.816 283.992 365.84 286.936 365.84ZM306.743 364.016V365.088H303.319V371.168H302.023V365.088H298.423V371.168H297.111V365.088H293.783V364.016H303.223C303.671 361.744 303.671 360.112 303.671 358.832H295.415V357.744H304.967V358.816C304.967 360.112 304.967 361.744 304.535 364.016H306.743ZM315.358 360.576V361.232C315.358 363.52 316.526 365.856 318.446 366.912L317.694 367.888C316.286 367.104 315.278 365.664 314.75 363.952C314.254 365.776 313.246 367.376 311.838 368.208L311.054 367.216C312.99 366.08 314.11 363.584 314.11 361.232V360.576H311.406V359.504H314.11V357.36H315.374V359.504H318.062V360.576H315.358ZM322.158 356.832H323.422V371.184H322.158V363.712H320.27V370.48H319.038V357.152H320.27V362.624H322.158V356.832ZM331.581 370.16C333.821 370.16 335.165 369.6 335.165 368.624C335.165 367.648 333.821 367.088 331.581 367.088C329.325 367.088 327.997 367.648 327.997 368.624C327.997 369.6 329.325 370.16 331.581 370.16ZM331.581 366.064C334.669 366.064 336.493 366.976 336.493 368.624C336.493 370.272 334.669 371.168 331.581 371.168C328.509 371.168 326.669 370.272 326.669 368.624C326.669 366.976 328.509 366.064 331.581 366.064ZM329.597 362.256V363.936H333.581V362.256C332.989 362.352 332.317 362.416 331.581 362.416C330.861 362.416 330.189 362.352 329.597 362.256ZM327.885 359.76C327.885 360.784 329.293 361.408 331.581 361.408C333.869 361.408 335.277 360.784 335.277 359.76C335.277 358.72 333.869 358.112 331.581 358.112C329.293 358.112 327.885 358.72 327.885 359.76ZM334.877 363.936H338.077V364.992H325.085V363.936H328.301V361.92C327.165 361.456 326.541 360.736 326.541 359.76C326.541 358.08 328.477 357.088 331.581 357.088C334.701 357.088 336.621 358.08 336.621 359.76C336.621 360.72 335.981 361.456 334.877 361.904V363.936Z" fill="white"/>
</g>
<defs>
<filter id="filter0_d_1167_1903" x="56.5" y="0" width="434" height="60" filterUnits="userSpaceOnUse" color-interpolation-filters="sRGB">
<feFlood flood-opacity="0" result="BackgroundImageFix"/>
<feColorMatrix in="SourceAlpha" type="matrix" values="0 0 0 0 0 0 0 0 0 0 0 0 0 0 0 0 0 0 127 0" result="hardAlpha"/>
<feOffset dy="2"/>
<feGaussianBlur stdDeviation="2"/>
<feColorMatrix type="matrix" values="0 0 0 0 0.105882 0 0 0 0 0.109804 0 0 0 0 0.113725 0 0 0 0.04 0"/>
<feBlend mode="normal" in2="BackgroundImageFix" result="effect1_dropShadow_1167_1903"/>
<feBlend mode="normal" in="SourceGraphic" in2="effect1_dropShadow_1167_1903" result="shape"/>
</filter>
<filter id="filter1_d_1167_1903" x="257.5" y="56" width="32" height="32" filterUnits="userSpaceOnUse" color-interpolation-filters="sRGB">
<feFlood flood-opacity="0" result="BackgroundImageFix"/>
<feColorMatrix in="SourceAlpha" type="matrix" values="0 0 0 0 0 0 0 0 0 0 0 0 0 0 0 0 0 0 127 0" result="hardAlpha"/>
<feOffset dy="2"/>
<feGaussianBlur stdDeviation="2"/>
<feColorMatrix type="matrix" values="0 0 0 0 0.105882 0 0 0 0 0.109804 0 0 0 0 0.113725 0 0 0 0.04 0"/>
<feBlend mode="normal" in2="BackgroundImageFix" result="effect1_dropShadow_1167_1903"/>
<feBlend mode="normal" in="SourceGraphic" in2="effect1_dropShadow_1167_1903" result="shape"/>
</filter>
<filter id="filter2_d_1167_1903" x="56.5" y="84" width="434" height="60" filterUnits="userSpaceOnUse" color-interpolation-filters="sRGB">
<feFlood flood-opacity="0" result="BackgroundImageFix"/>
<feColorMatrix in="SourceAlpha" type="matrix" values="0 0 0 0 0 0 0 0 0 0 0 0 0 0 0 0 0 0 127 0" result="hardAlpha"/>
<feOffset dy="2"/>
<feGaussianBlur stdDeviation="2"/>
<feColorMatrix type="matrix" values="0 0 0 0 0.105882 0 0 0 0 0.109804 0 0 0 0 0.113725 0 0 0 0.04 0"/>
<feBlend mode="normal" in2="BackgroundImageFix" result="effect1_dropShadow_1167_1903"/>
<feBlend mode="normal" in="SourceGraphic" in2="effect1_dropShadow_1167_1903" result="shape"/>
</filter>
<filter id="filter3_d_1167_1903" x="257.5" y="140" width="32" height="32" filterUnits="userSpaceOnUse" color-interpolation-filters="sRGB">
<feFlood flood-opacity="0" result="BackgroundImageFix"/>
<feColorMatrix in="SourceAlpha" type="matrix" values="0 0 0 0 0 0 0 0 0 0 0 0 0 0 0 0 0 0 127 0" result="hardAlpha"/>
<feOffset dy="2"/>
<feGaussianBlur stdDeviation="2"/>
<feColorMatrix type="matrix" values="0 0 0 0 0.105882 0 0 0 0 0.109804 0 0 0 0 0.113725 0 0 0 0.04 0"/>
<feBlend mode="normal" in2="BackgroundImageFix" result="effect1_dropShadow_1167_1903"/>
<feBlend mode="normal" in="SourceGraphic" in2="effect1_dropShadow_1167_1903" result="shape"/>
</filter>
<filter id="filter4_d_1167_1903" x="56.5" y="168" width="434" height="60" filterUnits="userSpaceOnUse" color-interpolation-filters="sRGB">
<feFlood flood-opacity="0" result="BackgroundImageFix"/>
<feColorMatrix in="SourceAlpha" type="matrix" values="0 0 0 0 0 0 0 0 0 0 0 0 0 0 0 0 0 0 127 0" result="hardAlpha"/>
<feOffset dy="2"/>
<feGaussianBlur stdDeviation="2"/>
<feColorMatrix type="matrix" values="0 0 0 0 0.105882 0 0 0 0 0.109804 0 0 0 0 0.113725 0 0 0 0.04 0"/>
<feBlend mode="normal" in2="BackgroundImageFix" result="effect1_dropShadow_1167_1903"/>
<feBlend mode="normal" in="SourceGraphic" in2="effect1_dropShadow_1167_1903" result="shape"/>
</filter>
<filter id="filter5_d_1167_1903" x="257.5" y="224" width="32" height="32" filterUnits="userSpaceOnUse" color-interpolation-filters="sRGB">
<feFlood flood-opacity="0" result="BackgroundImageFix"/>
<feColorMatrix in="SourceAlpha" type="matrix" values="0 0 0 0 0 0 0 0 0 0 0 0 0 0 0 0 0 0 127 0" result="hardAlpha"/>
<feOffset dy="2"/>
<feGaussianBlur stdDeviation="2"/>
<feColorMatrix type="matrix" values="0 0 0 0 0.105882 0 0 0 0 0.109804 0 0 0 0 0.113725 0 0 0 0.04 0"/>
<feBlend mode="normal" in2="BackgroundImageFix" result="effect1_dropShadow_1167_1903"/>
<feBlend mode="normal" in="SourceGraphic" in2="effect1_dropShadow_1167_1903" result="shape"/>
</filter>
<filter id="filter6_d_1167_1903" x="56.5" y="252" width="434" height="60" filterUnits="userSpaceOnUse" color-interpolation-filters="sRGB">
<feFlood flood-opacity="0" result="BackgroundImageFix"/>
<feColorMatrix in="SourceAlpha" type="matrix" values="0 0 0 0 0 0 0 0 0 0 0 0 0 0 0 0 0 0 127 0" result="hardAlpha"/>
<feOffset dy="2"/>
<feGaussianBlur stdDeviation="2"/>
<feColorMatrix type="matrix" values="0 0 0 0 0.105882 0 0 0 0 0.109804 0 0 0 0 0.113725 0 0 0 0.04 0"/>
<feBlend mode="normal" in2="BackgroundImageFix" result="effect1_dropShadow_1167_1903"/>
<feBlend mode="normal" in="SourceGraphic" in2="effect1_dropShadow_1167_1903" result="shape"/>
</filter>
<filter id="filter7_d_1167_1903" x="257.5" y="308" width="32" height="32" filterUnits="userSpaceOnUse" color-interpolation-filters="sRGB">
<feFlood flood-opacity="0" result="BackgroundImageFix"/>
<feColorMatrix in="SourceAlpha" type="matrix" values="0 0 0 0 0 0 0 0 0 0 0 0 0 0 0 0 0 0 127 0" result="hardAlpha"/>
<feOffset dy="2"/>
<feGaussianBlur stdDeviation="2"/>
<feColorMatrix type="matrix" values="0 0 0 0 0.105882 0 0 0 0 0.109804 0 0 0 0 0.113725 0 0 0 0.04 0"/>
<feBlend mode="normal" in2="BackgroundImageFix" result="effect1_dropShadow_1167_1903"/>
<feBlend mode="normal" in="SourceGraphic" in2="effect1_dropShadow_1167_1903" result="shape"/>
</filter>
<filter id="filter8_d_1167_1903" x="56.5" y="336" width="434" height="60" filterUnits="userSpaceOnUse" color-interpolation-filters="sRGB">
<feFlood flood-opacity="0" result="BackgroundImageFix"/>
<feColorMatrix in="SourceAlpha" type="matrix" values="0 0 0 0 0 0 0 0 0 0 0 0 0 0 0 0 0 0 127 0" result="hardAlpha"/>
<feOffset dy="2"/>
<feGaussianBlur stdDeviation="2"/>
<feColorMatrix type="matrix" values="0 0 0 0 0.105882 0 0 0 0 0.109804 0 0 0 0 0.113725 0 0 0 0.04 0"/>
<feBlend mode="normal" in2="BackgroundImageFix" result="effect1_dropShadow_1167_1903"/>
<feBlend mode="normal" in="SourceGraphic" in2="effect1_dropShadow_1167_1903" result="shape"/>
</filter>
</defs>
</svg>
