<svg width="24" height="22" viewBox="0 0 24 22" fill="none" xmlns="http://www.w3.org/2000/svg">
<path d="M9.47368 8.30577L8.7821 10.2575H10.1653L9.47368 8.30577ZM9.47368 8.30577L8.7821 10.2575H10.1653L9.47368 8.30577ZM12 0C5.36842 0 0 4.20657 0 9.39847C0 12.7555 2.24526 15.6989 5.62421 17.3632C3.94737 23.1109 2.9621 23.4867 9.86842 18.6485C10.5746 18.7478 11.2869 18.7974 12 18.7969C18.6316 18.7969 24 14.5904 24 9.39847C24 4.20657 18.6316 0 12 0ZM5.36842 12.6797C4.17158 12.6797 4.87579 11.0249 4.67684 7.94259C4.24737 7.8668 2.91474 8.23945 2.91474 7.26676C2.91348 7.17706 2.93002 7.08801 2.96338 7.00474C2.99674 6.92147 3.04627 6.84564 3.10911 6.78163C3.17194 6.71761 3.24684 6.66668 3.32947 6.63178C3.4121 6.59688 3.50083 6.57871 3.59053 6.5783C6.11684 6.75831 7.81579 6.1109 7.81579 7.25097C7.81579 8.23945 6.55263 7.84153 6.05684 7.9268C5.85474 10.9996 6.56211 12.6797 5.36842 12.6797ZM11.8768 12.5787C10.8 13.0682 10.7747 11.966 10.5158 11.4796H8.40632C8.14737 11.966 8.12526 13.0587 7.04842 12.5787C6.23684 12.206 7.55684 10.3238 8.53895 7.27308C8.60217 7.07829 8.72545 6.90853 8.8911 6.78814C9.05676 6.66774 9.25627 6.6029 9.46105 6.6029C9.66583 6.6029 9.86535 6.66774 10.031 6.78814C10.1967 6.90853 10.3199 7.07829 10.3832 7.27308C11.3874 10.368 12.6884 12.2029 11.8768 12.5787ZM13.14 12.5787C11.9842 12.5787 12.6884 10.9996 12.4768 7.27623C12.4768 6.3667 13.8916 6.36986 13.8916 7.27623V11.3154C14.5611 11.4039 16.0263 10.9996 16.0263 11.947C16.0263 12.8945 14.4632 12.4492 13.1526 12.5787H13.14ZM19.5442 12.3797L17.9337 10.2417L17.6937 10.4817V11.9818C17.6933 12.0726 17.675 12.1625 17.6398 12.2462C17.6047 12.33 17.5534 12.406 17.4889 12.4699C17.4244 12.5338 17.3479 12.5844 17.2638 12.6188C17.1798 12.6532 17.0898 12.6707 16.9989 12.6702C15.7958 12.6702 16.5158 10.9396 16.3074 7.27623C16.3065 7.18488 16.3238 7.09426 16.3582 7.00962C16.3926 6.92498 16.4434 6.84799 16.5077 6.7831C16.572 6.7182 16.6485 6.66669 16.7328 6.63154C16.8171 6.59639 16.9076 6.57829 16.9989 6.5783C18.0442 6.5783 17.5926 8.05312 17.6905 8.74475C19.6516 6.86884 19.6042 6.66988 20.0084 6.66988C20.5642 6.66988 20.9053 7.3615 20.5326 7.72784L18.9537 9.30688L20.6558 11.5491C21.2147 12.2786 20.1063 13.1061 19.5568 12.3797H19.5442ZM8.76947 10.2575H10.1526L9.47368 8.30577L8.76947 10.2575ZM9.47368 8.30577L8.7821 10.2575H10.1653L9.47368 8.30577ZM9.47368 8.30577L8.7821 10.2575H10.1653L9.47368 8.30577Z" fill="#3E2723"/>
</svg>
