<svg width="24" height="24" viewBox="0 0 24 24" fill="none" xmlns="http://www.w3.org/2000/svg">
<path d="M19.281 11.0306C19.2114 11.1003 19.1287 11.1557 19.0376 11.1934C18.9466 11.2311 18.849 11.2506 18.7504 11.2506C18.6519 11.2506 18.5543 11.2311 18.4632 11.1934C18.3722 11.1557 18.2894 11.1003 18.2198 11.0306L12.7504 5.56029V20.25C12.7504 20.4489 12.6714 20.6397 12.5307 20.7803C12.3901 20.921 12.1993 21 12.0004 21C11.8015 21 11.6107 20.921 11.4701 20.7803C11.3294 20.6397 11.2504 20.4489 11.2504 20.25V5.56029L5.78104 11.0306C5.64031 11.1713 5.44944 11.2504 5.25042 11.2504C5.05139 11.2504 4.86052 11.1713 4.71979 11.0306C4.57906 10.8899 4.5 10.699 4.5 10.5C4.5 10.301 4.57906 10.1101 4.71979 9.96935L11.4698 3.21935C11.5394 3.14962 11.6222 3.0943 11.7132 3.05656C11.8043 3.01882 11.9019 2.99939 12.0004 2.99939C12.099 2.99939 12.1966 3.01882 12.2876 3.05656C12.3787 3.0943 12.4614 3.14962 12.531 3.21935L19.281 9.96935C19.3508 10.039 19.4061 10.1217 19.4438 10.2128C19.4816 10.3038 19.501 10.4014 19.501 10.5C19.501 10.5985 19.4816 10.6961 19.4438 10.7872C19.4061 10.8782 19.3508 10.961 19.281 11.0306Z" fill="black"/>
</svg>
