<svg width="82" height="24" viewBox="0 0 82 24" fill="none" xmlns="http://www.w3.org/2000/svg">
<g clip-path="url(#clip0_242_115)">
<mask id="mask0_242_115" style="mask-type:luminance" maskUnits="userSpaceOnUse" x="0" y="0" width="82" height="24">
<path d="M82 0H0V24H82V0Z" fill="white"/>
</mask>
<g mask="url(#mask0_242_115)">
<path d="M5.84567 11.7228C2.39604 11.7228 1 9.04525 1 5.8614C1 2.67755 2.53767 0 5.84567 0C8.70856 0 10.1653 1.84994 10.5699 4.36197H11.8446C11.8244 3.73883 11.7738 3.06701 11.7232 2.30756C11.703 1.4118 12.3099 0.486827 13.3418 0.389462C14.3736 0.292096 15.2942 0.993127 15.4359 1.98625C15.7191 4.64433 15.6685 7.29267 15.4359 9.85338C15.3853 10.827 14.4242 11.5378 13.4126 11.4891C12.3504 11.4404 11.6929 10.4765 11.7232 9.55155C11.7738 8.90893 11.8142 8.32474 11.8446 7.77949H10.5093C10.0641 9.99943 8.67822 11.7228 5.85579 11.7228H5.84567ZM2.79057 19.6873C2.52755 18.6942 3.09406 17.6523 4.08545 17.3797C7.65648 16.3866 9.86181 14.9845 9.86181 13.3196V13.2222C9.86181 12.4822 10.661 11.7909 11.7434 11.7909C12.8259 11.7909 13.8071 12.3654 13.8071 13.2222V13.5241C13.8071 16.8442 9.34589 20.0767 5.13754 20.953C4.40917 21.0893 3.14464 21.0017 2.79057 19.6873ZM5.82544 3.66094C4.97568 3.66094 4.69242 4.35223 4.69242 5.85166C4.69242 7.35109 4.99591 8.04238 5.82544 8.04238C6.78648 8.04238 6.99892 7.23425 6.99892 5.85166C6.99892 4.46907 6.87753 3.66094 5.82544 3.66094ZM19.8061 11.8104C19.7555 12.7841 18.8855 13.4948 17.7828 13.4462C16.751 13.3975 16.0732 12.4336 16.0934 11.5086C16.3564 8.7142 16.3058 5.07274 16.0934 2.18098C16.0732 1.28522 16.751 0.360252 17.712 0.262887C18.7034 0.175258 19.6644 0.866552 19.8061 1.85968C20.0893 4.51775 20.0387 9.24971 19.8061 11.8104Z" fill="#FFD401"/>
<path d="M19.7374 21.0209C19.07 22.1879 17.89 22.1665 17.1162 21.7061L13.9049 19.8218C13.1118 19.3722 12.7345 18.0982 13.2085 17.0061C13.7211 15.8392 15.0946 15.8392 15.7717 16.246L19.041 18.1731C19.9115 18.6763 20.2984 20.0574 19.7374 21.0209Z" fill="#E9B92B"/>
<path d="M30.0386 8.12024V10.0062C30.0386 15.4576 28.2313 18.8759 24.6761 20.86C24.0539 21.2136 22.77 21.1645 22.2269 20.1626C21.7232 19.2295 22.1084 18.041 22.8885 17.5302C25.2489 15.9488 26.1673 14.22 26.1871 9.75078V8.12024H23.6391C22.77 8.12024 22.3059 7.06924 22.3059 6.28344C22.3059 5.49764 22.8293 4.44663 23.6391 4.44663H33.1593C33.8506 4.44663 34.4629 5.3503 34.4629 6.26379C34.4629 7.05941 34.0284 8.13006 33.1593 8.13006H30.0386V8.12024ZM39.7366 21.3904C39.5983 22.3236 38.6404 23.0897 37.6528 22.9915C36.527 22.8736 35.8653 21.97 35.9048 21.0368C36.2011 17.5007 36.2505 8.60154 35.9048 5.01633C35.7666 4.03409 36.6652 3.11077 37.5837 3.01255C38.6404 2.89468 39.5983 3.62154 39.7366 4.59397C40.1711 7.78628 39.9934 18.7973 39.7366 21.3806V21.3904Z" fill="#FFD401"/>
<path d="M34.3192 20.5577C33.5215 21.3045 32.3805 21.0448 31.8146 20.2329L30.3118 18.2737C29.9036 17.6675 29.7738 16.3253 30.6921 15.4485C31.4528 14.7557 32.5938 14.864 33.1875 15.7841L34.681 17.7325C35.2376 18.5551 35.0335 19.9082 34.3192 20.5577Z" fill="#E9B92B"/>
<path d="M49.0969 12.4791C45.559 12.4791 43 10.3709 43 6.73957C43 3.10821 45.7237 1 49.0969 1C50.9871 1 52.6058 1.64558 53.6914 2.79551C53.7787 2.77533 53.895 2.74507 54.0113 2.74507H57.0549C57.21 2.02889 57.7722 1.40348 58.6737 1.28244C59.7787 1.14122 60.6511 1.90784 60.7868 2.93673C61.0775 5.69051 61.0388 8.60569 60.7868 11.3292C60.6995 12.3379 59.8368 13.1651 58.7415 13.0238C57.6365 12.9028 57.0065 12.0151 57.0065 11.0871H53.895C53.7399 11.0871 53.5751 11.0669 53.4394 11.0165C52.3635 11.9748 50.8514 12.4791 49.0969 12.4791ZM52.7609 23C48.2536 23 44.5218 21.608 44.5218 18.1481C44.5218 14.6882 48.1955 13.2962 52.7609 13.2962C57.3263 13.2962 61 14.6781 61 18.1481C61 21.6181 57.3554 23 52.7609 23ZM49.0679 4.5204C47.7399 4.5204 46.7512 5.52911 46.7512 6.73957C46.7512 8.05089 47.7205 8.95873 49.0679 8.95873C50.5994 8.95873 51.433 8.00046 51.433 6.70931C51.433 5.55938 50.5994 4.51032 49.0679 4.51032V4.5204ZM52.7415 16.7359C49.3199 16.7359 48.3021 17.21 48.3021 18.1481C48.3021 19.0862 49.3199 19.5603 52.7415 19.5603C56.1632 19.5603 57.2197 19.0862 57.2197 18.1481C57.2197 17.21 56.1632 16.7359 52.7415 16.7359ZM55.126 7.69784H57.1712C57.1712 7.19349 57.1712 6.66896 57.1519 6.14443H55.1454C55.1648 6.35626 55.1939 6.54791 55.1939 6.73957C55.1939 7.07244 55.1745 7.38514 55.126 7.69784Z" fill="#3B2F00"/>
<path d="M69.2053 20.3405C64.6567 20.3602 63 16.5177 63 11.6237C63 6.72967 64.6567 2.93632 69.2053 2.90684C73.0308 2.92649 74.7579 5.74693 75.2499 9.28477H77.0673C77.0171 7.19155 76.9468 5.27522 76.8363 4.01733C76.6958 3.03459 77.6095 2.11083 78.5433 2.01255C79.6177 1.89462 80.5916 2.62185 80.7322 3.59475C81.174 6.78863 80.9933 17.8051 80.7322 20.3896C80.5916 21.3232 79.6177 22.0898 78.6136 21.9915C77.4689 21.8736 76.7962 20.9694 76.8363 20.0359C76.9769 18.4537 77.0472 15.7511 77.0673 12.9504H75.3603C75.0591 17.2547 73.1714 20.3307 69.2053 20.311V20.3405ZM69.1751 6.64122C67.6791 6.64122 66.9159 7.96791 66.9159 11.6728C66.9159 15.1418 67.5485 16.6159 69.1751 16.6159C70.8018 16.6159 71.4845 15.1517 71.4845 11.6728C71.4845 8.19394 70.8118 6.64122 69.1751 6.64122Z" fill="#3B2F00"/>
</g>
</g>
<defs>
<clipPath id="clip0_242_115">
<rect width="82" height="24" fill="white"/>
</clipPath>
</defs>
</svg>
