<svg width="201" height="246" viewBox="0 0 201 246" fill="none" xmlns="http://www.w3.org/2000/svg">
<g clip-path="url(#clip0_1_1212)">
<path d="M110.938 46.875L95.3125 35.9375V57.8125L110.938 46.875Z" fill="#FFD401" stroke="#FFD401" stroke-width="3" stroke-linecap="round" stroke-linejoin="round"/>
<path d="M68.75 75L131.25 75C134.702 75 137.5 72.2018 137.5 68.75V25C137.5 21.5482 134.702 18.75 131.25 18.75L68.75 18.75C65.2982 18.75 62.5 21.5482 62.5 25V68.75C62.5 72.2018 65.2982 75 68.75 75Z" stroke="black" stroke-width="3" stroke-linecap="round" stroke-linejoin="round"/>
<path d="M112.5 89.0625H87.5" stroke="#FFD401" stroke-width="3" stroke-linecap="round" stroke-linejoin="round"/>
</g>
<line y1="121" x2="86" y2="121" stroke="#E8E8E8" stroke-width="2"/>
<rect x="86.5" y="108.5" width="27" height="27" rx="13.5" fill="white"/>
<rect x="86.5" y="108.5" width="27" height="27" rx="13.5" stroke="#E8E8E8"/>
<rect x="92" y="114" width="16" height="16" rx="8" fill="#FFD401"/>
<path d="M200.707 122.707C201.098 122.317 201.098 121.683 200.707 121.293L194.343 114.929C193.953 114.538 193.319 114.538 192.929 114.929C192.538 115.319 192.538 115.953 192.929 116.343L198.586 122L192.929 127.657C192.538 128.047 192.538 128.681 192.929 129.071C193.319 129.462 193.953 129.462 194.343 129.071L200.707 122.707ZM114 123H200V121H114V123Z" fill="#E8E8E8"/>
<path d="M68.4534 181.288C67.1094 181.288 65.8214 181.112 64.5894 180.76C63.3574 180.392 62.3654 179.92 61.6134 179.344L62.9334 176.416C63.6534 176.928 64.5014 177.352 65.4774 177.688C66.4694 178.008 67.4694 178.168 68.4774 178.168C69.2454 178.168 69.8614 178.096 70.3254 177.952C70.8054 177.792 71.1574 177.576 71.3814 177.304C71.6054 177.032 71.7174 176.72 71.7174 176.368C71.7174 175.92 71.5414 175.568 71.1894 175.312C70.8374 175.04 70.3734 174.824 69.7974 174.664C69.2214 174.488 68.5814 174.328 67.8774 174.184C67.1894 174.024 66.4934 173.832 65.7894 173.608C65.1014 173.384 64.4694 173.096 63.8934 172.744C63.3174 172.392 62.8454 171.928 62.4774 171.352C62.1254 170.776 61.9494 170.04 61.9494 169.144C61.9494 168.184 62.2054 167.312 62.7174 166.528C63.2454 165.728 64.0294 165.096 65.0694 164.632C66.1254 164.152 67.4454 163.912 69.0294 163.912C70.0854 163.912 71.1254 164.04 72.1494 164.296C73.1734 164.536 74.0774 164.904 74.8614 165.4L73.6614 168.352C72.8774 167.904 72.0934 167.576 71.3094 167.368C70.5254 167.144 69.7574 167.032 69.0054 167.032C68.2534 167.032 67.6374 167.12 67.1574 167.296C66.6774 167.472 66.3334 167.704 66.1254 167.992C65.9174 168.264 65.8134 168.584 65.8134 168.952C65.8134 169.384 65.9894 169.736 66.3414 170.008C66.6934 170.264 67.1574 170.472 67.7334 170.632C68.3094 170.792 68.9414 170.952 69.6294 171.112C70.3334 171.272 71.0294 171.456 71.7174 171.664C72.4214 171.872 73.0614 172.152 73.6374 172.504C74.2134 172.856 74.6774 173.32 75.0294 173.896C75.3974 174.472 75.5814 175.2 75.5814 176.08C75.5814 177.024 75.3174 177.888 74.7894 178.672C74.2614 179.456 73.4694 180.088 72.4134 180.568C71.3734 181.048 70.0534 181.288 68.4534 181.288ZM83.2541 181.192C81.7341 181.192 80.5501 180.808 79.7021 180.04C78.8541 179.256 78.4301 178.096 78.4301 176.56V165.232H82.1741V176.512C82.1741 177.056 82.3181 177.48 82.6061 177.784C82.8941 178.072 83.2861 178.216 83.7821 178.216C84.3741 178.216 84.8781 178.056 85.2941 177.736L86.3021 180.376C85.9181 180.648 85.4541 180.856 84.9101 181C84.3821 181.128 83.8301 181.192 83.2541 181.192ZM76.4381 171.256V168.376H85.3901V171.256H76.4381ZM94.4133 181.192C92.9413 181.192 91.6453 180.904 90.5253 180.328C89.4213 179.752 88.5653 178.968 87.9573 177.976C87.3493 176.968 87.0453 175.824 87.0453 174.544C87.0453 173.248 87.3413 172.104 87.9333 171.112C88.5413 170.104 89.3653 169.32 90.4053 168.76C91.4453 168.184 92.6213 167.896 93.9333 167.896C95.1973 167.896 96.3333 168.168 97.3413 168.712C98.3653 169.24 99.1733 170.008 99.7653 171.016C100.357 172.008 100.653 173.2 100.653 174.592C100.653 174.736 100.645 174.904 100.629 175.096C100.613 175.272 100.597 175.44 100.581 175.6H90.0933V173.416H98.6133L97.1733 174.064C97.1733 173.392 97.0373 172.808 96.7653 172.312C96.4933 171.816 96.1173 171.432 95.6373 171.16C95.1573 170.872 94.5973 170.728 93.9573 170.728C93.3173 170.728 92.7493 170.872 92.2533 171.16C91.7733 171.432 91.3973 171.824 91.1253 172.336C90.8533 172.832 90.7173 173.424 90.7173 174.112V174.688C90.7173 175.392 90.8693 176.016 91.1733 176.56C91.4933 177.088 91.9333 177.496 92.4933 177.784C93.0693 178.056 93.7413 178.192 94.5093 178.192C95.1973 178.192 95.7973 178.088 96.3093 177.88C96.8373 177.672 97.3173 177.36 97.7493 176.944L99.7413 179.104C99.1493 179.776 98.4053 180.296 97.5093 180.664C96.6133 181.016 95.5813 181.192 94.4133 181.192ZM110.778 181.192C109.69 181.192 108.738 180.952 107.922 180.472C107.106 179.992 106.466 179.264 106.002 178.288C105.554 177.296 105.33 176.048 105.33 174.544C105.33 173.024 105.546 171.776 105.978 170.8C106.41 169.824 107.034 169.096 107.85 168.616C108.666 168.136 109.642 167.896 110.778 167.896C111.994 167.896 113.082 168.176 114.042 168.736C115.018 169.28 115.786 170.048 116.346 171.04C116.922 172.032 117.21 173.2 117.21 174.544C117.21 175.904 116.922 177.08 116.346 178.072C115.786 179.064 115.018 179.832 114.042 180.376C113.082 180.92 111.994 181.192 110.778 181.192ZM103.146 185.656V168.088H106.722V170.728L106.65 174.568L106.89 178.384V185.656H103.146ZM110.13 178.12C110.754 178.12 111.306 177.976 111.786 177.688C112.282 177.4 112.674 176.992 112.962 176.464C113.266 175.92 113.418 175.28 113.418 174.544C113.418 173.792 113.266 173.152 112.962 172.624C112.674 172.096 112.282 171.688 111.786 171.4C111.306 171.112 110.754 170.968 110.13 170.968C109.506 170.968 108.946 171.112 108.45 171.4C107.954 171.688 107.562 172.096 107.274 172.624C106.986 173.152 106.842 173.792 106.842 174.544C106.842 175.28 106.986 175.92 107.274 176.464C107.562 176.992 107.954 177.4 108.45 177.688C108.946 177.976 109.506 178.12 110.13 178.12ZM131.433 181.288C130.265 181.288 129.105 181.136 127.953 180.832C126.817 180.512 125.841 180.064 125.025 179.488L126.561 176.512C127.201 176.976 127.937 177.344 128.769 177.616C129.617 177.888 130.473 178.024 131.337 178.024C132.313 178.024 133.081 177.832 133.641 177.448C134.201 177.064 134.481 176.528 134.481 175.84C134.481 175.408 134.369 175.024 134.145 174.688C133.921 174.352 133.521 174.096 132.945 173.92C132.385 173.744 131.593 173.656 130.569 173.656H126.273L127.137 164.2H137.385V167.32H128.529L130.545 165.544L129.945 172.288L127.929 170.512H131.481C133.145 170.512 134.481 170.744 135.489 171.208C136.513 171.656 137.257 172.272 137.721 173.056C138.185 173.84 138.417 174.728 138.417 175.72C138.417 176.712 138.169 177.632 137.673 178.48C137.177 179.312 136.409 179.992 135.369 180.52C134.345 181.032 133.033 181.288 131.433 181.288Z" fill="#7D5FFF"/>
<path d="M53.9391 215L53.9315 212.668L59.5227 207.525C60.966 206.135 61.7485 205.276 61.7561 204.03C61.7485 202.655 60.7002 201.805 59.2872 201.805C57.821 201.805 56.8562 202.724 56.8638 204.22H53.7948C53.7872 201.174 56.0434 199.229 59.31 199.229C62.6525 199.229 64.8631 201.128 64.8707 203.825C64.8631 205.595 64.0047 207.054 60.7989 209.956L58.4287 212.242V212.349H65.0834V215H53.9391ZM83.5934 197.414V216.983H80.9573V207.031H79.1645V216.109H76.6196V197.93H79.1645V204.828H80.9573V197.414H83.5934ZM66.4932 211.057C70.4739 208.733 72.1907 205.869 72.5554 202.032H67.4808V199.837H75.2294C75.2218 205.291 73.5961 209.758 68.0733 212.956L66.4932 211.057ZM102.311 197.444V208.778H99.5608V208.14H96.0283V206.499H99.5608V197.444H102.311ZM85.7424 204.334C89.5255 204.334 94.2051 204.304 98.3909 203.916L98.5352 205.618C96.8032 205.846 95.0331 205.998 93.2935 206.089V208.801H90.5739V206.188C88.9786 206.226 87.444 206.226 86.0311 206.211L85.7424 204.334ZM87.0794 200.65C87.0718 198.887 89.0545 197.718 92.0324 197.71C94.9496 197.718 96.9475 198.887 96.9627 200.65C96.9475 202.465 94.9496 203.582 92.0324 203.575C89.0545 203.582 87.0718 202.465 87.0794 200.65ZM88.5456 211.202V209.356H102.311V213.921H91.3184V214.932H102.767V216.846H88.6215V212.151H99.576V211.202H88.5456ZM89.6699 200.65C89.6547 201.372 90.5587 201.774 92.0324 201.774C93.4834 201.774 94.395 201.372 94.395 200.65C94.395 199.928 93.4834 199.495 92.0324 199.503C90.5587 199.495 89.6547 199.928 89.6699 200.65ZM121.381 198.508V200.688H117.453C117.598 202.769 119.087 204.82 122.133 205.648L120.766 207.783C118.532 207.137 116.967 205.8 116.078 204.091C115.197 205.945 113.594 207.411 111.277 208.117L109.887 205.975C113.009 205.086 114.514 202.906 114.658 200.688H110.632V198.508H121.381ZM113.123 216.762V208.847H115.82V210.685H123.462V208.847H126.197V216.762H113.123ZM115.82 214.567H123.462V212.797H115.82V214.567ZM123.447 208.034V197.414H126.197V208.034H123.447ZM146.685 206.309V208.505H139.103V209.956C142.506 210.206 144.527 211.43 144.542 213.443C144.527 215.714 141.96 216.983 137.728 216.975C133.451 216.983 130.884 215.714 130.884 213.443C130.884 211.422 132.919 210.199 136.391 209.956V208.505H128.848V206.309H146.685ZM129.63 203.415C133.246 203.104 135.252 201.774 135.753 200.422H130.466V198.257H145.074V200.422H139.741C140.227 201.789 142.218 203.104 145.925 203.415L144.968 205.565C141.268 205.215 138.784 203.825 137.736 201.919C136.703 203.818 134.249 205.215 130.549 205.565L129.63 203.415ZM133.679 213.443C133.664 214.4 135.024 214.916 137.728 214.909C140.387 214.916 141.785 214.4 141.792 213.443C141.785 212.47 140.387 211.992 137.728 211.977C135.024 211.992 133.664 212.47 133.679 213.443ZM46.8494 237.455V239.689H28.9668V237.455H36.5103V233.444H30.8584V223.865H44.859V233.444H39.2223V237.455H46.8494ZM33.5628 231.294H42.1546V226.06H33.5628V231.294ZM64.4197 222.414V241.983H61.6925V222.414H64.4197ZM49.0288 237.151V224.29H51.7408V234.811C54.3769 234.766 57.218 234.523 60.0896 233.961L60.4314 236.224C57.0053 236.939 53.7691 237.159 50.7532 237.151H49.0288ZM83.4865 222.414V242.028H80.7745V231.53H77.3408V229.334H80.7745V222.414H83.4865ZM67.8829 237.592V224.062H77.0293V226.273H70.6253V229.517H76.3153V231.666H70.6253V235.358C73.3374 235.336 75.5024 235.237 77.9334 234.857L78.2068 237.052C75.3505 237.485 72.7904 237.584 69.4403 237.592H67.8829ZM102.371 222.444V234.318H99.6211V222.444H102.371ZM87.0106 225.802V223.591H96.0734V229.509H89.7302V231.271C92.9892 231.256 95.2909 231.142 97.9194 230.747L98.2613 232.935C95.2682 233.421 92.6321 233.505 88.7502 233.505H87.0333V227.465H93.3614V225.802H87.0106ZM89.0085 238.314C89.0085 235.966 91.561 234.637 95.7467 234.637C99.9249 234.637 102.493 235.966 102.493 238.314C102.493 240.623 99.9249 241.983 95.7467 241.975C91.561 241.983 89.0085 240.623 89.0085 238.314ZM91.7433 238.314C91.7357 239.339 93.1183 239.848 95.7467 239.84C98.36 239.848 99.7426 239.339 99.7502 238.314C99.7426 237.28 98.36 236.764 95.7467 236.764C93.1183 236.764 91.7357 237.28 91.7433 238.314ZM120.628 223.606V231.834H111.079V223.606H120.628ZM112.12 239.863C116.025 239.544 118.076 237.994 118.372 236.619H112.91V234.591H118.463V232.973H121.213V234.591H126.774V236.619H121.297C121.601 237.956 123.644 239.491 127.534 239.863L126.615 241.937C123.356 241.633 121.046 240.456 119.846 238.914C118.653 240.471 116.329 241.618 113.054 241.937L112.12 239.863ZM113.776 229.691H117.916V225.741H113.776V229.691ZM123.705 233.512V222.414H126.425V233.512H123.705ZM145.077 223.713V225.908H143.474V231.127C144.127 231.074 144.766 231.013 145.381 230.945L145.487 232.958C141.818 233.566 137.549 233.649 134.457 233.649L134.168 231.416C134.814 231.416 135.513 231.408 136.242 231.401V225.908H134.67V223.713H145.077ZM137.252 238.352C137.245 236.004 139.775 234.682 143.968 234.682C148.169 234.682 150.699 236.004 150.706 238.352C150.699 240.623 148.169 241.983 143.968 241.975C139.775 241.983 137.245 240.623 137.252 238.352ZM138.901 231.355C139.547 231.34 140.2 231.317 140.853 231.287V225.908H138.901V231.355ZM139.98 238.352C139.972 239.377 141.355 239.886 143.968 239.894C146.581 239.886 147.979 239.377 147.987 238.352C147.979 237.28 146.581 236.764 143.968 236.764C141.355 236.764 139.972 237.28 139.98 238.352ZM145.525 231.446V229.258H147.918V227.754H145.525V225.604H147.918V222.414H150.653V234.378H147.918V231.446H145.525ZM168.611 222.414V229.912H171.376V232.175H168.611V241.937H165.868V222.414H168.611ZM152.977 236.46C157.596 234.135 160.08 231.021 160.596 226.66H154.078V224.419H163.392C163.377 230.269 161.09 235.328 154.519 238.557L152.977 236.46Z" fill="#333333"/>
<defs>
<clipPath id="clip0_1_1212">
<rect width="100" height="100" fill="white" transform="translate(50)"/>
</clipPath>
</defs>
</svg>
