<svg width="201" height="220" viewBox="0 0 201 220" fill="none" xmlns="http://www.w3.org/2000/svg">
<g clip-path="url(#clip0_1_1196)">
<path d="M90.625 68.75C96.6656 68.75 101.562 63.8531 101.562 57.8125C101.562 51.7719 96.6656 46.875 90.625 46.875C84.5844 46.875 79.6875 51.7719 79.6875 57.8125C79.6875 63.8531 84.5844 68.75 90.625 68.75Z" stroke="black" stroke-width="3" stroke-linecap="round" stroke-linejoin="round"/>
<path d="M123.438 67.1875V32.8125H76.5625" stroke="#FFDB43" stroke-width="3" stroke-linecap="round" stroke-linejoin="round"/>
<path d="M108.305 81.25H134.375C135.204 81.25 135.999 80.9208 136.585 80.3347C137.171 79.7487 137.5 78.9538 137.5 78.125V21.875C137.5 21.0462 137.171 20.2513 136.585 19.6653C135.999 19.0792 135.204 18.75 134.375 18.75H65.625C64.7962 18.75 64.0013 19.0792 63.4153 19.6653C62.8292 20.2513 62.5 21.0462 62.5 21.875V78.125C62.5 78.9538 62.8292 79.7487 63.4153 80.3347C64.0013 80.9208 64.7962 81.25 65.625 81.25H72.9414C74.2314 77.5903 76.6251 74.4209 79.7924 72.179C82.9597 69.9372 86.7446 68.7332 90.625 68.7332C94.5054 68.7332 98.2903 69.9372 101.458 72.179C104.625 74.4209 107.019 77.5903 108.309 81.25H108.305Z" stroke="black" stroke-width="3" stroke-linecap="round" stroke-linejoin="round"/>
</g>
<line y1="121" x2="86" y2="121" stroke="#E8E8E8" stroke-width="2"/>
<rect x="86.5" y="108.5" width="27" height="27" rx="13.5" fill="white"/>
<rect x="86.5" y="108.5" width="27" height="27" rx="13.5" stroke="#E8E8E8"/>
<rect x="92" y="114" width="16" height="16" rx="8" fill="#FFD401"/>
<path d="M200.707 122.707C201.098 122.317 201.098 121.683 200.707 121.293L194.343 114.929C193.953 114.538 193.319 114.538 192.929 114.929C192.538 115.319 192.538 115.953 192.929 116.343L198.586 122L192.929 127.657C192.538 128.047 192.538 128.681 192.929 129.071C193.319 129.462 193.953 129.462 194.343 129.071L200.707 122.707ZM114 123H200V121H114V123Z" fill="#E8E8E8"/>
<path d="M67.3167 181.288C65.9727 181.288 64.6847 181.112 63.4527 180.76C62.2207 180.392 61.2287 179.92 60.4767 179.344L61.7967 176.416C62.5167 176.928 63.3647 177.352 64.3407 177.688C65.3327 178.008 66.3327 178.168 67.3407 178.168C68.1087 178.168 68.7247 178.096 69.1887 177.952C69.6687 177.792 70.0207 177.576 70.2447 177.304C70.4687 177.032 70.5807 176.72 70.5807 176.368C70.5807 175.92 70.4047 175.568 70.0527 175.312C69.7007 175.04 69.2367 174.824 68.6607 174.664C68.0847 174.488 67.4447 174.328 66.7407 174.184C66.0527 174.024 65.3567 173.832 64.6527 173.608C63.9647 173.384 63.3327 173.096 62.7567 172.744C62.1807 172.392 61.7087 171.928 61.3407 171.352C60.9887 170.776 60.8127 170.04 60.8127 169.144C60.8127 168.184 61.0687 167.312 61.5807 166.528C62.1087 165.728 62.8927 165.096 63.9327 164.632C64.9887 164.152 66.3087 163.912 67.8927 163.912C68.9487 163.912 69.9887 164.04 71.0127 164.296C72.0367 164.536 72.9407 164.904 73.7247 165.4L72.5247 168.352C71.7407 167.904 70.9567 167.576 70.1727 167.368C69.3887 167.144 68.6207 167.032 67.8687 167.032C67.1167 167.032 66.5007 167.12 66.0207 167.296C65.5407 167.472 65.1967 167.704 64.9887 167.992C64.7807 168.264 64.6767 168.584 64.6767 168.952C64.6767 169.384 64.8527 169.736 65.2047 170.008C65.5567 170.264 66.0207 170.472 66.5967 170.632C67.1727 170.792 67.8047 170.952 68.4927 171.112C69.1967 171.272 69.8927 171.456 70.5807 171.664C71.2847 171.872 71.9247 172.152 72.5007 172.504C73.0767 172.856 73.5407 173.32 73.8927 173.896C74.2607 174.472 74.4447 175.2 74.4447 176.08C74.4447 177.024 74.1807 177.888 73.6527 178.672C73.1247 179.456 72.3327 180.088 71.2767 180.568C70.2367 181.048 68.9167 181.288 67.3167 181.288ZM82.1174 181.192C80.5974 181.192 79.4134 180.808 78.5654 180.04C77.7174 179.256 77.2934 178.096 77.2934 176.56V165.232H81.0374V176.512C81.0374 177.056 81.1814 177.48 81.4694 177.784C81.7574 178.072 82.1494 178.216 82.6454 178.216C83.2374 178.216 83.7414 178.056 84.1574 177.736L85.1654 180.376C84.7814 180.648 84.3174 180.856 83.7734 181C83.2454 181.128 82.6934 181.192 82.1174 181.192ZM75.3014 171.256V168.376H84.2534V171.256H75.3014ZM93.2766 181.192C91.8046 181.192 90.5086 180.904 89.3886 180.328C88.2846 179.752 87.4286 178.968 86.8206 177.976C86.2126 176.968 85.9086 175.824 85.9086 174.544C85.9086 173.248 86.2046 172.104 86.7966 171.112C87.4046 170.104 88.2286 169.32 89.2686 168.76C90.3086 168.184 91.4846 167.896 92.7966 167.896C94.0606 167.896 95.1966 168.168 96.2046 168.712C97.2286 169.24 98.0366 170.008 98.6286 171.016C99.2206 172.008 99.5166 173.2 99.5166 174.592C99.5166 174.736 99.5086 174.904 99.4926 175.096C99.4766 175.272 99.4606 175.44 99.4446 175.6H88.9566V173.416H97.4766L96.0366 174.064C96.0366 173.392 95.9006 172.808 95.6286 172.312C95.3566 171.816 94.9806 171.432 94.5006 171.16C94.0206 170.872 93.4606 170.728 92.8206 170.728C92.1806 170.728 91.6126 170.872 91.1166 171.16C90.6366 171.432 90.2606 171.824 89.9886 172.336C89.7166 172.832 89.5806 173.424 89.5806 174.112V174.688C89.5806 175.392 89.7326 176.016 90.0366 176.56C90.3566 177.088 90.7966 177.496 91.3566 177.784C91.9326 178.056 92.6046 178.192 93.3726 178.192C94.0606 178.192 94.6606 178.088 95.1726 177.88C95.7006 177.672 96.1806 177.36 96.6126 176.944L98.6046 179.104C98.0126 179.776 97.2686 180.296 96.3726 180.664C95.4766 181.016 94.4446 181.192 93.2766 181.192ZM109.641 181.192C108.553 181.192 107.601 180.952 106.785 180.472C105.969 179.992 105.329 179.264 104.865 178.288C104.417 177.296 104.193 176.048 104.193 174.544C104.193 173.024 104.409 171.776 104.841 170.8C105.273 169.824 105.897 169.096 106.713 168.616C107.529 168.136 108.505 167.896 109.641 167.896C110.857 167.896 111.945 168.176 112.905 168.736C113.881 169.28 114.649 170.048 115.209 171.04C115.785 172.032 116.073 173.2 116.073 174.544C116.073 175.904 115.785 177.08 115.209 178.072C114.649 179.064 113.881 179.832 112.905 180.376C111.945 180.92 110.857 181.192 109.641 181.192ZM102.009 185.656V168.088H105.585V170.728L105.513 174.568L105.753 178.384V185.656H102.009ZM108.993 178.12C109.617 178.12 110.169 177.976 110.649 177.688C111.145 177.4 111.537 176.992 111.825 176.464C112.129 175.92 112.281 175.28 112.281 174.544C112.281 173.792 112.129 173.152 111.825 172.624C111.537 172.096 111.145 171.688 110.649 171.4C110.169 171.112 109.617 170.968 108.993 170.968C108.369 170.968 107.809 171.112 107.313 171.4C106.817 171.688 106.425 172.096 106.137 172.624C105.849 173.152 105.705 173.792 105.705 174.544C105.705 175.28 105.849 175.92 106.137 176.464C106.425 176.992 106.817 177.4 107.313 177.688C107.809 177.976 108.369 178.12 108.993 178.12ZM124.392 177.472V174.856L132.312 164.2H136.392L128.64 174.856L126.744 174.304H139.968V177.472H124.392ZM133.44 181V177.472L133.56 174.304V171.16H137.232V181H133.44Z" fill="#7D5FFF"/>
<path d="M23.7508 197.414V207.32H21.0312V197.414H23.7508ZM7.32679 205.231C10.5934 204.251 12.0519 201.782 12.0595 199.351V197.854H14.9007V199.351C14.8855 201.729 16.3137 204.008 19.5195 204.927L18.1749 207.039C15.9338 206.385 14.3841 205.018 13.5029 203.278C12.6141 205.177 11.0112 206.682 8.6866 207.373L7.32679 205.231ZM10.6617 210.298V208.178H23.7812V213.465H13.3814V214.689H24.313V216.846H10.7073V211.445H21.0464V210.298H10.6617ZM42.9088 197.444V211.718H40.174V204.714H36.9758V202.503H40.174V197.444H42.9088ZM26.3177 207.32C29.5463 206.302 31.0124 203.749 31.02 201.25V200.954H27.1001V198.758H37.7051V200.954H33.808V201.265C33.808 203.537 35.1982 205.96 38.3052 206.97L36.953 209.143C34.788 208.436 33.299 207.008 32.4482 205.246C31.5822 207.198 30.0249 208.771 27.7231 209.538L26.3177 207.32ZM29.9337 216.641V210.472H32.6685V214.43H43.3722V216.641H29.9337ZM60.8851 198.948C60.8851 201.258 63.2401 203.81 67.7145 204.365L66.6434 206.575C63.2249 206.089 60.718 204.501 59.4417 202.382C58.1655 204.501 55.6738 206.089 52.2856 206.575L51.2069 204.365C55.651 203.81 57.9983 201.258 58.0059 198.948V197.999H60.8851V198.948ZM50.5156 210.29V208.057H68.3526V210.29H60.7332V216.983H58.0211V210.29H50.5156ZM74.9761 198.257C77.4754 198.242 79.4733 199.677 80.0127 201.774H83.2717V197.414H86.0065V207.935H83.2717V203.954H80.0203C79.5113 206.104 77.4982 207.563 74.9761 207.563C71.9678 207.563 69.7572 205.61 69.7724 202.883C69.7572 200.202 71.9678 198.242 74.9761 198.257ZM72.3704 202.883C72.3704 204.342 73.4492 205.269 74.9761 205.269C76.4651 205.269 77.5286 204.342 77.5438 202.883C77.5286 201.425 76.4651 200.528 74.9761 200.536C73.4492 200.528 72.3704 201.425 72.3704 202.883ZM72.963 216.762V208.794H75.6598V210.677H83.2717V208.794H86.0065V216.762H72.963ZM75.6598 214.544H83.2717V212.782H75.6598V214.544ZM96.1548 201.288C96.1548 203.628 97.6134 206.013 100.827 206.978L99.429 209.128C97.2336 208.436 95.699 207.031 94.8178 205.269C93.929 207.198 92.3337 208.733 90.0319 209.492L88.6189 207.343C91.8703 206.302 93.3668 203.765 93.382 201.288V201.015H89.3406V198.827H100.09V201.015H96.1548V201.288ZM91.8019 216.641V210.29H94.5747V214.43H105.423V216.641H91.8019ZM102.156 211.581V197.444H104.906V211.581H102.156ZM124.353 197.414V209.682H121.755V204.501H120.182V209.044H117.622V197.786H120.182V202.268H121.755V197.414H124.353ZM107.45 201.561V199.434H110.899V197.596H113.619V199.434H117.052V201.561H107.45ZM108.043 205.641C108.043 203.582 109.828 202.222 112.274 202.222C114.766 202.222 116.544 203.582 116.551 205.641C116.544 207.662 114.766 209.021 112.274 209.021C109.828 209.021 108.043 207.662 108.043 205.641ZM110.489 205.641C110.489 206.537 111.211 207.084 112.274 207.077C113.345 207.084 114.067 206.537 114.075 205.641C114.067 204.722 113.345 204.182 112.274 204.198C111.211 204.182 110.489 204.722 110.489 205.641ZM110.907 213.427C110.892 211.164 113.459 209.872 117.668 209.872C121.899 209.872 124.444 211.164 124.452 213.427C124.444 215.691 121.899 216.983 117.668 216.975C113.459 216.983 110.892 215.691 110.907 213.427ZM113.642 213.427C113.634 214.415 115.017 214.916 117.668 214.909C120.334 214.916 121.686 214.415 121.694 213.427C121.686 212.402 120.334 211.916 117.668 211.923C115.017 211.916 113.634 212.402 113.642 213.427ZM142.177 198.606V206.834H132.628V198.606H142.177ZM133.669 214.863C137.574 214.544 139.625 212.994 139.921 211.619H134.459V209.591H140.012V207.973H142.762V209.591H148.323V211.619H142.846C143.15 212.956 145.193 214.491 149.083 214.863L148.163 216.937C144.904 216.633 142.595 215.456 141.395 213.914C140.202 215.471 137.877 216.618 134.603 216.937L133.669 214.863ZM135.325 204.691H139.465V200.741H135.325V204.691ZM145.254 208.512V197.414H147.973V208.512H145.254ZM166.626 198.713V200.908H165.023V206.127C165.676 206.074 166.314 206.013 166.93 205.945L167.036 207.958C163.367 208.566 159.098 208.649 156.006 208.649L155.717 206.416C156.363 206.416 157.062 206.408 157.791 206.401V200.908H156.218V198.713H166.626ZM158.801 213.352C158.794 211.004 161.323 209.682 165.517 209.682C169.718 209.682 172.247 211.004 172.255 213.352C172.247 215.623 169.718 216.983 165.517 216.975C161.323 216.983 158.794 215.623 158.801 213.352ZM160.45 206.355C161.095 206.34 161.749 206.317 162.402 206.287V200.908H160.45V206.355ZM161.528 213.352C161.521 214.377 162.903 214.886 165.517 214.894C168.13 214.886 169.528 214.377 169.535 213.352C169.528 212.28 168.13 211.764 165.517 211.764C162.903 211.764 161.521 212.28 161.528 213.352ZM167.074 206.446V204.258H169.467V202.754H167.074V200.604H169.467V197.414H172.202V209.378H169.467V206.446H167.074ZM190.16 197.414V204.912H192.925V207.175H190.16V216.937H187.417V197.414H190.16ZM174.526 211.46C179.144 209.135 181.628 206.021 182.145 201.66H175.627V199.419H184.941C184.925 205.269 182.639 210.328 176.068 213.557L174.526 211.46Z" fill="#333333"/>
<defs>
<clipPath id="clip0_1_1196">
<rect width="100" height="100" fill="white" transform="translate(50)"/>
</clipPath>
</defs>
</svg>
