<svg width="201" height="220" viewBox="0 0 201 220" fill="none" xmlns="http://www.w3.org/2000/svg">
<g clip-path="url(#clip0_1_1178)">
<path d="M100 65.875C108.629 65.875 115.625 58.8794 115.625 50.25C115.625 41.6206 108.629 34.625 100 34.625C91.3706 34.625 84.375 41.6206 84.375 50.25C84.375 58.8794 91.3706 65.875 100 65.875Z" stroke="black" stroke-width="3" stroke-linecap="round" stroke-linejoin="round"/>
<path d="M78.125 78.375C80.3683 74.5682 83.5663 71.4127 87.4027 69.2204C91.2392 67.0281 95.5813 65.875 100 65.875C104.419 65.875 108.761 67.0281 112.597 69.2204C116.434 71.4127 119.632 74.5682 121.875 78.375" stroke="black" stroke-width="3" stroke-linecap="round" stroke-linejoin="round"/>
<path d="M106 31.4603C106.97 29.7023 108.35 28.2039 110.021 27.0919C111.693 25.9799 113.609 25.2871 115.605 25.0719C117.601 24.8568 119.62 25.1258 121.49 25.8561C123.361 26.5864 125.028 27.7566 126.35 29.2675C127.673 30.7785 128.612 32.5857 129.088 34.5364C129.564 36.4871 129.563 38.5237 129.085 40.474C128.607 42.4243 127.667 44.2307 126.343 45.7405C125.019 47.2504 123.351 48.4191 121.48 49.1478C127.078 50.3587 132.375 54.9447 135.699 59.3704" stroke="black" stroke-width="3" stroke-linecap="round" stroke-linejoin="round"/>
<path d="M64 59.3762C67.3242 54.9505 72.6172 50.3645 78.2188 49.1536C76.3459 48.4269 74.6758 47.2596 73.3498 45.7505C72.0239 44.2413 71.0812 42.4348 70.6017 40.484C70.1221 38.5333 70.1198 36.4956 70.5949 34.5437C71.07 32.5918 72.0085 30.7832 73.331 29.271C74.6535 27.7589 76.3209 26.5877 78.1921 25.8568C80.0633 25.1259 82.0831 24.8567 84.0804 25.072C86.0777 25.2874 87.9936 25.981 89.666 27.094C91.3383 28.2071 92.7178 29.7067 93.6875 31.4661" stroke="black" stroke-width="3" stroke-linecap="round" stroke-linejoin="round"/>
</g>
<line y1="121" x2="86" y2="121" stroke="#E8E8E8" stroke-width="2"/>
<rect x="86.5" y="108.5" width="27" height="27" rx="13.5" fill="white"/>
<rect x="86.5" y="108.5" width="27" height="27" rx="13.5" stroke="#E8E8E8"/>
<rect x="92" y="114" width="16" height="16" rx="8" fill="#FFD401"/>
<path d="M200.707 122.707C201.098 122.317 201.098 121.683 200.707 121.293L194.343 114.929C193.953 114.538 193.319 114.538 192.929 114.929C192.538 115.319 192.538 115.953 192.929 116.343L198.586 122L192.929 127.657C192.538 128.047 192.538 128.681 192.929 129.071C193.319 129.462 193.953 129.462 194.343 129.071L200.707 122.707ZM114 123H200V121H114V123Z" fill="#E8E8E8"/>
<path d="M68.4886 181.288C67.1446 181.288 65.8566 181.112 64.6246 180.76C63.3926 180.392 62.4006 179.92 61.6486 179.344L62.9686 176.416C63.6886 176.928 64.5366 177.352 65.5126 177.688C66.5046 178.008 67.5046 178.168 68.5126 178.168C69.2806 178.168 69.8966 178.096 70.3606 177.952C70.8406 177.792 71.1926 177.576 71.4166 177.304C71.6406 177.032 71.7526 176.72 71.7526 176.368C71.7526 175.92 71.5766 175.568 71.2246 175.312C70.8726 175.04 70.4086 174.824 69.8326 174.664C69.2566 174.488 68.6166 174.328 67.9126 174.184C67.2246 174.024 66.5286 173.832 65.8246 173.608C65.1366 173.384 64.5046 173.096 63.9286 172.744C63.3526 172.392 62.8806 171.928 62.5126 171.352C62.1606 170.776 61.9846 170.04 61.9846 169.144C61.9846 168.184 62.2406 167.312 62.7526 166.528C63.2806 165.728 64.0646 165.096 65.1046 164.632C66.1606 164.152 67.4806 163.912 69.0646 163.912C70.1206 163.912 71.1606 164.04 72.1846 164.296C73.2086 164.536 74.1126 164.904 74.8966 165.4L73.6966 168.352C72.9126 167.904 72.1286 167.576 71.3446 167.368C70.5606 167.144 69.7926 167.032 69.0406 167.032C68.2886 167.032 67.6726 167.12 67.1926 167.296C66.7126 167.472 66.3686 167.704 66.1606 167.992C65.9526 168.264 65.8486 168.584 65.8486 168.952C65.8486 169.384 66.0246 169.736 66.3766 170.008C66.7286 170.264 67.1926 170.472 67.7686 170.632C68.3446 170.792 68.9766 170.952 69.6646 171.112C70.3686 171.272 71.0646 171.456 71.7526 171.664C72.4566 171.872 73.0966 172.152 73.6726 172.504C74.2486 172.856 74.7126 173.32 75.0646 173.896C75.4326 174.472 75.6166 175.2 75.6166 176.08C75.6166 177.024 75.3526 177.888 74.8246 178.672C74.2966 179.456 73.5046 180.088 72.4486 180.568C71.4086 181.048 70.0886 181.288 68.4886 181.288ZM83.2893 181.192C81.7693 181.192 80.5853 180.808 79.7373 180.04C78.8893 179.256 78.4653 178.096 78.4653 176.56V165.232H82.2093V176.512C82.2093 177.056 82.3533 177.48 82.6413 177.784C82.9293 178.072 83.3213 178.216 83.8173 178.216C84.4093 178.216 84.9133 178.056 85.3293 177.736L86.3373 180.376C85.9533 180.648 85.4893 180.856 84.9453 181C84.4173 181.128 83.8653 181.192 83.2893 181.192ZM76.4733 171.256V168.376H85.4253V171.256H76.4733ZM94.4485 181.192C92.9765 181.192 91.6805 180.904 90.5605 180.328C89.4565 179.752 88.6005 178.968 87.9925 177.976C87.3845 176.968 87.0805 175.824 87.0805 174.544C87.0805 173.248 87.3765 172.104 87.9685 171.112C88.5765 170.104 89.4005 169.32 90.4405 168.76C91.4805 168.184 92.6565 167.896 93.9685 167.896C95.2325 167.896 96.3685 168.168 97.3765 168.712C98.4005 169.24 99.2085 170.008 99.8005 171.016C100.393 172.008 100.689 173.2 100.689 174.592C100.689 174.736 100.681 174.904 100.665 175.096C100.649 175.272 100.633 175.44 100.617 175.6H90.1285V173.416H98.6485L97.2085 174.064C97.2085 173.392 97.0725 172.808 96.8005 172.312C96.5285 171.816 96.1525 171.432 95.6725 171.16C95.1925 170.872 94.6325 170.728 93.9925 170.728C93.3525 170.728 92.7845 170.872 92.2885 171.16C91.8085 171.432 91.4325 171.824 91.1605 172.336C90.8885 172.832 90.7525 173.424 90.7525 174.112V174.688C90.7525 175.392 90.9045 176.016 91.2085 176.56C91.5285 177.088 91.9685 177.496 92.5285 177.784C93.1045 178.056 93.7765 178.192 94.5445 178.192C95.2325 178.192 95.8325 178.088 96.3445 177.88C96.8725 177.672 97.3525 177.36 97.7845 176.944L99.7765 179.104C99.1845 179.776 98.4405 180.296 97.5445 180.664C96.6485 181.016 95.6165 181.192 94.4485 181.192ZM110.813 181.192C109.725 181.192 108.773 180.952 107.957 180.472C107.141 179.992 106.501 179.264 106.037 178.288C105.589 177.296 105.365 176.048 105.365 174.544C105.365 173.024 105.581 171.776 106.013 170.8C106.445 169.824 107.069 169.096 107.885 168.616C108.701 168.136 109.677 167.896 110.813 167.896C112.029 167.896 113.117 168.176 114.077 168.736C115.053 169.28 115.821 170.048 116.381 171.04C116.957 172.032 117.245 173.2 117.245 174.544C117.245 175.904 116.957 177.08 116.381 178.072C115.821 179.064 115.053 179.832 114.077 180.376C113.117 180.92 112.029 181.192 110.813 181.192ZM103.181 185.656V168.088H106.757V170.728L106.685 174.568L106.925 178.384V185.656H103.181ZM110.165 178.12C110.789 178.12 111.341 177.976 111.821 177.688C112.317 177.4 112.709 176.992 112.997 176.464C113.301 175.92 113.453 175.28 113.453 174.544C113.453 173.792 113.301 173.152 112.997 172.624C112.709 172.096 112.317 171.688 111.821 171.4C111.341 171.112 110.789 170.968 110.165 170.968C109.541 170.968 108.981 171.112 108.485 171.4C107.989 171.688 107.597 172.096 107.309 172.624C107.021 173.152 106.877 173.792 106.877 174.544C106.877 175.28 107.021 175.92 107.309 176.464C107.597 176.992 107.989 177.4 108.485 177.688C108.981 177.976 109.541 178.12 110.165 178.12ZM131.204 181.288C130.036 181.288 128.876 181.136 127.724 180.832C126.572 180.512 125.596 180.064 124.796 179.488L126.308 176.512C126.948 176.976 127.692 177.344 128.54 177.616C129.388 177.888 130.244 178.024 131.108 178.024C132.084 178.024 132.852 177.832 133.412 177.448C133.972 177.064 134.252 176.536 134.252 175.864C134.252 175.224 134.004 174.72 133.508 174.352C133.012 173.984 132.212 173.8 131.108 173.8H129.332V171.232L134.012 165.928L134.444 167.32H125.636V164.2H137.396V166.72L132.74 172.024L130.772 170.896H131.9C133.964 170.896 135.524 171.36 136.58 172.288C137.636 173.216 138.164 174.408 138.164 175.864C138.164 176.808 137.916 177.696 137.42 178.528C136.924 179.344 136.164 180.008 135.14 180.52C134.116 181.032 132.804 181.288 131.204 181.288Z" fill="#7D5FFF"/>
<path d="M45.6784 215L45.6708 212.668L51.2619 207.525C52.7053 206.135 53.4878 205.276 53.4953 204.03C53.4878 202.655 52.4394 201.805 51.0264 201.805C49.5603 201.805 48.5955 202.724 48.6031 204.22H45.534C45.5264 201.174 47.7826 199.229 51.0492 199.229C54.3918 199.229 56.6024 201.128 56.61 203.825C56.6024 205.595 55.744 207.054 52.5382 209.956L50.168 212.242V212.349H56.8227V215H45.6784ZM60.9977 215.19C60.0025 215.19 59.1745 214.385 59.1897 213.39C59.1745 212.402 60.0025 211.597 60.9977 211.597C61.9549 211.597 62.7905 212.402 62.7981 213.39C62.7905 214.385 61.9549 215.19 60.9977 215.19ZM59.1973 205.2C59.1821 204.213 60.0101 203.407 61.0053 203.407C61.9624 203.407 62.7981 204.213 62.8057 205.2C62.7981 206.195 61.9624 207.001 61.0053 207.001C60.0101 207.001 59.1821 206.195 59.1973 205.2ZM72.023 199.442V215H68.7868V202.519H68.6956L65.1252 204.76V201.888L68.9767 199.442H72.023ZM96.4306 197.444V208.474H93.6806V197.444H96.4306ZM79.9914 205.975C83.2732 204.98 84.7013 202.488 84.7089 200.042V198.151H87.5501V200.042C87.5349 202.42 88.9859 204.699 92.1385 205.664L90.8091 207.768C88.5681 207.099 87.0259 205.747 86.1447 203.992C85.2559 205.892 83.6682 207.403 81.336 208.133L79.9914 205.975ZM83.3263 216.762V209.371H96.4306V216.762H83.3263ZM86.0308 214.567H93.7414V211.544H86.0308V214.567ZM116.918 207.061V209.265H99.081V207.061H116.918ZM99.8255 204.198C104.004 203.947 105.994 202.686 106.374 201.334H100.79V199.176H106.609V197.482H109.329V199.176H115.186V201.334H109.557C109.929 202.686 111.927 203.947 116.113 204.198L115.285 206.264C111.684 206.013 109.192 204.972 107.969 203.392C106.738 204.972 104.239 206.013 100.654 206.264L99.8255 204.198ZM101.117 213.655C101.117 211.506 103.662 210.328 107.962 210.328C112.254 210.328 114.761 211.506 114.776 213.655C114.761 215.805 112.254 216.983 107.962 216.975C103.662 216.983 101.117 215.805 101.117 213.655ZM103.913 213.655C103.897 214.552 105.234 214.954 107.962 214.947C110.643 214.954 112.018 214.552 112.026 213.655C112.018 212.759 110.643 212.356 107.962 212.356C105.234 212.356 103.897 212.759 103.913 213.655ZM128.198 199.009V200.498H131.837V197.444H134.572V211.665H131.837V206.887H128.198V208.535H118.908V199.009H128.198ZM121.551 216.641V210.328H124.324V214.43H134.99V216.641H121.551ZM121.627 206.401H125.509V201.182H121.627V206.401ZM128.198 204.714H131.837V202.709H128.198V204.714ZM153.578 197.414V208.117H150.851V204.038H147.751V201.805H150.851V197.414H153.578ZM136.994 206.309C140.079 205.284 141.56 202.921 141.689 200.536H137.777V198.31H148.382V200.536H144.492C144.614 202.724 146.019 204.98 148.982 205.96L147.63 208.072C145.465 207.358 143.976 205.945 143.117 204.198C142.259 206.142 140.702 207.707 138.4 208.459L136.994 206.309ZM140.542 216.762V208.885H143.254V210.731H150.851V208.885H153.578V216.762H140.542ZM143.254 214.567H150.851V212.843H143.254V214.567Z" fill="#333333"/>
<defs>
<clipPath id="clip0_1_1178">
<rect width="100" height="100" fill="white" transform="translate(50)"/>
</clipPath>
</defs>
</svg>
