<svg width="201" height="220" viewBox="0 0 201 220" fill="none" xmlns="http://www.w3.org/2000/svg">
<g clip-path="url(#clip0_1_1146)">
<path d="M134.375 18.75H65.625C63.8991 18.75 62.5 20.1491 62.5 21.875V78.125C62.5 79.8509 63.8991 81.25 65.625 81.25H134.375C136.101 81.25 137.5 79.8509 137.5 78.125V21.875C137.5 20.1491 136.101 18.75 134.375 18.75Z" fill="white" stroke="black" stroke-width="3" stroke-linecap="round" stroke-linejoin="round"/>
<path d="M100 65.625C108.629 65.625 115.625 58.6294 115.625 50C115.625 41.3706 108.629 34.375 100 34.375C91.3706 34.375 84.375 41.3706 84.375 50C84.375 58.6294 91.3706 65.625 100 65.625Z" fill="white" stroke="black" stroke-width="3" stroke-linecap="round" stroke-linejoin="round"/>
<path d="M74.7969 81.2501C77.1247 76.5575 80.7167 72.6082 85.1683 69.8473C89.6198 67.0864 94.754 65.6235 99.9922 65.6235C105.23 65.6235 110.365 67.0864 114.816 69.8473C119.268 72.6082 122.86 76.5575 125.188 81.2501" fill="#FFEDB8"/>
<path d="M74.7969 81.2501C77.1247 76.5575 80.7167 72.6082 85.1683 69.8473C89.6198 67.0864 94.754 65.6235 99.9922 65.6235C105.23 65.6235 110.365 67.0864 114.816 69.8473C119.268 72.6082 122.86 76.5575 125.188 81.2501" stroke="black" stroke-width="3" stroke-linecap="round" stroke-linejoin="round"/>
</g>
<rect x="88.5" y="108.5" width="27" height="27" rx="13.5" fill="white"/>
<rect x="88.5" y="108.5" width="27" height="27" rx="13.5" stroke="#E8E8E8"/>
<rect x="94" y="114" width="16" height="16" rx="8" fill="#FFD401"/>
<path d="M200.707 122.707C201.098 122.317 201.098 121.683 200.707 121.293L194.343 114.929C193.953 114.538 193.319 114.538 192.929 114.929C192.538 115.319 192.538 115.953 192.929 116.343L198.586 122L192.929 127.657C192.538 128.047 192.538 128.681 192.929 129.071C193.319 129.462 193.953 129.462 194.343 129.071L200.707 122.707ZM116 123H200V121H116V123Z" fill="#E8E8E8"/>
<path d="M70.8909 181.288C69.5469 181.288 68.2589 181.112 67.0269 180.76C65.7949 180.392 64.8029 179.92 64.0509 179.344L65.3709 176.416C66.0909 176.928 66.9389 177.352 67.9149 177.688C68.9069 178.008 69.9069 178.168 70.9149 178.168C71.6829 178.168 72.2989 178.096 72.7629 177.952C73.2429 177.792 73.5949 177.576 73.8189 177.304C74.0429 177.032 74.1549 176.72 74.1549 176.368C74.1549 175.92 73.9789 175.568 73.6269 175.312C73.2749 175.04 72.8109 174.824 72.2349 174.664C71.6589 174.488 71.0189 174.328 70.3149 174.184C69.6269 174.024 68.9309 173.832 68.2269 173.608C67.5389 173.384 66.9069 173.096 66.3309 172.744C65.7549 172.392 65.2829 171.928 64.9149 171.352C64.5629 170.776 64.3869 170.04 64.3869 169.144C64.3869 168.184 64.6429 167.312 65.1549 166.528C65.6829 165.728 66.4669 165.096 67.5069 164.632C68.5629 164.152 69.8829 163.912 71.4669 163.912C72.5229 163.912 73.5629 164.04 74.5869 164.296C75.6109 164.536 76.5149 164.904 77.2989 165.4L76.0989 168.352C75.3149 167.904 74.5309 167.576 73.7469 167.368C72.9629 167.144 72.1949 167.032 71.4429 167.032C70.6909 167.032 70.0749 167.12 69.5949 167.296C69.1149 167.472 68.7709 167.704 68.5629 167.992C68.3549 168.264 68.2509 168.584 68.2509 168.952C68.2509 169.384 68.4269 169.736 68.7789 170.008C69.1309 170.264 69.5949 170.472 70.1709 170.632C70.7469 170.792 71.3789 170.952 72.0669 171.112C72.7709 171.272 73.4669 171.456 74.1549 171.664C74.8589 171.872 75.4989 172.152 76.0749 172.504C76.6509 172.856 77.1149 173.32 77.4669 173.896C77.8349 174.472 78.0189 175.2 78.0189 176.08C78.0189 177.024 77.7549 177.888 77.2269 178.672C76.6989 179.456 75.9069 180.088 74.8509 180.568C73.8109 181.048 72.4909 181.288 70.8909 181.288ZM85.6916 181.192C84.1716 181.192 82.9876 180.808 82.1396 180.04C81.2916 179.256 80.8676 178.096 80.8676 176.56V165.232H84.6116V176.512C84.6116 177.056 84.7556 177.48 85.0436 177.784C85.3316 178.072 85.7236 178.216 86.2196 178.216C86.8116 178.216 87.3156 178.056 87.7316 177.736L88.7396 180.376C88.3556 180.648 87.8916 180.856 87.3476 181C86.8196 181.128 86.2676 181.192 85.6916 181.192ZM78.8756 171.256V168.376H87.8276V171.256H78.8756ZM96.8508 181.192C95.3788 181.192 94.0828 180.904 92.9628 180.328C91.8588 179.752 91.0028 178.968 90.3948 177.976C89.7868 176.968 89.4828 175.824 89.4828 174.544C89.4828 173.248 89.7788 172.104 90.3708 171.112C90.9788 170.104 91.8028 169.32 92.8428 168.76C93.8828 168.184 95.0588 167.896 96.3708 167.896C97.6348 167.896 98.7708 168.168 99.7788 168.712C100.803 169.24 101.611 170.008 102.203 171.016C102.795 172.008 103.091 173.2 103.091 174.592C103.091 174.736 103.083 174.904 103.067 175.096C103.051 175.272 103.035 175.44 103.019 175.6H92.5308V173.416H101.051L99.6108 174.064C99.6108 173.392 99.4748 172.808 99.2028 172.312C98.9308 171.816 98.5548 171.432 98.0748 171.16C97.5948 170.872 97.0348 170.728 96.3948 170.728C95.7548 170.728 95.1868 170.872 94.6908 171.16C94.2108 171.432 93.8348 171.824 93.5628 172.336C93.2908 172.832 93.1548 173.424 93.1548 174.112V174.688C93.1548 175.392 93.3068 176.016 93.6108 176.56C93.9308 177.088 94.3708 177.496 94.9308 177.784C95.5068 178.056 96.1788 178.192 96.9468 178.192C97.6348 178.192 98.2348 178.088 98.7468 177.88C99.2748 177.672 99.7548 177.36 100.187 176.944L102.179 179.104C101.587 179.776 100.843 180.296 99.9468 180.664C99.0508 181.016 98.0188 181.192 96.8508 181.192ZM113.215 181.192C112.127 181.192 111.175 180.952 110.359 180.472C109.543 179.992 108.903 179.264 108.439 178.288C107.991 177.296 107.767 176.048 107.767 174.544C107.767 173.024 107.983 171.776 108.415 170.8C108.847 169.824 109.471 169.096 110.287 168.616C111.103 168.136 112.079 167.896 113.215 167.896C114.431 167.896 115.519 168.176 116.479 168.736C117.455 169.28 118.223 170.048 118.783 171.04C119.359 172.032 119.647 173.2 119.647 174.544C119.647 175.904 119.359 177.08 118.783 178.072C118.223 179.064 117.455 179.832 116.479 180.376C115.519 180.92 114.431 181.192 113.215 181.192ZM105.583 185.656V168.088H109.159V170.728L109.087 174.568L109.327 178.384V185.656H105.583ZM112.567 178.12C113.191 178.12 113.743 177.976 114.223 177.688C114.719 177.4 115.111 176.992 115.399 176.464C115.703 175.92 115.855 175.28 115.855 174.544C115.855 173.792 115.703 173.152 115.399 172.624C115.111 172.096 114.719 171.688 114.223 171.4C113.743 171.112 113.191 170.968 112.567 170.968C111.943 170.968 111.383 171.112 110.887 171.4C110.391 171.688 109.999 172.096 109.711 172.624C109.423 173.152 109.279 173.792 109.279 174.544C109.279 175.28 109.423 175.92 109.711 176.464C109.999 176.992 110.391 177.4 110.887 177.688C111.383 177.976 111.943 178.12 112.567 178.12ZM130.751 181V165.64L132.431 167.32H127.391V164.2H134.639V181H130.751Z" fill="#7D5FFF"/>
<path d="M36.1592 201.852C36.1377 205.354 37.6416 208.898 40.7783 210.402L39.124 212.594C37.0293 211.562 35.6221 209.629 34.8057 207.266C33.957 209.801 32.4424 211.874 30.2295 212.959L28.5322 210.746C31.8408 209.221 33.4092 205.482 33.4092 201.852V198.93H36.1592V201.852ZM44.3877 197.426V204.967H47.2666V207.287H44.3877V216.977H41.6377V197.426H44.3877ZM64.4541 197.447V211.713H61.7256V204.709H58.5244V202.496H61.7256V197.447H64.4541ZM64.9268 214.441V216.633H51.4775V210.467H54.2275V214.441H64.9268ZM55.3662 201.271C55.3662 203.527 56.7412 205.955 59.8564 206.965L58.5029 209.135C56.333 208.437 54.8506 207.008 53.9912 205.225C53.1318 207.201 51.5742 208.77 49.2646 209.543L47.8682 207.309C51.0908 206.299 52.5518 203.742 52.5732 201.25V200.949H48.6416V198.758H59.2549V200.949H55.3662V201.271ZM79.4502 201.852C79.4502 205.525 80.9326 209.092 84.1982 210.51L82.5225 212.701C80.3525 211.638 78.9023 209.693 78.0967 207.287C77.2373 209.844 75.7334 211.938 73.499 213.045L71.7803 210.811C75.1318 209.307 76.6572 205.525 76.6787 201.852V198.93H79.4502V201.852ZM88.5596 197.426V217.02H85.8525V205.783H82.0068V203.57H85.8525V197.426H88.5596ZM101.171 199.016V200.498H104.823V197.447H107.552V211.67H104.823V206.879H101.171V208.533H91.8896V199.016H101.171ZM94.6182 201.186V206.406H98.4854V201.186H94.6182ZM107.96 214.441V216.633H94.5322V210.316H97.3037V214.441H107.96ZM101.171 204.709H104.823V202.711H101.171V204.709ZM131.528 197.447V211.498H128.778V197.447H131.528ZM132.044 214.441V216.633H118.423V210.08H121.194V214.441H132.044ZM120.808 198.693C123.815 198.693 126.157 200.756 126.157 203.613C126.157 206.535 123.815 208.576 120.808 208.576C117.8 208.576 115.458 206.535 115.458 203.613C115.458 200.756 117.8 198.693 120.808 198.693ZM120.808 201.078C119.282 201.057 118.122 202.023 118.144 203.613C118.122 205.246 119.282 206.191 120.808 206.191C122.29 206.191 123.45 205.246 123.45 203.613C123.45 202.023 122.29 201.057 120.808 201.078ZM150.671 197.426V217.02H147.964V206.535H144.526V204.322H147.964V197.426H150.671ZM144.204 199.059V201.271H137.802V204.516H143.495V206.664H137.802V210.359C140.509 210.338 142.679 210.241 145.106 209.865L145.386 212.057C142.528 212.486 139.972 212.594 136.62 212.594H135.073V199.059H144.204ZM171.06 208.49V210.703H167.021V216.977H164.271V210.703H159.995V216.977H157.181V210.703H153.163V208.49H171.06ZM157.976 198.156V200.326H166.183V198.156H168.933V206.643H155.269V198.156H157.976ZM157.976 204.473H166.183V202.475H157.976V204.473Z" fill="#333333"/>
<defs>
<clipPath id="clip0_1_1146">
<rect width="100" height="100" fill="white" transform="translate(50)"/>
</clipPath>
</defs>
</svg>
