<svg width="201" height="220" viewBox="0 0 201 220" fill="none" xmlns="http://www.w3.org/2000/svg">
<g clip-path="url(#clip0_1_1161)">
<path d="M82.8125 26.5625V14.0625C82.8125 13.2337 83.1417 12.4388 83.7278 11.8528C84.3138 11.2667 85.1087 10.9375 85.9375 10.9375H117.188L132.812 26.5625V68.75C132.812 69.5788 132.483 70.3737 131.897 70.9597C131.311 71.5458 130.516 71.875 129.688 71.875H117.188" fill="white"/>
<path d="M82.8125 26.5625V14.0625C82.8125 13.2337 83.1417 12.4388 83.7278 11.8528C84.3138 11.2667 85.1087 10.9375 85.9375 10.9375H117.188L132.812 26.5625V68.75C132.812 69.5788 132.483 70.3737 131.897 70.9597C131.311 71.5458 130.516 71.875 129.688 71.875H117.188" stroke="black" stroke-width="3" stroke-linecap="round" stroke-linejoin="round"/>
<path d="M114.062 87.5H71.875C71.0462 87.5 70.2513 87.1708 69.6653 86.5847C69.0792 85.9987 68.75 85.2038 68.75 84.375V29.6875C68.75 28.8587 69.0792 28.0638 69.6653 27.4778C70.2513 26.8917 71.0462 26.5625 71.875 26.5625H101.562L117.188 42.1875V84.375C117.188 85.2038 116.858 85.9987 116.272 86.5847C115.686 87.1708 114.891 87.5 114.062 87.5Z" fill="white" stroke="black" stroke-width="3" stroke-linecap="round" stroke-linejoin="round"/>
<path d="M84.375 56.25H101.562" stroke="#E8E8E8" stroke-width="3" stroke-linecap="round" stroke-linejoin="round"/>
<path d="M84.375 71.875H101.562" stroke="#E8E8E8" stroke-width="3" stroke-linecap="round" stroke-linejoin="round"/>
</g>
<line y1="121" x2="86" y2="121" stroke="#E8E8E8" stroke-width="2"/>
<rect x="86.5" y="108.5" width="27" height="27" rx="13.5" fill="white"/>
<rect x="86.5" y="108.5" width="27" height="27" rx="13.5" stroke="#E8E8E8"/>
<rect x="92" y="114" width="16" height="16" rx="8" fill="#FFD401"/>
<path d="M200.707 122.707C201.098 122.317 201.098 121.683 200.707 121.293L194.343 114.929C193.953 114.538 193.319 114.538 192.929 114.929C192.538 115.319 192.538 115.953 192.929 116.343L198.586 122L192.929 127.657C192.538 128.047 192.538 128.681 192.929 129.071C193.319 129.462 193.953 129.462 194.343 129.071L200.707 122.707ZM114 123H200V121H114V123Z" fill="#E8E8E8"/>
<path d="M68.512 181.288C67.168 181.288 65.88 181.112 64.648 180.76C63.416 180.392 62.424 179.92 61.672 179.344L62.992 176.416C63.712 176.928 64.56 177.352 65.536 177.688C66.528 178.008 67.528 178.168 68.536 178.168C69.304 178.168 69.92 178.096 70.384 177.952C70.864 177.792 71.216 177.576 71.44 177.304C71.664 177.032 71.776 176.72 71.776 176.368C71.776 175.92 71.6 175.568 71.248 175.312C70.896 175.04 70.432 174.824 69.856 174.664C69.28 174.488 68.64 174.328 67.936 174.184C67.248 174.024 66.552 173.832 65.848 173.608C65.16 173.384 64.528 173.096 63.952 172.744C63.376 172.392 62.904 171.928 62.536 171.352C62.184 170.776 62.008 170.04 62.008 169.144C62.008 168.184 62.264 167.312 62.776 166.528C63.304 165.728 64.088 165.096 65.128 164.632C66.184 164.152 67.504 163.912 69.088 163.912C70.144 163.912 71.184 164.04 72.208 164.296C73.232 164.536 74.136 164.904 74.92 165.4L73.72 168.352C72.936 167.904 72.152 167.576 71.368 167.368C70.584 167.144 69.816 167.032 69.064 167.032C68.312 167.032 67.696 167.12 67.216 167.296C66.736 167.472 66.392 167.704 66.184 167.992C65.976 168.264 65.872 168.584 65.872 168.952C65.872 169.384 66.048 169.736 66.4 170.008C66.752 170.264 67.216 170.472 67.792 170.632C68.368 170.792 69 170.952 69.688 171.112C70.392 171.272 71.088 171.456 71.776 171.664C72.48 171.872 73.12 172.152 73.696 172.504C74.272 172.856 74.736 173.32 75.088 173.896C75.456 174.472 75.64 175.2 75.64 176.08C75.64 177.024 75.376 177.888 74.848 178.672C74.32 179.456 73.528 180.088 72.472 180.568C71.432 181.048 70.112 181.288 68.512 181.288ZM83.3127 181.192C81.7927 181.192 80.6087 180.808 79.7607 180.04C78.9127 179.256 78.4887 178.096 78.4887 176.56V165.232H82.2327V176.512C82.2327 177.056 82.3767 177.48 82.6647 177.784C82.9527 178.072 83.3447 178.216 83.8407 178.216C84.4327 178.216 84.9367 178.056 85.3527 177.736L86.3607 180.376C85.9767 180.648 85.5127 180.856 84.9687 181C84.4407 181.128 83.8887 181.192 83.3127 181.192ZM76.4967 171.256V168.376H85.4487V171.256H76.4967ZM94.4719 181.192C92.9999 181.192 91.7039 180.904 90.5839 180.328C89.4799 179.752 88.6239 178.968 88.0159 177.976C87.4079 176.968 87.1039 175.824 87.1039 174.544C87.1039 173.248 87.3999 172.104 87.9919 171.112C88.5999 170.104 89.4239 169.32 90.4639 168.76C91.5039 168.184 92.6799 167.896 93.9919 167.896C95.2559 167.896 96.3919 168.168 97.3999 168.712C98.4239 169.24 99.2319 170.008 99.8239 171.016C100.416 172.008 100.712 173.2 100.712 174.592C100.712 174.736 100.704 174.904 100.688 175.096C100.672 175.272 100.656 175.44 100.64 175.6H90.1519V173.416H98.6719L97.2319 174.064C97.2319 173.392 97.0959 172.808 96.8239 172.312C96.5519 171.816 96.1759 171.432 95.6959 171.16C95.2159 170.872 94.6559 170.728 94.0159 170.728C93.3759 170.728 92.8079 170.872 92.3119 171.16C91.8319 171.432 91.4559 171.824 91.1839 172.336C90.9119 172.832 90.7759 173.424 90.7759 174.112V174.688C90.7759 175.392 90.9279 176.016 91.2319 176.56C91.5519 177.088 91.9919 177.496 92.5519 177.784C93.1279 178.056 93.7999 178.192 94.5679 178.192C95.2559 178.192 95.8559 178.088 96.3679 177.88C96.8959 177.672 97.3759 177.36 97.8079 176.944L99.7999 179.104C99.2079 179.776 98.4639 180.296 97.5679 180.664C96.6719 181.016 95.6399 181.192 94.4719 181.192ZM110.837 181.192C109.749 181.192 108.797 180.952 107.981 180.472C107.165 179.992 106.525 179.264 106.061 178.288C105.613 177.296 105.389 176.048 105.389 174.544C105.389 173.024 105.605 171.776 106.037 170.8C106.469 169.824 107.093 169.096 107.909 168.616C108.725 168.136 109.701 167.896 110.837 167.896C112.053 167.896 113.141 168.176 114.101 168.736C115.077 169.28 115.845 170.048 116.405 171.04C116.981 172.032 117.269 173.2 117.269 174.544C117.269 175.904 116.981 177.08 116.405 178.072C115.845 179.064 115.077 179.832 114.101 180.376C113.141 180.92 112.053 181.192 110.837 181.192ZM103.205 185.656V168.088H106.781V170.728L106.709 174.568L106.949 178.384V185.656H103.205ZM110.189 178.12C110.813 178.12 111.365 177.976 111.845 177.688C112.341 177.4 112.733 176.992 113.021 176.464C113.325 175.92 113.477 175.28 113.477 174.544C113.477 173.792 113.325 173.152 113.021 172.624C112.733 172.096 112.341 171.688 111.845 171.4C111.365 171.112 110.813 170.968 110.189 170.968C109.565 170.968 109.005 171.112 108.509 171.4C108.013 171.688 107.621 172.096 107.333 172.624C107.045 173.152 106.901 173.792 106.901 174.544C106.901 175.28 107.045 175.92 107.333 176.464C107.621 176.992 108.013 177.4 108.509 177.688C109.005 177.976 109.565 178.12 110.189 178.12ZM125.636 181V178.48L132.116 172.36C132.628 171.896 133.004 171.48 133.244 171.112C133.484 170.744 133.644 170.408 133.724 170.104C133.82 169.8 133.868 169.52 133.868 169.264C133.868 168.592 133.636 168.08 133.172 167.728C132.724 167.36 132.06 167.176 131.18 167.176C130.476 167.176 129.82 167.312 129.212 167.584C128.62 167.856 128.116 168.28 127.7 168.856L124.868 167.032C125.508 166.072 126.404 165.312 127.556 164.752C128.708 164.192 130.036 163.912 131.54 163.912C132.788 163.912 133.876 164.12 134.804 164.536C135.748 164.936 136.476 165.504 136.988 166.24C137.516 166.976 137.78 167.856 137.78 168.88C137.78 169.424 137.708 169.968 137.564 170.512C137.436 171.04 137.164 171.6 136.748 172.192C136.348 172.784 135.756 173.448 134.972 174.184L129.596 179.248L128.852 177.832H138.332V181H125.636Z" fill="#7D5FFF"/>
<path d="M67.4216 201.85C67.414 205.527 68.8954 209.105 72.1468 210.51L70.4907 212.691C68.3104 211.642 66.8519 209.698 66.039 207.282C65.1958 209.842 63.6916 211.946 61.4582 213.048L59.7414 210.822C63.0839 209.302 64.6184 205.527 64.6336 201.85V198.925H67.4216V201.85ZM69.9741 205.785V203.575H73.8028V197.414H76.5148V217.028H73.8028V205.785H69.9741ZM96.8959 208.907V211.05H92.7709V216.983H90.0057V211.05H85.9339V216.983H83.1915V211.05H79.0133V208.907H96.8959ZM81.072 200.232V198.014H94.8448V203.696H83.898V205.284H95.3006V207.487H81.1328V201.698H92.0264V200.232H81.072ZM119.483 197.444V208.474H116.733V197.444H119.483ZM103.044 205.975C106.326 204.98 107.754 202.488 107.762 200.042V198.151H110.603V200.042C110.588 202.42 112.039 204.699 115.191 205.664L113.862 207.768C111.621 207.099 110.079 205.747 109.197 203.992C108.309 205.892 106.721 207.403 104.389 208.133L103.044 205.975ZM106.379 216.762V209.371H119.483V216.762H106.379ZM109.083 214.567H116.794V211.544H109.083V214.567ZM129.328 201.85C129.313 205.352 130.809 208.885 133.947 210.404L132.291 212.584C130.201 211.551 128.781 209.622 127.968 207.267C127.117 209.796 125.605 211.863 123.387 212.964L121.708 210.738C125.013 209.219 126.578 205.481 126.585 201.85V198.925H129.328V201.85ZM134.813 216.983V197.414H137.555V204.957H140.442V207.274H137.555V216.983H134.813Z" fill="#333333"/>
<defs>
<clipPath id="clip0_1_1161">
<rect width="100" height="100" fill="white" transform="translate(50)"/>
</clipPath>
</defs>
</svg>
