<svg width="200" height="220" viewBox="0 0 200 220" fill="none" xmlns="http://www.w3.org/2000/svg">
<g clip-path="url(#clip0_1_1228)">
<path d="M79.9531 28.3711L100 21.875L120.047 28.3711" stroke="black" stroke-width="3" stroke-linecap="round" stroke-linejoin="round"/>
<path d="M64.9882 24.3829L55.0195 44.3282C54.649 45.069 54.5878 45.9266 54.8493 46.7125C55.1108 47.4984 55.6736 48.1484 56.414 48.5196L67.1875 53.9063L79.9531 28.3711L69.1835 22.9883C68.8165 22.8043 68.4169 22.6943 68.0074 22.6648C67.5978 22.6353 67.1865 22.6868 66.7969 22.8163C66.4073 22.9458 66.047 23.1508 65.7367 23.4196C65.4264 23.6884 65.172 24.0157 64.9882 24.3829Z" fill="#FFEDB8" stroke="black" stroke-width="3" stroke-linecap="round" stroke-linejoin="round"/>
<path d="M132.812 53.9063L143.586 48.5196C144.326 48.1484 144.889 47.4984 145.151 46.7125C145.412 45.9266 145.351 45.069 144.98 44.3282L135.012 24.3829C134.828 24.0157 134.574 23.6884 134.263 23.4196C133.953 23.1508 133.593 22.9458 133.203 22.8163C132.813 22.6868 132.402 22.6353 131.993 22.6648C131.583 22.6943 131.183 22.8043 130.816 22.9883L120.047 28.3711L132.812 53.9063Z" fill="#FFEDB8" stroke="black" stroke-width="3" stroke-linecap="round" stroke-linejoin="round"/>
<path d="M119.281 28.125H106.25L88.4139 45.4258C88.0823 45.7572 87.8296 46.1589 87.6743 46.6013C87.5191 47.0436 87.4654 47.5152 87.5172 47.9811C87.5689 48.4471 87.7249 48.8954 87.9734 49.2929C88.2219 49.6903 88.5567 50.0268 88.953 50.2773C95.7928 54.6484 105.078 54.3477 112.5 46.875L126.562 60.1562L132.812 53.9062" stroke="black" stroke-width="3" stroke-linecap="round" stroke-linejoin="round"/>
<path d="M126.562 60.1562L111.719 75L87.5 68.75L67.1875 53.9062" stroke="black" stroke-width="3" stroke-linecap="round" stroke-linejoin="round"/>
<path d="M91.7695 84.375L81.3789 81.6914L71.875 74.75" stroke="black" stroke-width="3" stroke-linecap="round" stroke-linejoin="round"/>
</g>
<line y1="121" x2="84" y2="121" stroke="#E8E8E8" stroke-width="2"/>
<rect x="84.5" y="108.5" width="27" height="27" rx="13.5" fill="white"/>
<rect x="84.5" y="108.5" width="27" height="27" rx="13.5" stroke="#E8E8E8"/>
<rect x="90" y="114" width="16" height="16" rx="8" fill="#FFD401"/>
<path d="M67.9495 181.288C66.6055 181.288 65.3175 181.112 64.0855 180.76C62.8535 180.392 61.8615 179.92 61.1095 179.344L62.4295 176.416C63.1495 176.928 63.9975 177.352 64.9735 177.688C65.9655 178.008 66.9655 178.168 67.9735 178.168C68.7415 178.168 69.3575 178.096 69.8215 177.952C70.3015 177.792 70.6535 177.576 70.8775 177.304C71.1015 177.032 71.2135 176.72 71.2135 176.368C71.2135 175.92 71.0375 175.568 70.6855 175.312C70.3335 175.04 69.8695 174.824 69.2935 174.664C68.7175 174.488 68.0775 174.328 67.3735 174.184C66.6855 174.024 65.9895 173.832 65.2855 173.608C64.5975 173.384 63.9655 173.096 63.3895 172.744C62.8135 172.392 62.3415 171.928 61.9735 171.352C61.6215 170.776 61.4455 170.04 61.4455 169.144C61.4455 168.184 61.7015 167.312 62.2135 166.528C62.7415 165.728 63.5255 165.096 64.5655 164.632C65.6215 164.152 66.9415 163.912 68.5255 163.912C69.5815 163.912 70.6215 164.04 71.6455 164.296C72.6695 164.536 73.5735 164.904 74.3575 165.4L73.1575 168.352C72.3735 167.904 71.5895 167.576 70.8055 167.368C70.0215 167.144 69.2535 167.032 68.5015 167.032C67.7495 167.032 67.1335 167.12 66.6535 167.296C66.1735 167.472 65.8295 167.704 65.6215 167.992C65.4135 168.264 65.3095 168.584 65.3095 168.952C65.3095 169.384 65.4855 169.736 65.8375 170.008C66.1895 170.264 66.6535 170.472 67.2295 170.632C67.8055 170.792 68.4375 170.952 69.1255 171.112C69.8295 171.272 70.5255 171.456 71.2135 171.664C71.9175 171.872 72.5575 172.152 73.1335 172.504C73.7095 172.856 74.1735 173.32 74.5255 173.896C74.8935 174.472 75.0775 175.2 75.0775 176.08C75.0775 177.024 74.8135 177.888 74.2855 178.672C73.7575 179.456 72.9655 180.088 71.9095 180.568C70.8695 181.048 69.5495 181.288 67.9495 181.288ZM82.7502 181.192C81.2302 181.192 80.0462 180.808 79.1982 180.04C78.3502 179.256 77.9262 178.096 77.9262 176.56V165.232H81.6702V176.512C81.6702 177.056 81.8142 177.48 82.1022 177.784C82.3902 178.072 82.7822 178.216 83.2782 178.216C83.8702 178.216 84.3742 178.056 84.7902 177.736L85.7982 180.376C85.4142 180.648 84.9502 180.856 84.4062 181C83.8782 181.128 83.3262 181.192 82.7502 181.192ZM75.9342 171.256V168.376H84.8862V171.256H75.9342ZM93.9094 181.192C92.4374 181.192 91.1414 180.904 90.0214 180.328C88.9174 179.752 88.0614 178.968 87.4534 177.976C86.8454 176.968 86.5414 175.824 86.5414 174.544C86.5414 173.248 86.8374 172.104 87.4294 171.112C88.0374 170.104 88.8614 169.32 89.9014 168.76C90.9414 168.184 92.1174 167.896 93.4294 167.896C94.6934 167.896 95.8294 168.168 96.8374 168.712C97.8614 169.24 98.6694 170.008 99.2614 171.016C99.8534 172.008 100.149 173.2 100.149 174.592C100.149 174.736 100.141 174.904 100.125 175.096C100.109 175.272 100.093 175.44 100.077 175.6H89.5894V173.416H98.1094L96.6694 174.064C96.6694 173.392 96.5334 172.808 96.2614 172.312C95.9894 171.816 95.6134 171.432 95.1334 171.16C94.6534 170.872 94.0934 170.728 93.4534 170.728C92.8134 170.728 92.2454 170.872 91.7494 171.16C91.2694 171.432 90.8934 171.824 90.6214 172.336C90.3494 172.832 90.2134 173.424 90.2134 174.112V174.688C90.2134 175.392 90.3654 176.016 90.6694 176.56C90.9894 177.088 91.4294 177.496 91.9894 177.784C92.5654 178.056 93.2374 178.192 94.0054 178.192C94.6934 178.192 95.2934 178.088 95.8054 177.88C96.3334 177.672 96.8134 177.36 97.2454 176.944L99.2374 179.104C98.6454 179.776 97.9014 180.296 97.0054 180.664C96.1094 181.016 95.0774 181.192 93.9094 181.192ZM110.274 181.192C109.186 181.192 108.234 180.952 107.418 180.472C106.602 179.992 105.962 179.264 105.498 178.288C105.05 177.296 104.826 176.048 104.826 174.544C104.826 173.024 105.042 171.776 105.474 170.8C105.906 169.824 106.53 169.096 107.346 168.616C108.162 168.136 109.138 167.896 110.274 167.896C111.49 167.896 112.578 168.176 113.538 168.736C114.514 169.28 115.282 170.048 115.842 171.04C116.418 172.032 116.706 173.2 116.706 174.544C116.706 175.904 116.418 177.08 115.842 178.072C115.282 179.064 114.514 179.832 113.538 180.376C112.578 180.92 111.49 181.192 110.274 181.192ZM102.642 185.656V168.088H106.218V170.728L106.146 174.568L106.386 178.384V185.656H102.642ZM109.626 178.12C110.25 178.12 110.802 177.976 111.282 177.688C111.778 177.4 112.17 176.992 112.458 176.464C112.762 175.92 112.914 175.28 112.914 174.544C112.914 173.792 112.762 173.152 112.458 172.624C112.17 172.096 111.778 171.688 111.282 171.4C110.802 171.112 110.25 170.968 109.626 170.968C109.002 170.968 108.442 171.112 107.946 171.4C107.45 171.688 107.058 172.096 106.77 172.624C106.482 173.152 106.338 173.792 106.338 174.544C106.338 175.28 106.482 175.92 106.77 176.464C107.058 176.992 107.45 177.4 107.946 177.688C108.442 177.976 109.002 178.12 109.626 178.12ZM132.729 181.288C131.193 181.288 129.857 180.968 128.721 180.328C127.601 179.688 126.737 178.752 126.129 177.52C125.521 176.288 125.217 174.768 125.217 172.96C125.217 171.024 125.577 169.384 126.297 168.04C127.033 166.696 128.041 165.672 129.321 164.968C130.617 164.264 132.105 163.912 133.785 163.912C134.681 163.912 135.537 164.008 136.353 164.2C137.169 164.392 137.873 164.68 138.465 165.064L137.025 167.92C136.561 167.6 136.065 167.384 135.537 167.272C135.009 167.144 134.457 167.08 133.881 167.08C132.425 167.08 131.273 167.52 130.425 168.4C129.577 169.28 129.153 170.584 129.153 172.312C129.153 172.6 129.153 172.92 129.153 173.272C129.169 173.624 129.217 173.976 129.297 174.328L128.217 173.32C128.521 172.696 128.913 172.176 129.393 171.76C129.873 171.328 130.441 171.008 131.097 170.8C131.769 170.576 132.505 170.464 133.305 170.464C134.393 170.464 135.369 170.68 136.233 171.112C137.097 171.544 137.785 172.152 138.297 172.936C138.825 173.72 139.089 174.64 139.089 175.696C139.089 176.832 138.801 177.824 138.225 178.672C137.665 179.504 136.905 180.152 135.945 180.616C135.001 181.064 133.929 181.288 132.729 181.288ZM132.513 178.384C133.057 178.384 133.537 178.288 133.953 178.096C134.385 177.888 134.721 177.592 134.961 177.208C135.201 176.824 135.321 176.384 135.321 175.888C135.321 175.12 135.057 174.512 134.529 174.064C134.017 173.6 133.329 173.368 132.465 173.368C131.889 173.368 131.385 173.48 130.953 173.704C130.521 173.912 130.177 174.208 129.921 174.592C129.681 174.96 129.561 175.392 129.561 175.888C129.561 176.368 129.681 176.8 129.921 177.184C130.161 177.552 130.497 177.848 130.929 178.072C131.361 178.28 131.889 178.384 132.513 178.384Z" fill="#7D5FFF"/>
<path d="M76.4997 197.414V209.037H73.7648V204.418H70.711V202.184H73.7648V197.414H76.4997ZM59.8933 206.872C63.0839 205.808 64.5501 203.263 64.6108 200.809H60.691V198.606H71.2959V200.809H67.3988C67.4672 203.081 68.865 205.375 71.8961 206.378L70.5439 208.535C68.3864 207.829 66.905 206.416 66.0466 204.661C65.1958 206.651 63.6309 208.247 61.3139 209.044L59.8933 206.872ZM63.0991 213.238C63.0915 210.867 65.6516 209.47 69.8146 209.47C73.9927 209.47 76.5452 210.867 76.5528 213.238C76.5452 215.608 73.9927 216.998 69.8146 217.006C65.6516 216.998 63.0915 215.608 63.0991 213.238ZM65.8263 213.238C65.8187 214.354 67.2241 214.916 69.8146 214.909C72.4126 214.916 73.8256 214.354 73.8332 213.238C73.8256 212.113 72.4126 211.551 69.8146 211.551C67.2241 211.551 65.8187 212.113 65.8263 213.238ZM94.5637 198.5V199.814C94.5561 201.448 94.5561 203.711 94.0396 206.932H96.8731V209.143H92.6266V216.983H89.8994V209.143H85.8351V216.983H83.0927V209.143H79.0361V206.932H91.2668C91.7758 204.289 91.8669 202.26 91.8821 200.726H81.1556V198.5H94.5637ZM109.22 203.339C109.213 206.271 110.261 209.272 113.079 210.746L111.56 212.759C109.79 211.863 108.628 210.282 107.944 208.376C107.26 210.45 106.098 212.204 104.32 213.207L102.763 211.164C105.551 209.561 106.622 206.37 106.637 203.339V202.967H103.394V200.741H106.637V198.097H109.197V200.741H112.411V202.967H109.22V203.339ZM113.3 216.079V197.718H115.89V204.957H117.561V197.414H120.182V216.983H117.561V207.191H115.89V216.079H113.3ZM139.971 206.697V208.885H122.134V206.697H126.145V204.342C124.724 203.711 123.911 202.731 123.919 201.478C123.911 199.123 126.692 197.71 131.037 197.702C135.367 197.71 138.14 199.123 138.148 201.478C138.14 202.754 137.312 203.734 135.853 204.365V206.697H139.971ZM124.17 213.42C124.17 211.156 126.737 209.895 131.014 209.903C135.246 209.895 137.813 211.156 137.829 213.42C137.813 215.714 135.246 216.96 131.014 216.952C126.737 216.96 124.17 215.714 124.17 213.42ZM126.768 201.478C126.753 202.564 128.279 203.104 131.037 203.104C133.772 203.104 135.322 202.564 135.322 201.478C135.322 200.384 133.772 199.814 131.037 199.814C128.279 199.814 126.753 200.384 126.768 201.478ZM126.965 213.42C126.95 214.407 128.31 214.916 131.014 214.909C133.673 214.916 135.071 214.407 135.079 213.42C135.071 212.44 133.673 211.984 131.014 211.969C128.31 211.984 126.95 212.44 126.965 213.42ZM128.918 206.697H133.126V205.048C132.48 205.132 131.782 205.17 131.037 205.17C130.277 205.17 129.571 205.132 128.918 205.048V206.697Z" fill="#333333"/>
<defs>
<clipPath id="clip0_1_1228">
<rect width="100" height="100" fill="white" transform="translate(50)"/>
</clipPath>
</defs>
</svg>
