<svg width="40" height="40" viewBox="0 0 40 40" fill="none" xmlns="http://www.w3.org/2000/svg">
<rect width="40" height="40" rx="20" fill="#BBBBBB"/>
<path d="M17.8947 17.7956L17.3184 19.3925H18.4711L17.8947 17.7956ZM17.8947 17.7956L17.3184 19.3925H18.4711L17.8947 17.7956ZM20 11C14.4737 11 10 14.4417 10 18.6897C10 21.4363 11.8711 23.8445 14.6868 25.2062C13.2895 29.9089 12.4684 30.2164 18.2237 26.2579C18.8122 26.3391 19.4057 26.3797 20 26.3793C25.5263 26.3793 30 22.9376 30 18.6897C30 14.4417 25.5263 11 20 11ZM14.4737 21.3743C13.4763 21.3743 14.0632 20.0204 13.8974 17.4985C13.5395 17.4365 12.4289 17.7414 12.4289 16.9455C12.4279 16.8721 12.4417 16.7993 12.4695 16.7312C12.4973 16.663 12.5386 16.601 12.5909 16.5486C12.6433 16.4962 12.7057 16.4546 12.7746 16.426C12.8434 16.3975 12.9174 16.3826 12.9921 16.3822C15.0974 16.5295 16.5132 15.9998 16.5132 16.9326C16.5132 17.7414 15.4605 17.4158 15.0474 17.4856C14.8789 19.9997 15.4684 21.3743 14.4737 21.3743ZM19.8974 21.2916C19 21.6921 18.9789 20.7904 18.7632 20.3924H17.0053C16.7895 20.7904 16.7711 21.6844 15.8737 21.2916C15.1974 20.9867 16.2974 19.4467 17.1158 16.9507C17.1685 16.7913 17.2712 16.6524 17.4093 16.5539C17.5473 16.4554 17.7136 16.4024 17.8842 16.4024C18.0549 16.4024 18.2211 16.4554 18.3592 16.5539C18.4972 16.6524 18.5999 16.7913 18.6526 16.9507C19.4895 19.4829 20.5737 20.9842 19.8974 21.2916ZM20.95 21.2916C19.9868 21.2916 20.5737 19.9997 20.3974 16.9533C20.3974 16.2091 21.5763 16.2117 21.5763 16.9533V20.2581C22.1342 20.3304 23.3553 19.9997 23.3553 20.7749C23.3553 21.55 22.0526 21.1857 20.9605 21.2916H20.95ZM26.2868 21.1288L24.9447 19.3796L24.7447 19.5759V20.8033C24.7444 20.8776 24.7291 20.9511 24.6999 21.0196C24.6706 21.0882 24.6278 21.1503 24.5741 21.2027C24.5203 21.255 24.4566 21.2964 24.3865 21.3245C24.3165 21.3526 24.2415 21.3669 24.1658 21.3666C23.1632 21.3666 23.7632 19.9506 23.5895 16.9533C23.5888 16.8785 23.6032 16.8044 23.6318 16.7351C23.6605 16.6659 23.7028 16.6029 23.7564 16.5498C23.81 16.4967 23.8738 16.4546 23.944 16.4258C24.0143 16.397 24.0897 16.3822 24.1658 16.3822C25.0368 16.3822 24.6605 17.5889 24.7421 18.1548C26.3763 16.62 26.3368 16.4572 26.6737 16.4572C27.1368 16.4572 27.421 17.023 27.1105 17.3228L25.7947 18.6147L27.2132 20.4493C27.6789 21.0462 26.7553 21.7231 26.2974 21.1288H26.2868ZM17.3079 19.3925H18.4605L17.8947 17.7956L17.3079 19.3925ZM17.8947 17.7956L17.3184 19.3925H18.4711L17.8947 17.7956ZM17.8947 17.7956L17.3184 19.3925H18.4711L17.8947 17.7956Z" fill="white"/>
</svg>
