<svg width="288" height="148" viewBox="0 0 288 148" fill="none" xmlns="http://www.w3.org/2000/svg">
<g clip-path="url(#clip0_60_1671)">
<path d="M133 17V9C133 8.46957 133.211 7.96086 133.586 7.58579C133.961 7.21071 134.47 7 135 7H155L165 17V44C165 44.5304 164.789 45.0391 164.414 45.4142C164.039 45.7893 163.53 46 163 46H155" fill="white"/>
<path d="M133 17V9C133 8.46957 133.211 7.96086 133.586 7.58579C133.961 7.21071 134.47 7 135 7H155L165 17V44C165 44.5304 164.789 45.0391 164.414 45.4142C164.039 45.7893 163.53 46 163 46H155" stroke="black" stroke-width="3" stroke-linecap="round" stroke-linejoin="round"/>
<path d="M153 56H126C125.47 56 124.961 55.7893 124.586 55.4142C124.211 55.0391 124 54.5304 124 54V19C124 18.4696 124.211 17.9609 124.586 17.5858C124.961 17.2107 125.47 17 126 17H145L155 27V54C155 54.5304 154.789 55.0391 154.414 55.4142C154.039 55.7893 153.53 56 153 56Z" fill="white" stroke="black" stroke-width="3" stroke-linecap="round" stroke-linejoin="round"/>
<path d="M134 36H145" stroke="#E8E8E8" stroke-width="3" stroke-linecap="round" stroke-linejoin="round"/>
<path d="M134 46H145" stroke="#E8E8E8" stroke-width="3" stroke-linecap="round" stroke-linejoin="round"/>
</g>
<path d="M112.512 109.288C111.168 109.288 109.88 109.112 108.648 108.76C107.416 108.392 106.424 107.92 105.672 107.344L106.992 104.416C107.712 104.928 108.56 105.352 109.536 105.688C110.528 106.008 111.528 106.168 112.536 106.168C113.304 106.168 113.92 106.096 114.384 105.952C114.864 105.792 115.216 105.576 115.44 105.304C115.664 105.032 115.776 104.72 115.776 104.368C115.776 103.92 115.6 103.568 115.248 103.312C114.896 103.04 114.432 102.824 113.856 102.664C113.28 102.488 112.64 102.328 111.936 102.184C111.248 102.024 110.552 101.832 109.848 101.608C109.16 101.384 108.528 101.096 107.952 100.744C107.376 100.392 106.904 99.928 106.536 99.352C106.184 98.776 106.008 98.04 106.008 97.144C106.008 96.184 106.264 95.312 106.776 94.528C107.304 93.728 108.088 93.096 109.128 92.632C110.184 92.152 111.504 91.912 113.088 91.912C114.144 91.912 115.184 92.04 116.208 92.296C117.232 92.536 118.136 92.904 118.92 93.4L117.72 96.352C116.936 95.904 116.152 95.576 115.368 95.368C114.584 95.144 113.816 95.032 113.064 95.032C112.312 95.032 111.696 95.12 111.216 95.296C110.736 95.472 110.392 95.704 110.184 95.992C109.976 96.264 109.872 96.584 109.872 96.952C109.872 97.384 110.048 97.736 110.4 98.008C110.752 98.264 111.216 98.472 111.792 98.632C112.368 98.792 113 98.952 113.688 99.112C114.392 99.272 115.088 99.456 115.776 99.664C116.48 99.872 117.12 100.152 117.696 100.504C118.272 100.856 118.736 101.32 119.088 101.896C119.456 102.472 119.64 103.2 119.64 104.08C119.64 105.024 119.376 105.888 118.848 106.672C118.32 107.456 117.528 108.088 116.472 108.568C115.432 109.048 114.112 109.288 112.512 109.288ZM127.313 109.192C125.793 109.192 124.609 108.808 123.761 108.04C122.913 107.256 122.489 106.096 122.489 104.56V93.232H126.233V104.512C126.233 105.056 126.377 105.48 126.665 105.784C126.953 106.072 127.345 106.216 127.841 106.216C128.433 106.216 128.937 106.056 129.353 105.736L130.361 108.376C129.977 108.648 129.513 108.856 128.969 109C128.441 109.128 127.889 109.192 127.313 109.192ZM120.497 99.256V96.376H129.449V99.256H120.497ZM138.472 109.192C137 109.192 135.704 108.904 134.584 108.328C133.48 107.752 132.624 106.968 132.016 105.976C131.408 104.968 131.104 103.824 131.104 102.544C131.104 101.248 131.4 100.104 131.992 99.112C132.6 98.104 133.424 97.32 134.464 96.76C135.504 96.184 136.68 95.896 137.992 95.896C139.256 95.896 140.392 96.168 141.4 96.712C142.424 97.24 143.232 98.008 143.824 99.016C144.416 100.008 144.712 101.2 144.712 102.592C144.712 102.736 144.704 102.904 144.688 103.096C144.672 103.272 144.656 103.44 144.64 103.6H134.152V101.416H142.672L141.232 102.064C141.232 101.392 141.096 100.808 140.824 100.312C140.552 99.816 140.176 99.432 139.696 99.16C139.216 98.872 138.656 98.728 138.016 98.728C137.376 98.728 136.808 98.872 136.312 99.16C135.832 99.432 135.456 99.824 135.184 100.336C134.912 100.832 134.776 101.424 134.776 102.112V102.688C134.776 103.392 134.928 104.016 135.232 104.56C135.552 105.088 135.992 105.496 136.552 105.784C137.128 106.056 137.8 106.192 138.568 106.192C139.256 106.192 139.856 106.088 140.368 105.88C140.896 105.672 141.376 105.36 141.808 104.944L143.8 107.104C143.208 107.776 142.464 108.296 141.568 108.664C140.672 109.016 139.64 109.192 138.472 109.192ZM154.837 109.192C153.749 109.192 152.797 108.952 151.981 108.472C151.165 107.992 150.525 107.264 150.061 106.288C149.613 105.296 149.389 104.048 149.389 102.544C149.389 101.024 149.605 99.776 150.037 98.8C150.469 97.824 151.093 97.096 151.909 96.616C152.725 96.136 153.701 95.896 154.837 95.896C156.053 95.896 157.141 96.176 158.101 96.736C159.077 97.28 159.845 98.048 160.405 99.04C160.981 100.032 161.269 101.2 161.269 102.544C161.269 103.904 160.981 105.08 160.405 106.072C159.845 107.064 159.077 107.832 158.101 108.376C157.141 108.92 156.053 109.192 154.837 109.192ZM147.205 113.656V96.088H150.781V98.728L150.709 102.568L150.949 106.384V113.656H147.205ZM154.189 106.12C154.813 106.12 155.365 105.976 155.845 105.688C156.341 105.4 156.733 104.992 157.021 104.464C157.325 103.92 157.477 103.28 157.477 102.544C157.477 101.792 157.325 101.152 157.021 100.624C156.733 100.096 156.341 99.688 155.845 99.4C155.365 99.112 154.813 98.968 154.189 98.968C153.565 98.968 153.005 99.112 152.509 99.4C152.013 99.688 151.621 100.096 151.333 100.624C151.045 101.152 150.901 101.792 150.901 102.544C150.901 103.28 151.045 103.92 151.333 104.464C151.621 104.992 152.013 105.4 152.509 105.688C153.005 105.976 153.565 106.12 154.189 106.12ZM169.636 109V106.48L176.116 100.36C176.628 99.896 177.004 99.48 177.244 99.112C177.484 98.744 177.644 98.408 177.724 98.104C177.82 97.8 177.868 97.52 177.868 97.264C177.868 96.592 177.636 96.08 177.172 95.728C176.724 95.36 176.06 95.176 175.18 95.176C174.476 95.176 173.82 95.312 173.212 95.584C172.62 95.856 172.116 96.28 171.7 96.856L168.868 95.032C169.508 94.072 170.404 93.312 171.556 92.752C172.708 92.192 174.036 91.912 175.54 91.912C176.788 91.912 177.876 92.12 178.804 92.536C179.748 92.936 180.476 93.504 180.988 94.24C181.516 94.976 181.78 95.856 181.78 96.88C181.78 97.424 181.708 97.968 181.564 98.512C181.436 99.04 181.164 99.6 180.748 100.192C180.348 100.784 179.756 101.448 178.972 102.184L173.596 107.248L172.852 105.832H182.332V109H169.636Z" fill="#7D5FFF"/>
<path d="M111.408 129.852C111.408 133.525 112.891 137.092 116.156 138.51L114.48 140.701C112.311 139.638 110.86 137.693 110.055 135.287C109.195 137.844 107.691 139.938 105.457 141.045L103.738 138.811C107.09 137.307 108.615 133.525 108.637 129.852V126.93H111.408V129.852ZM120.518 125.426V145.02H117.811V133.783H113.965V131.57H117.811V125.426H120.518ZM140.906 136.898V139.047H136.781V144.977H134.01V139.047H129.928V144.977H127.199V139.047H123.01V136.898H140.906ZM138.844 126.006V131.699H127.908V133.289H139.295V135.48H125.137V129.701H136.029V128.24H125.072V126.006H138.844ZM163.486 125.447V136.469H160.736V125.447H163.486ZM163.486 137.371V144.762H150.381V137.371H163.486ZM153.088 139.541V142.57H160.801V139.541H153.088ZM154.613 128.047C154.592 130.432 156.031 132.688 159.189 133.676L157.857 135.76C155.623 135.104 154.076 133.751 153.195 132C152.304 133.901 150.714 135.405 148.383 136.125L147.051 133.977C150.316 132.988 151.756 130.496 151.756 128.047V126.156H154.613V128.047ZM173.326 129.852C173.305 133.354 174.809 136.898 177.945 138.402L176.291 140.594C174.196 139.562 172.789 137.629 171.973 135.266C171.124 137.801 169.609 139.874 167.396 140.959L165.699 138.746C169.008 137.221 170.576 133.482 170.576 129.852V126.93H173.326V129.852ZM181.555 125.426V132.967H184.434V135.287H181.555V144.977H178.805V125.426H181.555Z" fill="#333333"/>
<defs>
<clipPath id="clip0_60_1671">
<rect width="64" height="64" fill="white" transform="translate(112)"/>
</clipPath>
</defs>
</svg>
