<svg width="288" height="148" viewBox="0 0 288 148" fill="none" xmlns="http://www.w3.org/2000/svg">
<g clip-path="url(#clip0_60_1704)">
<path d="M138 44C141.866 44 145 40.866 145 37C145 33.134 141.866 30 138 30C134.134 30 131 33.134 131 37C131 40.866 134.134 44 138 44Z" stroke="black" stroke-width="3" stroke-linecap="round" stroke-linejoin="round"/>
<path d="M159 43V21H129" stroke="#FFDB43" stroke-width="3" stroke-linecap="round" stroke-linejoin="round"/>
<path d="M149.315 52H166C166.53 52 167.039 51.7893 167.414 51.4142C167.789 51.0391 168 50.5304 168 50V14C168 13.4696 167.789 12.9609 167.414 12.5858C167.039 12.2107 166.53 12 166 12H122C121.47 12 120.961 12.2107 120.586 12.5858C120.211 12.9609 120 13.4696 120 14V50C120 50.5304 120.211 51.0391 120.586 51.4142C120.961 51.7893 121.47 52 122 52H126.682C127.508 49.6578 129.04 47.6294 131.067 46.1946C133.094 44.7598 135.517 43.9893 138 43.9893C140.483 43.9893 142.906 44.7598 144.933 46.1946C146.96 47.6294 148.492 49.6578 149.318 52H149.315Z" stroke="black" stroke-width="3" stroke-linecap="round" stroke-linejoin="round"/>
</g>
<path d="M111.317 109.288C109.973 109.288 108.685 109.112 107.453 108.76C106.221 108.392 105.229 107.92 104.477 107.344L105.797 104.416C106.517 104.928 107.365 105.352 108.341 105.688C109.333 106.008 110.333 106.168 111.341 106.168C112.109 106.168 112.725 106.096 113.189 105.952C113.669 105.792 114.021 105.576 114.245 105.304C114.469 105.032 114.581 104.72 114.581 104.368C114.581 103.92 114.405 103.568 114.053 103.312C113.701 103.04 113.237 102.824 112.661 102.664C112.085 102.488 111.445 102.328 110.741 102.184C110.053 102.024 109.357 101.832 108.653 101.608C107.965 101.384 107.333 101.096 106.757 100.744C106.181 100.392 105.709 99.928 105.341 99.352C104.989 98.776 104.813 98.04 104.813 97.144C104.813 96.184 105.069 95.312 105.581 94.528C106.109 93.728 106.893 93.096 107.933 92.632C108.989 92.152 110.309 91.912 111.893 91.912C112.949 91.912 113.989 92.04 115.013 92.296C116.037 92.536 116.941 92.904 117.725 93.4L116.525 96.352C115.741 95.904 114.957 95.576 114.173 95.368C113.389 95.144 112.621 95.032 111.869 95.032C111.117 95.032 110.501 95.12 110.021 95.296C109.541 95.472 109.197 95.704 108.989 95.992C108.781 96.264 108.677 96.584 108.677 96.952C108.677 97.384 108.853 97.736 109.205 98.008C109.557 98.264 110.021 98.472 110.597 98.632C111.173 98.792 111.805 98.952 112.493 99.112C113.197 99.272 113.893 99.456 114.581 99.664C115.285 99.872 115.925 100.152 116.501 100.504C117.077 100.856 117.541 101.32 117.893 101.896C118.261 102.472 118.445 103.2 118.445 104.08C118.445 105.024 118.181 105.888 117.653 106.672C117.125 107.456 116.333 108.088 115.277 108.568C114.237 109.048 112.917 109.288 111.317 109.288ZM126.117 109.192C124.597 109.192 123.413 108.808 122.565 108.04C121.717 107.256 121.293 106.096 121.293 104.56V93.232H125.037V104.512C125.037 105.056 125.181 105.48 125.469 105.784C125.757 106.072 126.149 106.216 126.645 106.216C127.237 106.216 127.741 106.056 128.157 105.736L129.165 108.376C128.781 108.648 128.317 108.856 127.773 109C127.245 109.128 126.693 109.192 126.117 109.192ZM119.301 99.256V96.376H128.253V99.256H119.301ZM137.277 109.192C135.805 109.192 134.509 108.904 133.389 108.328C132.285 107.752 131.429 106.968 130.821 105.976C130.213 104.968 129.909 103.824 129.909 102.544C129.909 101.248 130.205 100.104 130.797 99.112C131.405 98.104 132.229 97.32 133.269 96.76C134.309 96.184 135.485 95.896 136.797 95.896C138.061 95.896 139.197 96.168 140.205 96.712C141.229 97.24 142.037 98.008 142.629 99.016C143.221 100.008 143.517 101.2 143.517 102.592C143.517 102.736 143.509 102.904 143.493 103.096C143.477 103.272 143.461 103.44 143.445 103.6H132.957V101.416H141.477L140.037 102.064C140.037 101.392 139.901 100.808 139.629 100.312C139.357 99.816 138.981 99.432 138.501 99.16C138.021 98.872 137.461 98.728 136.821 98.728C136.181 98.728 135.613 98.872 135.117 99.16C134.637 99.432 134.261 99.824 133.989 100.336C133.717 100.832 133.581 101.424 133.581 102.112V102.688C133.581 103.392 133.733 104.016 134.037 104.56C134.357 105.088 134.797 105.496 135.357 105.784C135.933 106.056 136.605 106.192 137.373 106.192C138.061 106.192 138.661 106.088 139.173 105.88C139.701 105.672 140.181 105.36 140.613 104.944L142.605 107.104C142.013 107.776 141.269 108.296 140.373 108.664C139.477 109.016 138.445 109.192 137.277 109.192ZM153.641 109.192C152.553 109.192 151.601 108.952 150.785 108.472C149.969 107.992 149.329 107.264 148.865 106.288C148.417 105.296 148.193 104.048 148.193 102.544C148.193 101.024 148.409 99.776 148.841 98.8C149.273 97.824 149.897 97.096 150.713 96.616C151.529 96.136 152.505 95.896 153.641 95.896C154.857 95.896 155.945 96.176 156.905 96.736C157.881 97.28 158.649 98.048 159.209 99.04C159.785 100.032 160.073 101.2 160.073 102.544C160.073 103.904 159.785 105.08 159.209 106.072C158.649 107.064 157.881 107.832 156.905 108.376C155.945 108.92 154.857 109.192 153.641 109.192ZM146.009 113.656V96.088H149.585V98.728L149.513 102.568L149.753 106.384V113.656H146.009ZM152.993 106.12C153.617 106.12 154.169 105.976 154.649 105.688C155.145 105.4 155.537 104.992 155.825 104.464C156.129 103.92 156.281 103.28 156.281 102.544C156.281 101.792 156.129 101.152 155.825 100.624C155.537 100.096 155.145 99.688 154.649 99.4C154.169 99.112 153.617 98.968 152.993 98.968C152.369 98.968 151.809 99.112 151.313 99.4C150.817 99.688 150.425 100.096 150.137 100.624C149.849 101.152 149.705 101.792 149.705 102.544C149.705 103.28 149.849 103.92 150.137 104.464C150.425 104.992 150.817 105.4 151.313 105.688C151.809 105.976 152.369 106.12 152.993 106.12ZM168.392 105.472V102.856L176.312 92.2H180.392L172.64 102.856L170.744 102.304H183.968V105.472H168.392ZM177.44 109V105.472L177.56 102.304V99.16H181.232V109H177.44Z" fill="#7D5FFF"/>
<path d="M59.0186 129.852C59.0186 133.439 60.6514 137.049 63.96 138.445L62.3486 140.637C60.1143 139.627 58.5674 137.683 57.6865 135.266C56.7949 137.897 55.1943 140.024 52.8096 141.109L51.1553 138.832C54.5713 137.393 56.2256 133.654 56.2471 129.852V126.93H59.0186V129.852ZM67.7842 125.426V145.02H65.0127V125.426H67.7842ZM74.0146 126.543V129.143H77.8604V126.543H80.5674V130.066H84.1768V125.426H86.9053V136.748H84.1768V132.301H80.5674V135.91H71.2646V126.543H74.0146ZM74.0146 133.719H77.8604V131.27H74.0146V133.719ZM86.9053 137.521V144.762H73.7568V137.521H86.9053ZM76.5068 139.713V142.57H84.2197V139.713H76.5068ZM104.952 125.426V130.023H107.595V132.258H104.952V136.77H102.202V125.426H104.952ZM99.4951 126.715C99.5166 131.936 96.2295 135.588 90.4072 137.199L89.3115 134.986C93.6191 133.837 96.0898 131.624 96.5088 128.906H90.2354V126.715H99.4951ZM98.5713 137.006C102.546 137.006 105.167 138.553 105.167 141.002C105.167 143.473 102.546 144.998 98.5713 144.998C94.5967 144.998 91.9326 143.473 91.9541 141.002C91.9326 138.553 94.5967 137.006 98.5713 137.006ZM98.5713 139.133C96.1006 139.133 94.6396 139.799 94.6611 141.002C94.6396 142.184 96.1006 142.871 98.5713 142.85C100.999 142.871 102.46 142.184 102.46 141.002C102.46 139.799 100.999 139.133 98.5713 139.133ZM114.792 126.736C117.886 126.715 120.206 128.734 120.206 131.527C120.206 134.342 117.886 136.34 114.792 136.34C111.698 136.34 109.356 134.342 109.356 131.527C109.356 128.734 111.698 126.715 114.792 126.736ZM114.792 129.1C113.245 129.1 112.063 130.002 112.085 131.527C112.063 133.074 113.245 133.955 114.792 133.955C116.339 133.955 117.521 133.074 117.542 131.527C117.521 130.002 116.36 129.1 114.792 129.1ZM124.89 125.426V145.02H122.161V125.426H124.89ZM108.54 138.789C112.021 138.811 116.854 138.746 121.044 138.166L121.259 140.143C116.919 140.98 112.278 141.023 108.862 141.023L108.54 138.789ZM140.165 129.293C140.165 131.635 141.604 134.02 144.827 134.986L143.431 137.135C141.239 136.447 139.692 135.04 138.812 133.268C137.92 135.19 136.33 136.737 134.042 137.5L132.624 135.352C135.868 134.299 137.372 131.764 137.372 129.293V129.014H133.354V126.822H144.097V129.014H140.165V129.293ZM148.909 125.447V139.584H146.159V125.447H148.909ZM149.425 142.441V144.633H135.804V138.295H138.575V142.441H149.425ZM168.353 125.426V137.693H165.753V132.494H164.185V137.049H161.628V125.791H164.185V130.26H165.753V125.426H168.353ZM161.048 127.445V129.572H151.444V127.445H154.903V125.598H157.632V127.445H161.048ZM156.278 130.217C158.771 130.217 160.532 131.592 160.554 133.633C160.532 135.652 158.771 137.027 156.278 137.027C153.829 137.027 152.046 135.652 152.046 133.633C152.046 131.592 153.829 130.217 156.278 130.217ZM156.278 132.193C155.204 132.193 154.495 132.73 154.495 133.633C154.495 134.535 155.204 135.094 156.278 135.072C157.353 135.094 158.062 134.535 158.083 133.633C158.062 132.73 157.353 132.193 156.278 132.193ZM161.671 137.865C165.903 137.865 168.438 139.154 168.46 141.432C168.438 143.688 165.903 144.977 161.671 144.977C157.46 144.977 154.903 143.688 154.903 141.432C154.903 139.154 157.46 137.865 161.671 137.865ZM161.671 139.928C159.028 139.928 157.632 140.4 157.653 141.432C157.632 142.42 159.028 142.914 161.671 142.914C164.335 142.914 165.688 142.42 165.688 141.432C165.688 140.4 164.335 139.928 161.671 139.928ZM186.185 126.607V134.836H176.624V126.607H186.185ZM179.331 128.734V132.688H183.456V128.734H179.331ZM191.985 125.426V136.512H189.257V125.426H191.985ZM192.329 137.586V139.627H186.851C187.151 140.959 189.214 142.495 193.081 142.871L192.157 144.934C188.902 144.633 186.593 143.451 185.411 141.904C184.197 143.473 181.877 144.622 178.601 144.934L177.655 142.871C181.576 142.56 183.639 140.991 183.929 139.627H178.45V137.586H184.015V135.975H186.765V137.586H192.329ZM210.634 126.715V128.906H209.022V134.127C209.678 134.073 210.322 134.009 210.935 133.934L211.042 135.953C207.368 136.576 203.093 136.641 199.999 136.641L199.72 134.428L201.804 134.406V128.906H200.214V126.715H210.634ZM216.198 125.426V137.371H213.47V134.449H211.063V132.258H213.47V130.754H211.063V128.605H213.47V125.426H216.198ZM209.517 137.672C213.728 137.693 216.241 139.004 216.263 141.346C216.241 143.623 213.728 144.977 209.517 144.977C205.327 144.977 202.792 143.623 202.792 141.346C202.792 139.004 205.327 137.693 209.517 137.672ZM209.517 139.777C206.896 139.777 205.521 140.271 205.521 141.346C205.521 142.377 206.896 142.893 209.517 142.893C212.138 142.893 213.534 142.377 213.534 141.346C213.534 140.271 212.138 139.777 209.517 139.777ZM204.446 134.342L206.401 134.277V128.906H204.446V134.342ZM234.159 125.426V132.924H236.931V135.18H234.159V144.934H231.409V125.426H234.159ZM228.938 127.424C228.917 133.268 226.64 138.338 220.065 141.561L218.519 139.455C223.148 137.135 225.63 134.02 226.146 129.658H219.636V127.424H228.938Z" fill="#333333"/>
<defs>
<clipPath id="clip0_60_1704">
<rect width="64" height="64" fill="white" transform="translate(112)"/>
</clipPath>
</defs>
</svg>
