<svg width="288" height="148" viewBox="0 0 288 148" fill="none" xmlns="http://www.w3.org/2000/svg">
<g clip-path="url(#clip0_60_1719)">
<path d="M131.17 18.1575L144 14L156.83 18.1575" stroke="black" stroke-width="3" stroke-linecap="round" stroke-linejoin="round"/>
<path d="M121.592 15.6052L115.212 28.3702C114.975 28.8443 114.936 29.3932 115.103 29.8962C115.271 30.3992 115.631 30.8151 116.105 31.0527L123 34.5002L131.17 18.1577L124.277 14.7127C124.042 14.5949 123.787 14.5246 123.524 14.5057C123.262 14.4868 122.999 14.5197 122.75 14.6026C122.5 14.6855 122.27 14.8167 122.071 14.9887C121.873 15.1608 121.71 15.3702 121.592 15.6052Z" fill="#FFEDB8" stroke="black" stroke-width="3" stroke-linecap="round" stroke-linejoin="round"/>
<path d="M165 34.5002L171.895 31.0527C172.369 30.8151 172.729 30.3992 172.897 29.8962C173.064 29.3932 173.025 28.8443 172.788 28.3702L166.408 15.6052C166.29 15.3702 166.127 15.1608 165.929 14.9887C165.73 14.8167 165.499 14.6855 165.25 14.6026C165.001 14.5197 164.737 14.4868 164.475 14.5057C164.213 14.5246 163.957 14.5949 163.723 14.7127L156.83 18.1577L165 34.5002Z" fill="#FFEDB8" stroke="black" stroke-width="3" stroke-linecap="round" stroke-linejoin="round"/>
<path d="M156.34 18H148L136.585 29.0725C136.373 29.2846 136.211 29.5417 136.112 29.8248C136.013 30.1079 135.978 30.4097 136.011 30.7079C136.044 31.0061 136.144 31.293 136.303 31.5474C136.462 31.8018 136.677 32.0172 136.93 32.1775C141.308 34.975 147.25 34.7825 152 30L161 38.5L165 34.5" stroke="black" stroke-width="3" stroke-linecap="round" stroke-linejoin="round"/>
<path d="M161 38.5L151.5 48L136 44L123 34.5" stroke="black" stroke-width="3" stroke-linecap="round" stroke-linejoin="round"/>
<path d="M138.733 53.9998L132.083 52.2823L126 47.8398" stroke="black" stroke-width="3" stroke-linecap="round" stroke-linejoin="round"/>
</g>
<path d="M112.453 109.288C111.109 109.288 109.821 109.112 108.589 108.76C107.357 108.392 106.365 107.92 105.613 107.344L106.933 104.416C107.653 104.928 108.501 105.352 109.477 105.688C110.469 106.008 111.469 106.168 112.477 106.168C113.245 106.168 113.861 106.096 114.325 105.952C114.805 105.792 115.157 105.576 115.381 105.304C115.605 105.032 115.717 104.72 115.717 104.368C115.717 103.92 115.541 103.568 115.189 103.312C114.837 103.04 114.373 102.824 113.797 102.664C113.221 102.488 112.581 102.328 111.877 102.184C111.189 102.024 110.493 101.832 109.789 101.608C109.101 101.384 108.469 101.096 107.893 100.744C107.317 100.392 106.845 99.928 106.477 99.352C106.125 98.776 105.949 98.04 105.949 97.144C105.949 96.184 106.205 95.312 106.717 94.528C107.245 93.728 108.029 93.096 109.069 92.632C110.125 92.152 111.445 91.912 113.029 91.912C114.085 91.912 115.125 92.04 116.149 92.296C117.173 92.536 118.077 92.904 118.861 93.4L117.661 96.352C116.877 95.904 116.093 95.576 115.309 95.368C114.525 95.144 113.757 95.032 113.005 95.032C112.253 95.032 111.637 95.12 111.157 95.296C110.677 95.472 110.333 95.704 110.125 95.992C109.917 96.264 109.813 96.584 109.813 96.952C109.813 97.384 109.989 97.736 110.341 98.008C110.693 98.264 111.157 98.472 111.733 98.632C112.309 98.792 112.941 98.952 113.629 99.112C114.333 99.272 115.029 99.456 115.717 99.664C116.421 99.872 117.061 100.152 117.637 100.504C118.213 100.856 118.677 101.32 119.029 101.896C119.397 102.472 119.581 103.2 119.581 104.08C119.581 105.024 119.317 105.888 118.789 106.672C118.261 107.456 117.469 108.088 116.413 108.568C115.373 109.048 114.053 109.288 112.453 109.288ZM127.254 109.192C125.734 109.192 124.55 108.808 123.702 108.04C122.854 107.256 122.43 106.096 122.43 104.56V93.232H126.174V104.512C126.174 105.056 126.318 105.48 126.606 105.784C126.894 106.072 127.286 106.216 127.782 106.216C128.374 106.216 128.878 106.056 129.294 105.736L130.302 108.376C129.918 108.648 129.454 108.856 128.91 109C128.382 109.128 127.83 109.192 127.254 109.192ZM120.438 99.256V96.376H129.39V99.256H120.438ZM138.413 109.192C136.941 109.192 135.645 108.904 134.525 108.328C133.421 107.752 132.565 106.968 131.957 105.976C131.349 104.968 131.045 103.824 131.045 102.544C131.045 101.248 131.341 100.104 131.933 99.112C132.541 98.104 133.365 97.32 134.405 96.76C135.445 96.184 136.621 95.896 137.933 95.896C139.197 95.896 140.333 96.168 141.341 96.712C142.365 97.24 143.173 98.008 143.765 99.016C144.357 100.008 144.653 101.2 144.653 102.592C144.653 102.736 144.645 102.904 144.629 103.096C144.613 103.272 144.597 103.44 144.581 103.6H134.093V101.416H142.613L141.173 102.064C141.173 101.392 141.037 100.808 140.765 100.312C140.493 99.816 140.117 99.432 139.637 99.16C139.157 98.872 138.597 98.728 137.957 98.728C137.317 98.728 136.749 98.872 136.253 99.16C135.773 99.432 135.397 99.824 135.125 100.336C134.853 100.832 134.717 101.424 134.717 102.112V102.688C134.717 103.392 134.869 104.016 135.173 104.56C135.493 105.088 135.933 105.496 136.493 105.784C137.069 106.056 137.741 106.192 138.509 106.192C139.197 106.192 139.797 106.088 140.309 105.88C140.837 105.672 141.317 105.36 141.749 104.944L143.741 107.104C143.149 107.776 142.405 108.296 141.509 108.664C140.613 109.016 139.581 109.192 138.413 109.192ZM154.778 109.192C153.69 109.192 152.738 108.952 151.922 108.472C151.106 107.992 150.466 107.264 150.002 106.288C149.554 105.296 149.33 104.048 149.33 102.544C149.33 101.024 149.546 99.776 149.978 98.8C150.41 97.824 151.034 97.096 151.85 96.616C152.666 96.136 153.642 95.896 154.778 95.896C155.994 95.896 157.082 96.176 158.042 96.736C159.018 97.28 159.786 98.048 160.346 99.04C160.922 100.032 161.21 101.2 161.21 102.544C161.21 103.904 160.922 105.08 160.346 106.072C159.786 107.064 159.018 107.832 158.042 108.376C157.082 108.92 155.994 109.192 154.778 109.192ZM147.146 113.656V96.088H150.722V98.728L150.65 102.568L150.89 106.384V113.656H147.146ZM154.13 106.12C154.754 106.12 155.306 105.976 155.786 105.688C156.282 105.4 156.674 104.992 156.962 104.464C157.266 103.92 157.418 103.28 157.418 102.544C157.418 101.792 157.266 101.152 156.962 100.624C156.674 100.096 156.282 99.688 155.786 99.4C155.306 99.112 154.754 98.968 154.13 98.968C153.506 98.968 152.946 99.112 152.45 99.4C151.954 99.688 151.562 100.096 151.274 100.624C150.986 101.152 150.842 101.792 150.842 102.544C150.842 103.28 150.986 103.92 151.274 104.464C151.562 104.992 151.954 105.4 152.45 105.688C152.946 105.976 153.506 106.12 154.13 106.12ZM175.433 109.288C174.265 109.288 173.105 109.136 171.953 108.832C170.817 108.512 169.841 108.064 169.025 107.488L170.561 104.512C171.201 104.976 171.937 105.344 172.769 105.616C173.617 105.888 174.473 106.024 175.337 106.024C176.313 106.024 177.081 105.832 177.641 105.448C178.201 105.064 178.481 104.528 178.481 103.84C178.481 103.408 178.369 103.024 178.145 102.688C177.921 102.352 177.521 102.096 176.945 101.92C176.385 101.744 175.593 101.656 174.569 101.656H170.273L171.137 92.2H181.385V95.32H172.529L174.545 93.544L173.945 100.288L171.929 98.512H175.481C177.145 98.512 178.481 98.744 179.489 99.208C180.513 99.656 181.257 100.272 181.721 101.056C182.185 101.84 182.417 102.728 182.417 103.72C182.417 104.712 182.169 105.632 181.673 106.48C181.177 107.312 180.409 107.992 179.369 108.52C178.345 109.032 177.033 109.288 175.433 109.288Z" fill="#7D5FFF"/>
<path d="M120.5 125.414V137.037H117.765V132.418H114.711V130.184H117.765V125.414H120.5ZM103.893 134.872C107.084 133.808 108.55 131.263 108.611 128.809H104.691V126.606H115.296V128.809H111.399C111.467 131.081 112.865 133.375 115.896 134.378L114.544 136.535C112.386 135.829 110.905 134.416 110.047 132.661C109.196 134.651 107.631 136.247 105.314 137.044L103.893 134.872ZM107.099 141.238C107.092 138.867 109.652 137.47 113.815 137.47C117.993 137.47 120.545 138.867 120.553 141.238C120.545 143.608 117.993 144.998 113.815 145.006C109.652 144.998 107.092 143.608 107.099 141.238ZM109.826 141.238C109.819 142.354 111.224 142.916 113.815 142.909C116.413 142.916 117.826 142.354 117.833 141.238C117.826 140.113 116.413 139.551 113.815 139.551C111.224 139.551 109.819 140.113 109.826 141.238ZM138.564 126.5V127.814C138.556 129.448 138.556 131.711 138.04 134.932H140.873V137.143H136.627V144.983H133.899V137.143H129.835V144.983H127.093V137.143H123.036V134.932H135.267C135.776 132.289 135.867 130.26 135.882 128.726H125.156V126.5H138.564ZM153.22 131.339C153.213 134.271 154.261 137.272 157.079 138.746L155.56 140.759C153.79 139.863 152.628 138.282 151.944 136.376C151.26 138.45 150.098 140.204 148.32 141.207L146.763 139.164C149.551 137.561 150.622 134.37 150.637 131.339V130.967H147.394V128.741H150.637V126.097H153.197V128.741H156.411V130.967H153.22V131.339ZM157.3 144.079V125.718H159.89V132.957H161.561V125.414H164.182V144.983H161.561V135.191H159.89V144.079H157.3ZM183.971 134.697V136.885H166.134V134.697H170.145V132.342C168.724 131.711 167.911 130.731 167.919 129.478C167.911 127.123 170.692 125.71 175.037 125.702C179.367 125.71 182.14 127.123 182.148 129.478C182.14 130.754 181.312 131.734 179.853 132.365V134.697H183.971ZM168.17 141.42C168.17 139.156 170.737 137.895 175.014 137.903C179.246 137.895 181.813 139.156 181.829 141.42C181.813 143.714 179.246 144.96 175.014 144.952C170.737 144.96 168.17 143.714 168.17 141.42ZM170.768 129.478C170.753 130.564 172.279 131.104 175.037 131.104C177.772 131.104 179.322 130.564 179.322 129.478C179.322 128.384 177.772 127.814 175.037 127.814C172.279 127.814 170.753 128.384 170.768 129.478ZM170.965 141.42C170.95 142.407 172.31 142.916 175.014 142.909C177.673 142.916 179.071 142.407 179.079 141.42C179.071 140.44 177.673 139.984 175.014 139.969C172.31 139.984 170.95 140.44 170.965 141.42ZM172.918 134.697H177.126V133.048C176.48 133.132 175.782 133.17 175.037 133.17C174.277 133.17 173.571 133.132 172.918 133.048V134.697Z" fill="#333333"/>
<defs>
<clipPath id="clip0_60_1719">
<rect width="64" height="64" fill="white" transform="translate(112)"/>
</clipPath>
</defs>
</svg>
