<svg width="240" height="220" viewBox="0 0 240 220" fill="none" xmlns="http://www.w3.org/2000/svg">
<g clip-path="url(#clip0_61_2148)">
<path d="M99.9531 28.3711L120 21.875L140.047 28.3711" stroke="black" stroke-width="3" stroke-linecap="round" stroke-linejoin="round"/>
<path d="M84.9882 24.3829L75.0195 44.3282C74.649 45.069 74.5878 45.9266 74.8493 46.7125C75.1108 47.4984 75.6736 48.1484 76.414 48.5196L87.1875 53.9063L99.9531 28.3711L89.1835 22.9883C88.8165 22.8043 88.4169 22.6943 88.0074 22.6648C87.5978 22.6353 87.1865 22.6868 86.7969 22.8163C86.4073 22.9458 86.047 23.1508 85.7367 23.4196C85.4264 23.6884 85.172 24.0157 84.9882 24.3829Z" fill="#FFEDB8" stroke="black" stroke-width="3" stroke-linecap="round" stroke-linejoin="round"/>
<path d="M152.812 53.9063L163.586 48.5196C164.326 48.1484 164.889 47.4984 165.151 46.7125C165.412 45.9266 165.351 45.069 164.98 44.3282L155.012 24.3829C154.828 24.0157 154.574 23.6884 154.263 23.4196C153.953 23.1508 153.593 22.9458 153.203 22.8163C152.813 22.6868 152.402 22.6353 151.993 22.6648C151.583 22.6943 151.183 22.8043 150.816 22.9883L140.047 28.3711L152.812 53.9063Z" fill="#FFEDB8" stroke="black" stroke-width="3" stroke-linecap="round" stroke-linejoin="round"/>
<path d="M139.281 28.125H126.25L108.414 45.4258C108.082 45.7572 107.83 46.1589 107.674 46.6013C107.519 47.0436 107.465 47.5152 107.517 47.9811C107.569 48.4471 107.725 48.8954 107.973 49.2929C108.222 49.6903 108.557 50.0268 108.953 50.2773C115.793 54.6484 125.078 54.3477 132.5 46.875L146.562 60.1562L152.812 53.9062" stroke="black" stroke-width="3" stroke-linecap="round" stroke-linejoin="round"/>
<path d="M146.562 60.1562L131.719 75L107.5 68.75L87.1875 53.9062" stroke="black" stroke-width="3" stroke-linecap="round" stroke-linejoin="round"/>
<path d="M111.77 84.375L101.379 81.6914L91.875 74.75" stroke="black" stroke-width="3" stroke-linecap="round" stroke-linejoin="round"/>
</g>
<line y1="121" x2="108" y2="121" stroke="#E8E8E8" stroke-width="2"/>
<rect x="108.5" y="108.5" width="27" height="27" rx="13.5" fill="white"/>
<rect x="108.5" y="108.5" width="27" height="27" rx="13.5" stroke="#E8E8E8"/>
<rect x="114" y="114" width="16" height="16" rx="8" fill="#FFD401"/>
<path d="M88.4534 181.288C87.1094 181.288 85.8214 181.112 84.5894 180.76C83.3574 180.392 82.3654 179.92 81.6134 179.344L82.9334 176.416C83.6534 176.928 84.5014 177.352 85.4774 177.688C86.4694 178.008 87.4694 178.168 88.4774 178.168C89.2454 178.168 89.8614 178.096 90.3254 177.952C90.8054 177.792 91.1574 177.576 91.3814 177.304C91.6054 177.032 91.7174 176.72 91.7174 176.368C91.7174 175.92 91.5414 175.568 91.1894 175.312C90.8374 175.04 90.3734 174.824 89.7974 174.664C89.2214 174.488 88.5814 174.328 87.8774 174.184C87.1894 174.024 86.4934 173.832 85.7894 173.608C85.1014 173.384 84.4694 173.096 83.8934 172.744C83.3174 172.392 82.8454 171.928 82.4774 171.352C82.1254 170.776 81.9494 170.04 81.9494 169.144C81.9494 168.184 82.2054 167.312 82.7174 166.528C83.2454 165.728 84.0294 165.096 85.0694 164.632C86.1254 164.152 87.4454 163.912 89.0294 163.912C90.0854 163.912 91.1254 164.04 92.1494 164.296C93.1734 164.536 94.0774 164.904 94.8614 165.4L93.6614 168.352C92.8774 167.904 92.0934 167.576 91.3094 167.368C90.5254 167.144 89.7574 167.032 89.0054 167.032C88.2534 167.032 87.6374 167.12 87.1574 167.296C86.6774 167.472 86.3334 167.704 86.1254 167.992C85.9174 168.264 85.8134 168.584 85.8134 168.952C85.8134 169.384 85.9894 169.736 86.3414 170.008C86.6934 170.264 87.1574 170.472 87.7334 170.632C88.3094 170.792 88.9414 170.952 89.6294 171.112C90.3334 171.272 91.0294 171.456 91.7174 171.664C92.4214 171.872 93.0614 172.152 93.6374 172.504C94.2134 172.856 94.6774 173.32 95.0294 173.896C95.3974 174.472 95.5814 175.2 95.5814 176.08C95.5814 177.024 95.3174 177.888 94.7894 178.672C94.2614 179.456 93.4694 180.088 92.4134 180.568C91.3734 181.048 90.0534 181.288 88.4534 181.288ZM103.254 181.192C101.734 181.192 100.55 180.808 99.7021 180.04C98.8541 179.256 98.4301 178.096 98.4301 176.56V165.232H102.174V176.512C102.174 177.056 102.318 177.48 102.606 177.784C102.894 178.072 103.286 178.216 103.782 178.216C104.374 178.216 104.878 178.056 105.294 177.736L106.302 180.376C105.918 180.648 105.454 180.856 104.91 181C104.382 181.128 103.83 181.192 103.254 181.192ZM96.4381 171.256V168.376H105.39V171.256H96.4381ZM114.413 181.192C112.941 181.192 111.645 180.904 110.525 180.328C109.421 179.752 108.565 178.968 107.957 177.976C107.349 176.968 107.045 175.824 107.045 174.544C107.045 173.248 107.341 172.104 107.933 171.112C108.541 170.104 109.365 169.32 110.405 168.76C111.445 168.184 112.621 167.896 113.933 167.896C115.197 167.896 116.333 168.168 117.341 168.712C118.365 169.24 119.173 170.008 119.765 171.016C120.357 172.008 120.653 173.2 120.653 174.592C120.653 174.736 120.645 174.904 120.629 175.096C120.613 175.272 120.597 175.44 120.581 175.6H110.093V173.416H118.613L117.173 174.064C117.173 173.392 117.037 172.808 116.765 172.312C116.493 171.816 116.117 171.432 115.637 171.16C115.157 170.872 114.597 170.728 113.957 170.728C113.317 170.728 112.749 170.872 112.253 171.16C111.773 171.432 111.397 171.824 111.125 172.336C110.853 172.832 110.717 173.424 110.717 174.112V174.688C110.717 175.392 110.869 176.016 111.173 176.56C111.493 177.088 111.933 177.496 112.493 177.784C113.069 178.056 113.741 178.192 114.509 178.192C115.197 178.192 115.797 178.088 116.309 177.88C116.837 177.672 117.317 177.36 117.749 176.944L119.741 179.104C119.149 179.776 118.405 180.296 117.509 180.664C116.613 181.016 115.581 181.192 114.413 181.192ZM130.778 181.192C129.69 181.192 128.738 180.952 127.922 180.472C127.106 179.992 126.466 179.264 126.002 178.288C125.554 177.296 125.33 176.048 125.33 174.544C125.33 173.024 125.546 171.776 125.978 170.8C126.41 169.824 127.034 169.096 127.85 168.616C128.666 168.136 129.642 167.896 130.778 167.896C131.994 167.896 133.082 168.176 134.042 168.736C135.018 169.28 135.786 170.048 136.346 171.04C136.922 172.032 137.21 173.2 137.21 174.544C137.21 175.904 136.922 177.08 136.346 178.072C135.786 179.064 135.018 179.832 134.042 180.376C133.082 180.92 131.994 181.192 130.778 181.192ZM123.146 185.656V168.088H126.722V170.728L126.65 174.568L126.89 178.384V185.656H123.146ZM130.13 178.12C130.754 178.12 131.306 177.976 131.786 177.688C132.282 177.4 132.674 176.992 132.962 176.464C133.266 175.92 133.418 175.28 133.418 174.544C133.418 173.792 133.266 173.152 132.962 172.624C132.674 172.096 132.282 171.688 131.786 171.4C131.306 171.112 130.754 170.968 130.13 170.968C129.506 170.968 128.946 171.112 128.45 171.4C127.954 171.688 127.562 172.096 127.274 172.624C126.986 173.152 126.842 173.792 126.842 174.544C126.842 175.28 126.986 175.92 127.274 176.464C127.562 176.992 127.954 177.4 128.45 177.688C128.946 177.976 129.506 178.12 130.13 178.12ZM151.433 181.288C150.265 181.288 149.105 181.136 147.953 180.832C146.817 180.512 145.841 180.064 145.025 179.488L146.561 176.512C147.201 176.976 147.937 177.344 148.769 177.616C149.617 177.888 150.473 178.024 151.337 178.024C152.313 178.024 153.081 177.832 153.641 177.448C154.201 177.064 154.481 176.528 154.481 175.84C154.481 175.408 154.369 175.024 154.145 174.688C153.921 174.352 153.521 174.096 152.945 173.92C152.385 173.744 151.593 173.656 150.569 173.656H146.273L147.137 164.2H157.385V167.32H148.529L150.545 165.544L149.945 172.288L147.929 170.512H151.481C153.145 170.512 154.481 170.744 155.489 171.208C156.513 171.656 157.257 172.272 157.721 173.056C158.185 173.84 158.417 174.728 158.417 175.72C158.417 176.712 158.169 177.632 157.673 178.48C157.177 179.312 156.409 179.992 155.369 180.52C154.345 181.032 153.033 181.288 151.433 181.288Z" fill="#7D5FFF"/>
<path d="M96.4961 197.426V209.027H93.7676V204.408H90.7168V202.195H93.7676V197.426H96.4961ZM89.8145 209.457C93.9824 209.479 96.5391 210.854 96.5605 213.238C96.5391 215.602 93.9824 216.998 89.8145 216.998C85.6465 216.998 83.0898 215.602 83.0898 213.238C83.0898 210.854 85.6465 209.479 89.8145 209.457ZM89.8145 211.562C87.2148 211.562 85.8184 212.1 85.8184 213.238C85.8184 214.355 87.2148 214.914 89.8145 214.914C92.4141 214.914 93.832 214.355 93.832 213.238C93.832 212.1 92.4141 211.562 89.8145 211.562ZM91.2969 198.607V200.799H87.4082C87.4727 203.076 88.8477 205.375 91.8984 206.385L90.5449 208.533C88.3857 207.835 86.9033 206.417 86.0547 204.645C85.1846 206.643 83.627 208.254 81.3066 209.049L79.8887 206.879C83.1006 205.805 84.54 203.248 84.6152 200.799H80.6836V198.607H91.2969ZM114.564 198.5V199.811C114.564 201.443 114.564 203.699 114.049 206.922H116.863V209.135H112.631V216.977H109.902V209.135H105.842V216.977H103.092V209.135H99.0312V206.922H111.277C111.771 204.279 111.857 202.249 111.9 200.713H101.158V198.5H114.564ZM129.217 203.334C129.217 206.277 130.27 209.264 133.084 210.746L131.559 212.766C129.797 211.863 128.626 210.284 127.949 208.361C127.262 210.456 126.091 212.207 124.318 213.217L122.771 211.154C125.543 209.564 126.617 206.363 126.639 203.334V202.969H123.395V200.734H126.639V198.092H129.195V200.734H132.418V202.969H129.217V203.334ZM140.174 197.426V216.977H137.553V207.18H135.898V216.074H133.299V197.705H135.898V204.945H137.553V197.426H140.174ZM159.961 206.686V208.877H142.129V206.686H146.146V204.344C144.718 203.71 143.912 202.743 143.912 201.486C143.912 199.123 146.684 197.705 151.045 197.705C155.363 197.705 158.135 199.123 158.156 201.486C158.146 202.754 157.308 203.742 155.857 204.365V206.686H159.961ZM151.023 209.908C155.256 209.908 157.812 211.154 157.834 213.41C157.812 215.709 155.256 216.955 151.023 216.955C146.727 216.955 144.17 215.709 144.17 213.41C144.17 211.154 146.727 209.908 151.023 209.908ZM151.023 211.971C148.316 211.971 146.941 212.443 146.963 213.41C146.941 214.42 148.316 214.914 151.023 214.914C153.666 214.914 155.062 214.42 155.084 213.41C155.062 212.443 153.666 211.971 151.023 211.971ZM151.045 199.811C148.273 199.811 146.748 200.391 146.77 201.486C146.748 202.561 148.273 203.098 151.045 203.098C153.773 203.098 155.32 202.561 155.32 201.486C155.32 200.391 153.773 199.811 151.045 199.811ZM148.918 206.686H153.129V205.053C152.484 205.128 151.786 205.16 151.045 205.16C150.282 205.16 149.573 205.128 148.918 205.031V206.686Z" fill="#333333"/>
<defs>
<clipPath id="clip0_61_2148">
<rect width="100" height="100" fill="white" transform="translate(70)"/>
</clipPath>
</defs>
</svg>
