<svg width="241" height="220" viewBox="0 0 241 220" fill="none" xmlns="http://www.w3.org/2000/svg">
<g clip-path="url(#clip0_61_2082)">
<path d="M154.375 18.75H85.625C83.8991 18.75 82.5 20.1491 82.5 21.875V78.125C82.5 79.8509 83.8991 81.25 85.625 81.25H154.375C156.101 81.25 157.5 79.8509 157.5 78.125V21.875C157.5 20.1491 156.101 18.75 154.375 18.75Z" fill="white" stroke="black" stroke-width="3" stroke-linecap="round" stroke-linejoin="round"/>
<path d="M120 65.625C128.629 65.625 135.625 58.6294 135.625 50C135.625 41.3706 128.629 34.375 120 34.375C111.371 34.375 104.375 41.3706 104.375 50C104.375 58.6294 111.371 65.625 120 65.625Z" fill="white" stroke="black" stroke-width="3" stroke-linecap="round" stroke-linejoin="round"/>
<path d="M94.7969 81.2501C97.1247 76.5575 100.717 72.6082 105.168 69.8473C109.62 67.0864 114.754 65.6235 119.992 65.6235C125.23 65.6235 130.365 67.0864 134.816 69.8473C139.268 72.6082 142.86 76.5575 145.188 81.2501" fill="#FFEDB8"/>
<path d="M94.7969 81.2501C97.1247 76.5575 100.717 72.6082 105.168 69.8473C109.62 67.0864 114.754 65.6235 119.992 65.6235C125.23 65.6235 130.365 67.0864 134.816 69.8473C139.268 72.6082 142.86 76.5575 145.188 81.2501" stroke="black" stroke-width="3" stroke-linecap="round" stroke-linejoin="round"/>
</g>
<rect x="104.5" y="108.5" width="27" height="27" rx="13.5" fill="white"/>
<rect x="104.5" y="108.5" width="27" height="27" rx="13.5" stroke="#E8E8E8"/>
<rect x="110" y="114" width="16" height="16" rx="8" fill="#FFD401"/>
<path d="M240.707 122.707C241.098 122.317 241.098 121.683 240.707 121.293L234.343 114.929C233.953 114.538 233.319 114.538 232.929 114.929C232.538 115.319 232.538 115.953 232.929 116.343L238.586 122L232.929 127.657C232.538 128.047 232.538 128.681 232.929 129.071C233.319 129.462 233.953 129.462 234.343 129.071L240.707 122.707ZM132 123H240V121H132V123Z" fill="#E8E8E8"/>
<path d="M90.8909 181.288C89.5469 181.288 88.2589 181.112 87.0269 180.76C85.7949 180.392 84.8029 179.92 84.0509 179.344L85.3709 176.416C86.0909 176.928 86.9389 177.352 87.9149 177.688C88.9069 178.008 89.9069 178.168 90.9149 178.168C91.6829 178.168 92.2989 178.096 92.7629 177.952C93.2429 177.792 93.5949 177.576 93.8189 177.304C94.0429 177.032 94.1549 176.72 94.1549 176.368C94.1549 175.92 93.9789 175.568 93.6269 175.312C93.2749 175.04 92.8109 174.824 92.2349 174.664C91.6589 174.488 91.0189 174.328 90.3149 174.184C89.6269 174.024 88.9309 173.832 88.2269 173.608C87.5389 173.384 86.9069 173.096 86.3309 172.744C85.7549 172.392 85.2829 171.928 84.9149 171.352C84.5629 170.776 84.3869 170.04 84.3869 169.144C84.3869 168.184 84.6429 167.312 85.1549 166.528C85.6829 165.728 86.4669 165.096 87.5069 164.632C88.5629 164.152 89.8829 163.912 91.4669 163.912C92.5229 163.912 93.5629 164.04 94.5869 164.296C95.6109 164.536 96.5149 164.904 97.2989 165.4L96.0989 168.352C95.3149 167.904 94.5309 167.576 93.7469 167.368C92.9629 167.144 92.1949 167.032 91.4429 167.032C90.6909 167.032 90.0749 167.12 89.5949 167.296C89.1149 167.472 88.7709 167.704 88.5629 167.992C88.3549 168.264 88.2509 168.584 88.2509 168.952C88.2509 169.384 88.4269 169.736 88.7789 170.008C89.1309 170.264 89.5949 170.472 90.1709 170.632C90.7469 170.792 91.3789 170.952 92.0669 171.112C92.7709 171.272 93.4669 171.456 94.1549 171.664C94.8589 171.872 95.4989 172.152 96.0749 172.504C96.6509 172.856 97.1149 173.32 97.4669 173.896C97.8349 174.472 98.0189 175.2 98.0189 176.08C98.0189 177.024 97.7549 177.888 97.2269 178.672C96.6989 179.456 95.9069 180.088 94.8509 180.568C93.8109 181.048 92.4909 181.288 90.8909 181.288ZM105.692 181.192C104.172 181.192 102.988 180.808 102.14 180.04C101.292 179.256 100.868 178.096 100.868 176.56V165.232H104.612V176.512C104.612 177.056 104.756 177.48 105.044 177.784C105.332 178.072 105.724 178.216 106.22 178.216C106.812 178.216 107.316 178.056 107.732 177.736L108.74 180.376C108.356 180.648 107.892 180.856 107.348 181C106.82 181.128 106.268 181.192 105.692 181.192ZM98.8756 171.256V168.376H107.828V171.256H98.8756ZM116.851 181.192C115.379 181.192 114.083 180.904 112.963 180.328C111.859 179.752 111.003 178.968 110.395 177.976C109.787 176.968 109.483 175.824 109.483 174.544C109.483 173.248 109.779 172.104 110.371 171.112C110.979 170.104 111.803 169.32 112.843 168.76C113.883 168.184 115.059 167.896 116.371 167.896C117.635 167.896 118.771 168.168 119.779 168.712C120.803 169.24 121.611 170.008 122.203 171.016C122.795 172.008 123.091 173.2 123.091 174.592C123.091 174.736 123.083 174.904 123.067 175.096C123.051 175.272 123.035 175.44 123.019 175.6H112.531V173.416H121.051L119.611 174.064C119.611 173.392 119.475 172.808 119.203 172.312C118.931 171.816 118.555 171.432 118.075 171.16C117.595 170.872 117.035 170.728 116.395 170.728C115.755 170.728 115.187 170.872 114.691 171.16C114.211 171.432 113.835 171.824 113.563 172.336C113.291 172.832 113.155 173.424 113.155 174.112V174.688C113.155 175.392 113.307 176.016 113.611 176.56C113.931 177.088 114.371 177.496 114.931 177.784C115.507 178.056 116.179 178.192 116.947 178.192C117.635 178.192 118.235 178.088 118.747 177.88C119.275 177.672 119.755 177.36 120.187 176.944L122.179 179.104C121.587 179.776 120.843 180.296 119.947 180.664C119.051 181.016 118.019 181.192 116.851 181.192ZM133.215 181.192C132.127 181.192 131.175 180.952 130.359 180.472C129.543 179.992 128.903 179.264 128.439 178.288C127.991 177.296 127.767 176.048 127.767 174.544C127.767 173.024 127.983 171.776 128.415 170.8C128.847 169.824 129.471 169.096 130.287 168.616C131.103 168.136 132.079 167.896 133.215 167.896C134.431 167.896 135.519 168.176 136.479 168.736C137.455 169.28 138.223 170.048 138.783 171.04C139.359 172.032 139.647 173.2 139.647 174.544C139.647 175.904 139.359 177.08 138.783 178.072C138.223 179.064 137.455 179.832 136.479 180.376C135.519 180.92 134.431 181.192 133.215 181.192ZM125.583 185.656V168.088H129.159V170.728L129.087 174.568L129.327 178.384V185.656H125.583ZM132.567 178.12C133.191 178.12 133.743 177.976 134.223 177.688C134.719 177.4 135.111 176.992 135.399 176.464C135.703 175.92 135.855 175.28 135.855 174.544C135.855 173.792 135.703 173.152 135.399 172.624C135.111 172.096 134.719 171.688 134.223 171.4C133.743 171.112 133.191 170.968 132.567 170.968C131.943 170.968 131.383 171.112 130.887 171.4C130.391 171.688 129.999 172.096 129.711 172.624C129.423 173.152 129.279 173.792 129.279 174.544C129.279 175.28 129.423 175.92 129.711 176.464C129.999 176.992 130.391 177.4 130.887 177.688C131.383 177.976 131.943 178.12 132.567 178.12ZM150.751 181V165.64L152.431 167.32H147.391V164.2H154.639V181H150.751Z" fill="#7D5FFF"/>
<path d="M77.9014 201.852C77.9014 205.525 79.3838 209.092 82.6494 210.51L80.9736 212.701C78.8037 211.638 77.3535 209.693 76.5479 207.287C75.6885 209.844 74.1846 211.938 71.9502 213.045L70.2314 210.811C73.583 209.307 75.1084 205.525 75.1299 201.852V198.93H77.9014V201.852ZM87.0107 197.426V217.02H84.3037V205.783H80.458V203.57H84.3037V197.426H87.0107ZM99.6221 199.016V200.498H103.274V197.447H106.003V211.67H103.274V206.879H99.6221V208.533H90.3408V199.016H99.6221ZM93.0693 201.186V206.406H96.9365V201.186H93.0693ZM106.411 214.441V216.633H92.9834V210.316H95.7549V214.441H106.411ZM99.6221 204.709H103.274V202.711H99.6221V204.709ZM129.979 197.447V211.498H127.229V197.447H129.979ZM130.495 214.441V216.633H116.874V210.08H119.646V214.441H130.495ZM119.259 198.693C122.267 198.693 124.608 200.756 124.608 203.613C124.608 206.535 122.267 208.576 119.259 208.576C116.251 208.576 113.909 206.535 113.909 203.613C113.909 200.756 116.251 198.693 119.259 198.693ZM119.259 201.078C117.733 201.057 116.573 202.023 116.595 203.613C116.573 205.246 117.733 206.191 119.259 206.191C120.741 206.191 121.901 205.246 121.901 203.613C121.901 202.023 120.741 201.057 119.259 201.078ZM149.122 197.426V217.02H146.415V206.535H142.978V204.322H146.415V197.426H149.122ZM142.655 199.059V201.271H136.253V204.516H141.946V206.664H136.253V210.359C138.96 210.338 141.13 210.241 143.558 209.865L143.837 212.057C140.979 212.486 138.423 212.594 135.071 212.594H133.524V199.059H142.655ZM169.511 208.49V210.703H165.472V216.977H162.722V210.703H158.446V216.977H155.632V210.703H151.614V208.49H169.511ZM156.427 198.156V200.326H164.634V198.156H167.384V206.643H153.72V198.156H156.427ZM156.427 204.473H164.634V202.475H156.427V204.473Z" fill="#333333"/>
<defs>
<clipPath id="clip0_61_2082">
<rect width="100" height="100" fill="white" transform="translate(70)"/>
</clipPath>
</defs>
</svg>
