<svg width="32" height="22" viewBox="0 0 32 22" fill="none" xmlns="http://www.w3.org/2000/svg">
<g clip-path="url(#clip0_1_996)">
<path d="M31.99 0H0V22H31.99V0Z" fill="white"/>
<path d="M11.55 0H0V11.71H11.55V0Z" fill="#002768"/>
<path d="M31.9998 17.63V19.2C21.4298 19.2 10.8598 19.2 0.289766 19.2C0.209766 19.2 0.129766 19.22 0.0497656 19.18C0.0397656 19.18 0.0297656 19.16 0.00976562 19.15V17.68C0.00976562 17.68 0.0297656 17.66 0.0497656 17.65C0.0797656 17.63 0.119766 17.63 0.159766 17.63C0.199766 17.63 0.249766 17.63 0.289766 17.63C10.8598 17.63 21.4298 17.63 31.9998 17.63Z" fill="#FE0000"/>
<path d="M31.9998 14.61V16.18C21.4298 16.18 10.8598 16.18 0.289766 16.18C0.209766 16.18 0.129766 16.2 0.0497656 16.16C0.0397656 16.16 0.0297656 16.14 0.00976562 16.13V14.66C0.00976562 14.66 0.0297656 14.64 0.0497656 14.63C0.0797656 14.61 0.119766 14.61 0.159766 14.61C0.199766 14.61 0.249766 14.61 0.289766 14.61C10.8598 14.61 21.4298 14.61 31.9998 14.61Z" fill="#FE0000"/>
<path d="M32 20.6V22H0C0 21.55 0 21.1 0 20.64C0.01 20.63 0.02 20.62 0.04 20.61C0.07 20.59 0.11 20.59 0.15 20.59C0.19 20.59 0.24 20.59 0.28 20.59C10.85 20.59 21.42 20.59 31.99 20.59L32 20.6Z" fill="#FE0000"/>
<path d="M31.9998 11.67V13.24C21.4298 13.24 10.8598 13.24 0.289766 13.24C0.209766 13.24 0.129766 13.26 0.0497656 13.22C0.0397656 13.22 0.0297656 13.2 0.00976562 13.19V11.72C1.42977 11.72 2.83977 11.72 4.25977 11.72C6.60977 11.72 8.96976 11.72 11.3198 11.72C11.3798 11.72 11.4498 11.72 11.5098 11.72C11.5098 11.72 11.5298 11.7 11.5398 11.7C11.5598 11.69 11.5898 11.68 11.6198 11.68C11.6698 11.68 11.7198 11.68 11.7698 11.68C18.5098 11.68 25.2598 11.68 31.9998 11.68V11.67Z" fill="#FE0000"/>
<path d="M32 0V1.52H30.94C24.55 1.52 18.16 1.52 11.77 1.52C11.7 1.52 11.62 1.55 11.55 1.5C11.54 1.5 11.53 1.48 11.52 1.47C11.52 1.11 11.52 0.76 11.52 0.4C11.52 0.27 11.52 0.13 11.52 0C18.35 0 25.18 0 32.01 0L32 0Z" fill="#FE0000"/>
<path d="M32.0001 2.90002V4.40002H30.9101C24.5301 4.40002 18.1501 4.40002 11.7701 4.40002C11.7001 4.40002 11.6201 4.42002 11.5501 4.38002C11.5401 4.38002 11.5301 4.36002 11.5201 4.35002C11.5201 3.88002 11.5101 3.42002 11.5201 2.95002C11.5201 2.94002 11.5401 2.93002 11.5501 2.92002C11.5701 2.90002 11.6101 2.90002 11.6401 2.90002C11.7001 2.90002 11.7501 2.90002 11.8101 2.90002C18.5401 2.90002 25.2701 2.90002 32.0001 2.90002Z" fill="#FE0000"/>
<path d="M32.0002 8.71997V10.22H30.9202C24.5402 10.22 18.1502 10.22 11.7702 10.22C11.7002 10.22 11.6202 10.24 11.5502 10.2C11.5402 10.2 11.5302 10.18 11.5202 10.17C11.5102 9.69997 11.5102 9.23997 11.5202 8.76997C11.5202 8.75997 11.5402 8.74997 11.5502 8.73997C11.5702 8.72997 11.6002 8.71997 11.6402 8.71997C11.6902 8.71997 11.7402 8.71997 11.8002 8.71997C18.5302 8.71997 25.2702 8.71997 32.0002 8.71997Z" fill="#FE0000"/>
<path d="M32.0002 5.84998V7.34998H30.9002C24.5202 7.34998 18.1502 7.34998 11.7702 7.34998C11.7002 7.34998 11.6202 7.37998 11.5502 7.32998C11.5402 7.32998 11.5302 7.30998 11.5202 7.29998C11.5102 6.83998 11.5102 6.36998 11.5202 5.89998C11.5202 5.88998 11.5402 5.87998 11.5502 5.86998C11.5702 5.84998 11.6002 5.84998 11.6402 5.84998C11.7002 5.84998 11.7502 5.84998 11.8102 5.84998C18.5402 5.84998 25.2702 5.84998 32.0002 5.84998Z" fill="#FE0000"/>
<path d="M8.89992 11.15C8.73992 11.03 8.59992 10.94 8.45992 10.83C8.36992 10.76 8.30992 10.75 8.20992 10.83C8.07992 10.94 7.92992 11.04 7.76992 11.16C7.82992 10.94 7.87992 10.74 7.93992 10.55C7.95992 10.49 7.93992 10.46 7.89992 10.43C7.74992 10.31 7.59992 10.2 7.41992 10.06C7.63992 10.06 7.81992 10.06 8.00992 10.06C8.08992 10.06 8.12992 10.03 8.14992 9.95C8.19992 9.77 8.25992 9.6 8.32992 9.38C8.38992 9.56 8.43992 9.71 8.48992 9.86C8.54992 10.05 8.54992 10.05 8.73992 10.05C8.89992 10.05 9.05992 10.05 9.24992 10.05C9.07992 10.19 8.92992 10.3 8.77992 10.41C8.71992 10.45 8.70992 10.49 8.72992 10.56C8.78992 10.75 8.83992 10.94 8.89992 11.16V11.15Z" fill="#FEFEFE"/>
<path d="M1.00014 11.11C1.04014 10.95 1.08014 10.78 1.14014 10.62C1.18014 10.5 1.17014 10.43 1.06014 10.36C0.920137 10.27 0.800137 10.16 0.640137 10.04C0.860137 10.04 1.05014 10.04 1.25014 10.04C1.32014 10.04 1.35014 10.02 1.37014 9.94999C1.43014 9.75999 1.49014 9.57999 1.56014 9.35999C1.63014 9.57999 1.70014 9.75999 1.75014 9.94999C1.77014 10.01 1.80014 10.03 1.86014 10.03C2.05014 10.03 2.24014 10.03 2.47014 10.03C2.30014 10.17 2.15014 10.28 2.00014 10.39C1.94014 10.43 1.93014 10.47 1.95014 10.54C2.01014 10.73 2.06014 10.92 2.12014 11.14C1.95014 11.01 1.79014 10.9 1.64014 10.79C1.58014 10.74 1.54014 10.74 1.48014 10.79C1.33014 10.91 1.18014 11.01 1.03014 11.12C1.03014 11.12 1.02014 11.12 1.01014 11.11H1.00014Z" fill="#FEFEFD"/>
<path d="M4.04004 10.04C4.27004 10.04 4.46004 10.04 4.65004 10.04C4.71004 10.04 4.74004 10.02 4.76004 9.96C4.82004 9.77 4.88004 9.59 4.95004 9.37C5.02004 9.59 5.09004 9.77 5.14004 9.96C5.16004 10.02 5.19004 10.04 5.25004 10.04C5.44004 10.04 5.63004 10.04 5.86004 10.04C5.69004 10.17 5.56004 10.28 5.41004 10.39C5.34004 10.44 5.32004 10.49 5.35004 10.58C5.41004 10.76 5.45004 10.95 5.51004 11.15C5.35004 11.03 5.20004 10.93 5.06004 10.82C4.98004 10.76 4.93004 10.75 4.85004 10.82C4.71004 10.94 4.55004 11.04 4.39004 11.16C4.45004 10.95 4.50004 10.76 4.56004 10.56C4.58004 10.49 4.56004 10.46 4.51004 10.42C4.36004 10.31 4.21004 10.19 4.04004 10.05V10.04Z" fill="#FDFEFD"/>
<path d="M10.0499 7.19C10.0999 7.35 10.1599 7.51 10.2099 7.67C10.2399 7.79 10.2899 7.84 10.4199 7.83C10.5899 7.82 10.7599 7.83 10.9599 7.83C10.7899 7.96 10.6399 8.08 10.4899 8.19C10.4299 8.23 10.4199 8.27 10.4399 8.34C10.4999 8.53 10.5499 8.72 10.5999 8.93C10.4299 8.8 10.2699 8.69 10.1199 8.57C10.0599 8.53 10.0199 8.53 9.96988 8.57C9.81988 8.69 9.65988 8.8 9.47988 8.93C9.53988 8.72 9.57988 8.53 9.63988 8.34C9.65988 8.26 9.63988 8.22 9.58988 8.18C9.43988 8.07 9.29988 7.96 9.12988 7.82C9.34988 7.82 9.53988 7.82 9.72988 7.82C9.79988 7.82 9.82988 7.8 9.84988 7.73C9.89988 7.55 9.96988 7.37 10.0299 7.19H10.0499Z" fill="#FEFEFD"/>
<path d="M8.34994 4.97998C8.40994 5.15998 8.46994 5.34998 8.52994 5.52998C8.54994 5.59998 8.57994 5.61998 8.64994 5.61998C8.83994 5.61998 9.02994 5.61998 9.24994 5.61998C9.07994 5.75998 8.92994 5.86998 8.77994 5.98998C8.72994 6.02998 8.71994 6.05998 8.73994 6.11998C8.79994 6.30998 8.84994 6.50998 8.90994 6.72998C8.73994 6.60998 8.58994 6.49998 8.43994 6.37998C8.37994 6.32998 8.32994 6.31998 8.26994 6.37998C8.11994 6.49998 7.95994 6.60998 7.78994 6.72998C7.84994 6.51998 7.89994 6.31998 7.95994 6.12998C7.97994 6.05998 7.95994 6.02998 7.90994 5.98998C7.75994 5.87998 7.60994 5.75998 7.43994 5.62998C7.65994 5.62998 7.83994 5.62998 8.02994 5.62998C8.10994 5.62998 8.14994 5.59998 8.16994 5.51998C8.21994 5.33998 8.27994 5.16998 8.33994 4.98998H8.35994L8.34994 4.97998Z" fill="#FEFEFE"/>
<path d="M7.21023 8.93002C7.03023 8.80002 6.87023 8.69001 6.72023 8.57001C6.67023 8.53001 6.63023 8.53001 6.58023 8.57001C6.42023 8.69001 6.26023 8.80002 6.09023 8.93002C6.15023 8.72002 6.19023 8.53002 6.25023 8.35002C6.28023 8.26002 6.25023 8.22001 6.19023 8.17001C6.05023 8.06001 5.91023 7.95001 5.74023 7.82001C5.96023 7.82001 6.15023 7.82001 6.34023 7.82001C6.41023 7.82001 6.44023 7.80001 6.46023 7.73001C6.51023 7.54001 6.58023 7.36001 6.65023 7.14001C6.71023 7.32001 6.76023 7.48001 6.81023 7.63001C6.85023 7.75001 6.9269 7.81001 7.04023 7.81001C7.20023 7.81001 7.36023 7.81001 7.56023 7.81001C7.39023 7.94001 7.24023 8.06001 7.09023 8.17001C7.03023 8.21001 7.02023 8.25001 7.04023 8.32001C7.10023 8.51001 7.15023 8.70001 7.20023 8.92001L7.21023 8.93002Z" fill="#FEFEFE"/>
<path d="M2.4399 5.64001C2.2999 5.75001 2.1599 5.86001 2.0199 5.96001C1.9499 6.01001 1.9299 6.06001 1.9599 6.15001C2.0199 6.33001 2.0599 6.51001 2.1199 6.72001C1.9399 6.59001 1.7799 6.48001 1.6299 6.36001C1.5799 6.32001 1.5399 6.32001 1.4799 6.36001C1.3299 6.48001 1.1699 6.59001 0.989902 6.72001C1.0499 6.50001 1.0999 6.31001 1.1599 6.11001C1.1799 6.05001 1.1599 6.01001 1.1199 5.98001C0.969902 5.87001 0.819902 5.75001 0.649902 5.61001C0.799902 5.61001 0.919902 5.61001 1.0299 5.61001C1.1299 5.61001 1.2599 5.65001 1.3299 5.59001C1.3999 5.53001 1.3999 5.40001 1.4399 5.31001C1.4799 5.20001 1.5199 5.08001 1.5599 4.95001C1.6299 5.16001 1.6999 5.35001 1.7499 5.54001C1.7699 5.60001 1.7999 5.62001 1.8599 5.62001C2.0499 5.62001 2.2399 5.62001 2.4399 5.62001V5.64001Z" fill="#FEFEFE"/>
<path d="M2.34008 7.83002C2.55008 7.83002 2.73008 7.83002 2.91008 7.83002C3.00008 7.83002 3.05008 7.81002 3.07008 7.71002C3.12008 7.53002 3.18008 7.36002 3.25008 7.15002C3.32008 7.36002 3.38008 7.55002 3.44008 7.74002C3.46008 7.81002 3.49008 7.83002 3.56008 7.83002C3.75008 7.83002 3.94008 7.83002 4.16008 7.83002C4.00008 7.95002 3.87008 8.07002 3.73008 8.16002C3.64008 8.22002 3.61008 8.28002 3.65008 8.39002C3.71008 8.56002 3.75008 8.73002 3.80008 8.93002C3.65008 8.82002 3.51008 8.72002 3.38008 8.63002C3.28674 8.56336 3.19008 8.56336 3.09008 8.63002C2.96008 8.73002 2.82008 8.83002 2.68008 8.93002C2.74008 8.72002 2.79008 8.52002 2.85008 8.33002C2.87008 8.26002 2.85008 8.23002 2.80008 8.19002C2.65008 8.08002 2.50008 7.96002 2.33008 7.83002H2.34008Z" fill="#FEFEFE"/>
<path d="M6.65023 2.72998C6.72023 2.94998 6.79023 3.13998 6.85023 3.32998C6.87023 3.38998 6.90023 3.40998 6.95023 3.39998C7.14023 3.39998 7.34023 3.39998 7.56023 3.39998C7.40023 3.52998 7.26023 3.63998 7.11023 3.74998C7.04023 3.79998 7.02023 3.84998 7.05023 3.92998C7.11023 4.10998 7.15023 4.29998 7.21023 4.50998C7.04023 4.37998 6.88023 4.27998 6.73023 4.15998C6.67023 4.10998 6.63023 4.10998 6.57023 4.15998C6.42023 4.27998 6.26023 4.38998 6.09023 4.50998C6.15023 4.30998 6.19023 4.12998 6.25023 3.94998C6.28023 3.85998 6.27023 3.80998 6.19023 3.74998C6.05023 3.64998 5.91023 3.53998 5.74023 3.40998C5.94023 3.40998 6.10023 3.39998 6.27023 3.40998C6.40023 3.41998 6.45023 3.37998 6.49023 3.24998C6.53023 3.08998 6.59023 2.92998 6.66023 2.72998H6.65023Z" fill="#FEFEFE"/>
<path d="M5.50979 6.72001C5.32979 6.59001 5.16978 6.48001 5.01978 6.36001C4.96978 6.32001 4.92979 6.32001 4.87979 6.36001C4.71979 6.48001 4.56978 6.59001 4.38978 6.72001C4.44978 6.51001 4.48979 6.32001 4.54979 6.14001C4.57979 6.06001 4.54978 6.02001 4.48978 5.97001C4.33978 5.86001 4.19979 5.75001 4.02979 5.62001C4.19979 5.62001 4.33978 5.62001 4.47978 5.62001C4.63978 5.62001 4.74645 5.54335 4.79979 5.39001C4.84979 5.25001 4.88978 5.12001 4.93979 4.95001C5.00978 5.16001 5.06978 5.34001 5.11978 5.52001C5.13978 5.60001 5.17979 5.62001 5.25979 5.62001C5.43979 5.62001 5.62978 5.62001 5.84978 5.62001C5.67978 5.75001 5.52978 5.87001 5.38978 5.98001C5.32978 6.02001 5.31979 6.06001 5.33979 6.13001C5.39979 6.32001 5.44979 6.51001 5.50979 6.73001V6.72001Z" fill="#FEFEFE"/>
<path d="M9.12988 3.41C9.33988 3.41 9.51988 3.41 9.69988 3.41C9.79988 3.41 9.83988 3.38 9.86988 3.28C9.91988 3.11 9.97988 2.94 10.0399 2.75C10.0999 2.86 10.1199 2.96 10.1599 3.06C10.1999 3.17 10.1999 3.33 10.2799 3.38C10.3599 3.43 10.4999 3.4 10.6199 3.4C10.7199 3.4 10.8299 3.4 10.9599 3.4C10.7899 3.53 10.6499 3.65 10.4999 3.76C10.4399 3.8 10.4299 3.84 10.4499 3.91C10.5099 4.1 10.5599 4.29 10.6099 4.5C10.4299 4.37 10.2799 4.26 10.1199 4.14C10.0699 4.1 10.0299 4.09 9.97988 4.14C9.82988 4.26 9.66988 4.37 9.48988 4.5C9.54988 4.3 9.58988 4.11 9.64988 3.93C9.67988 3.84 9.66988 3.79 9.58988 3.73C9.44988 3.63 9.30988 3.52 9.14988 3.39L9.12988 3.41Z" fill="#FEFEFD"/>
<path d="M1.5599 0.52002C1.6299 0.74002 1.6999 0.93002 1.7499 1.12002C1.7699 1.18002 1.7899 1.20002 1.8499 1.20002C2.0399 1.20002 2.2399 1.20002 2.4599 1.20002C2.2899 1.33002 2.1499 1.45002 1.9999 1.56002C1.9399 1.61002 1.9299 1.65002 1.9499 1.72002C2.0099 1.90002 2.0599 2.09002 2.1199 2.31002C1.9399 2.18002 1.7799 2.07002 1.6299 1.95002C1.5799 1.91002 1.5399 1.91002 1.4899 1.95002C1.3399 2.07002 1.1799 2.18002 0.999902 2.31002C1.0599 2.10002 1.0999 1.91002 1.1599 1.73002C1.1799 1.65002 1.1799 1.61002 1.1099 1.56002C0.959902 1.46002 0.829902 1.34002 0.649902 1.21002C0.819902 1.21002 0.959902 1.21002 1.0999 1.21002C1.2599 1.21002 1.36324 1.13335 1.4099 0.98002C1.4599 0.84002 1.4999 0.70002 1.5499 0.54002L1.5599 0.52002Z" fill="#FEFEFE"/>
<path d="M8.35018 0.559998C8.41018 0.749998 8.48018 0.929998 8.53018 1.12C8.55018 1.19 8.58018 1.2 8.64018 1.2C8.83018 1.2 9.02018 1.2 9.25018 1.2C9.08018 1.33 8.93018 1.45 8.78018 1.56C8.73018 1.6 8.71018 1.63 8.73018 1.7C8.79018 1.89 8.84018 2.09 8.90018 2.3C8.73018 2.18 8.58018 2.08 8.44018 1.96C8.36018 1.89 8.31018 1.9 8.23018 1.96C8.09018 2.07 7.94018 2.18 7.78018 2.3C7.84018 2.09 7.88018 1.9 7.94018 1.72C7.97018 1.64 7.94018 1.6 7.88018 1.55C7.74018 1.44 7.60018 1.33 7.43018 1.2C7.63018 1.2 7.81018 1.2 7.98018 1.2C8.08018 1.2 8.13018 1.18 8.16018 1.07C8.20018 0.899998 8.27018 0.729998 8.32018 0.559998H8.34018H8.35018Z" fill="#FEFEFE"/>
<path d="M2.34008 3.40999C2.56008 3.40999 2.76008 3.40999 2.95008 3.40999C3.01008 3.40999 3.04008 3.38999 3.06008 3.32999C3.12008 3.13999 3.18008 2.95999 3.25008 2.73999C3.32008 2.95999 3.39008 3.13999 3.44008 3.32999C3.46008 3.39999 3.49008 3.41999 3.56008 3.41999C3.75008 3.41999 3.94008 3.41999 4.16008 3.41999C3.99008 3.54999 3.85008 3.66999 3.71008 3.76999C3.64008 3.81999 3.63008 3.86999 3.65008 3.94999C3.71008 4.12999 3.75008 4.31999 3.81008 4.52999C3.64008 4.40999 3.49008 4.29999 3.34008 4.18999C3.27008 4.13999 3.22008 4.12999 3.15008 4.18999C3.01008 4.30999 2.85008 4.40999 2.68008 4.52999C2.74008 4.31999 2.79008 4.11999 2.84008 3.93999C2.86008 3.86999 2.84008 3.82999 2.79008 3.78999C2.64008 3.67999 2.50008 3.55999 2.33008 3.42999L2.34008 3.40999Z" fill="#FEFEFE"/>
<path d="M4.04004 1.20003C4.25004 1.20003 4.43004 1.20003 4.61004 1.20003C4.70004 1.20003 4.74004 1.18003 4.77004 1.09003C4.82004 0.910029 4.88004 0.740029 4.95004 0.530029C5.02004 0.730029 5.08004 0.910029 5.13004 1.08003C5.16004 1.17003 5.20004 1.21003 5.30004 1.21003C5.48004 1.20003 5.65004 1.21003 5.86004 1.21003C5.69004 1.34003 5.55004 1.46003 5.40004 1.57003C5.34004 1.61003 5.33004 1.65003 5.35004 1.72003C5.41004 1.91003 5.46004 2.10003 5.52004 2.31003C5.35004 2.18003 5.19004 2.07003 5.04004 1.96003C4.98004 1.92003 4.94004 1.91003 4.88004 1.96003C4.73004 2.08003 4.57004 2.19003 4.40004 2.31003C4.46004 2.10003 4.51004 1.90003 4.56004 1.71003C4.58004 1.64003 4.57004 1.61003 4.52004 1.57003C4.37004 1.46003 4.23004 1.34003 4.05004 1.21003L4.04004 1.20003Z" fill="#FEFEFE"/>
</g>
<defs>
<clipPath id="clip0_1_996">
<rect width="32" height="22" fill="white"/>
</clipPath>
</defs>
</svg>
