<svg width="33" height="23" viewBox="0 0 33 23" fill="none" xmlns="http://www.w3.org/2000/svg">
<g clip-path="url(#clip0_760_832)">
<path d="M32.6792 0.583252H0.679199V22.5833H32.6792V0.583252Z" fill="#F7F7F7"/>
<path d="M10.1692 0.583252H0.679199V22.5833H10.1692V0.583252Z" fill="#FE0000"/>
<path d="M32.679 0.583252H23.189V22.5833H32.679V0.583252Z" fill="#FE0000"/>
<path d="M16.909 14.8933L19.899 15.2333C19.899 15.2333 19.579 14.5933 19.589 14.3133C19.619 13.9533 22.569 11.6033 22.569 11.6033C22.569 11.6033 21.869 11.2733 21.839 11.1433C21.689 10.8033 22.379 9.07326 22.379 9.07326C22.379 9.07326 20.789 9.55326 20.609 9.45326C20.429 9.35326 20.199 8.51326 20.199 8.51326C20.199 8.51326 18.839 10.1533 18.709 10.2133C18.579 10.2833 18.339 10.1733 18.359 9.92326C18.379 9.67326 19.029 6.57326 19.029 6.57326C19.029 6.57326 18.069 7.15326 17.879 7.11326C17.459 6.95326 16.669 4.96326 16.669 4.96326C16.669 4.96326 15.879 6.95326 15.459 7.11326C15.269 7.15326 14.309 6.57326 14.309 6.57326C14.309 6.57326 14.949 9.67326 14.979 9.92326C15.009 10.1733 14.759 10.2833 14.629 10.2133C14.499 10.1433 13.139 8.51326 13.139 8.51326C13.139 8.51326 12.909 9.36326 12.729 9.45326C12.549 9.54326 10.959 9.07326 10.959 9.07326C10.959 9.07326 11.649 10.8033 11.499 11.1433C11.469 11.2733 10.769 11.6033 10.769 11.6033C10.769 11.6033 13.709 13.9533 13.749 14.3133C13.769 14.5933 13.439 15.2333 13.439 15.2333C13.439 15.2333 16.399 14.8833 16.429 14.8933C16.469 14.8933 16.499 14.9333 16.529 15.0033C16.559 15.0733 16.399 18.2033 16.399 18.2033H16.929C16.929 18.2033 16.779 15.0833 16.799 15.0033C16.829 14.9333 16.859 14.8933 16.899 14.8933H16.909Z" fill="#FB0708"/>
</g>
<defs>
<clipPath id="clip0_760_832">
<rect width="32" height="22" fill="white" transform="translate(0.679199 0.583252)"/>
</clipPath>
</defs>
</svg>
