<svg width="288" height="148" viewBox="0 0 288 148" fill="none" xmlns="http://www.w3.org/2000/svg">
<g clip-path="url(#clip0_60_1687)">
<path d="M144 42.1602C149.523 42.1602 154 37.683 154 32.1602C154 26.6373 149.523 22.1602 144 22.1602C138.477 22.1602 134 26.6373 134 32.1602C134 37.683 138.477 42.1602 144 42.1602Z" stroke="black" stroke-width="3" stroke-linecap="round" stroke-linejoin="round"/>
<path d="M130 50.1602C131.436 47.7238 133.482 45.7043 135.938 44.3012C138.393 42.8982 141.172 42.1602 144 42.1602C146.828 42.1602 149.607 42.8982 152.062 44.3012C154.518 45.7043 156.564 47.7238 158 50.1602" stroke="black" stroke-width="3" stroke-linecap="round" stroke-linejoin="round"/>
<path d="M147.84 20.1346C148.461 19.0095 149.344 18.0505 150.414 17.3388C151.484 16.6272 152.709 16.1837 153.987 16.046C155.265 15.9084 156.557 16.0805 157.754 16.5479C158.951 17.0153 160.018 17.7642 160.864 18.7312C161.71 19.6982 162.311 20.8549 162.616 22.1033C162.921 23.3517 162.92 24.6552 162.614 25.9034C162.309 27.1515 161.707 28.3077 160.859 29.274C160.012 30.2402 158.945 30.9882 157.747 31.4546C161.33 32.2296 164.72 35.1646 166.847 37.9971" stroke="black" stroke-width="3" stroke-linecap="round" stroke-linejoin="round"/>
<path d="M120.96 38.0008C123.087 35.1683 126.475 32.2333 130.06 31.4583C128.861 30.9932 127.792 30.2461 126.944 29.2803C126.095 28.3144 125.492 27.1583 125.185 25.9098C124.878 24.6613 124.877 23.3572 125.181 22.108C125.485 20.8588 126.085 19.7013 126.932 18.7335C127.778 17.7657 128.845 17.0161 130.043 16.5484C131.24 16.0806 132.533 15.9083 133.811 16.0461C135.09 16.1839 136.316 16.6278 137.386 17.3402C138.456 18.0525 139.339 19.0123 139.96 20.1383" stroke="black" stroke-width="3" stroke-linecap="round" stroke-linejoin="round"/>
</g>
<path d="M112.489 109.288C111.145 109.288 109.857 109.112 108.625 108.76C107.393 108.392 106.401 107.92 105.649 107.344L106.969 104.416C107.689 104.928 108.537 105.352 109.513 105.688C110.505 106.008 111.505 106.168 112.513 106.168C113.281 106.168 113.897 106.096 114.361 105.952C114.841 105.792 115.193 105.576 115.417 105.304C115.641 105.032 115.753 104.72 115.753 104.368C115.753 103.92 115.577 103.568 115.225 103.312C114.873 103.04 114.409 102.824 113.833 102.664C113.257 102.488 112.617 102.328 111.913 102.184C111.225 102.024 110.529 101.832 109.825 101.608C109.137 101.384 108.505 101.096 107.929 100.744C107.353 100.392 106.881 99.928 106.513 99.352C106.161 98.776 105.985 98.04 105.985 97.144C105.985 96.184 106.241 95.312 106.753 94.528C107.281 93.728 108.065 93.096 109.105 92.632C110.161 92.152 111.481 91.912 113.065 91.912C114.121 91.912 115.161 92.04 116.185 92.296C117.209 92.536 118.113 92.904 118.897 93.4L117.697 96.352C116.913 95.904 116.129 95.576 115.345 95.368C114.561 95.144 113.793 95.032 113.041 95.032C112.289 95.032 111.673 95.12 111.193 95.296C110.713 95.472 110.369 95.704 110.161 95.992C109.953 96.264 109.849 96.584 109.849 96.952C109.849 97.384 110.025 97.736 110.377 98.008C110.729 98.264 111.193 98.472 111.769 98.632C112.345 98.792 112.977 98.952 113.665 99.112C114.369 99.272 115.065 99.456 115.753 99.664C116.457 99.872 117.097 100.152 117.673 100.504C118.249 100.856 118.713 101.32 119.065 101.896C119.433 102.472 119.617 103.2 119.617 104.08C119.617 105.024 119.353 105.888 118.825 106.672C118.297 107.456 117.505 108.088 116.449 108.568C115.409 109.048 114.089 109.288 112.489 109.288ZM127.289 109.192C125.769 109.192 124.585 108.808 123.737 108.04C122.889 107.256 122.465 106.096 122.465 104.56V93.232H126.209V104.512C126.209 105.056 126.353 105.48 126.641 105.784C126.929 106.072 127.321 106.216 127.817 106.216C128.409 106.216 128.913 106.056 129.329 105.736L130.337 108.376C129.953 108.648 129.489 108.856 128.945 109C128.417 109.128 127.865 109.192 127.289 109.192ZM120.473 99.256V96.376H129.425V99.256H120.473ZM138.449 109.192C136.977 109.192 135.681 108.904 134.561 108.328C133.457 107.752 132.601 106.968 131.993 105.976C131.385 104.968 131.081 103.824 131.081 102.544C131.081 101.248 131.377 100.104 131.969 99.112C132.577 98.104 133.401 97.32 134.441 96.76C135.481 96.184 136.657 95.896 137.969 95.896C139.233 95.896 140.369 96.168 141.377 96.712C142.401 97.24 143.209 98.008 143.801 99.016C144.393 100.008 144.689 101.2 144.689 102.592C144.689 102.736 144.681 102.904 144.665 103.096C144.649 103.272 144.633 103.44 144.617 103.6H134.129V101.416H142.648L141.209 102.064C141.209 101.392 141.073 100.808 140.801 100.312C140.529 99.816 140.153 99.432 139.673 99.16C139.193 98.872 138.633 98.728 137.993 98.728C137.353 98.728 136.785 98.872 136.289 99.16C135.809 99.432 135.433 99.824 135.161 100.336C134.889 100.832 134.753 101.424 134.753 102.112V102.688C134.753 103.392 134.905 104.016 135.209 104.56C135.529 105.088 135.969 105.496 136.529 105.784C137.105 106.056 137.777 106.192 138.545 106.192C139.233 106.192 139.833 106.088 140.345 105.88C140.873 105.672 141.353 105.36 141.785 104.944L143.777 107.104C143.185 107.776 142.441 108.296 141.545 108.664C140.649 109.016 139.617 109.192 138.449 109.192ZM154.813 109.192C153.725 109.192 152.773 108.952 151.957 108.472C151.141 107.992 150.501 107.264 150.037 106.288C149.589 105.296 149.365 104.048 149.365 102.544C149.365 101.024 149.581 99.776 150.013 98.8C150.445 97.824 151.069 97.096 151.885 96.616C152.701 96.136 153.677 95.896 154.813 95.896C156.029 95.896 157.117 96.176 158.077 96.736C159.053 97.28 159.821 98.048 160.381 99.04C160.957 100.032 161.245 101.2 161.245 102.544C161.245 103.904 160.957 105.08 160.381 106.072C159.821 107.064 159.053 107.832 158.077 108.376C157.117 108.92 156.029 109.192 154.813 109.192ZM147.181 113.656V96.088H150.757V98.728L150.685 102.568L150.925 106.384V113.656H147.181ZM154.165 106.12C154.789 106.12 155.341 105.976 155.821 105.688C156.317 105.4 156.709 104.992 156.997 104.464C157.301 103.92 157.453 103.28 157.453 102.544C157.453 101.792 157.301 101.152 156.997 100.624C156.709 100.096 156.317 99.688 155.821 99.4C155.341 99.112 154.789 98.968 154.165 98.968C153.541 98.968 152.981 99.112 152.485 99.4C151.989 99.688 151.597 100.096 151.309 100.624C151.021 101.152 150.877 101.792 150.877 102.544C150.877 103.28 151.021 103.92 151.309 104.464C151.597 104.992 151.989 105.4 152.485 105.688C152.981 105.976 153.541 106.12 154.165 106.12ZM175.204 109.288C174.036 109.288 172.876 109.136 171.724 108.832C170.572 108.512 169.596 108.064 168.796 107.488L170.308 104.512C170.948 104.976 171.692 105.344 172.54 105.616C173.388 105.888 174.244 106.024 175.108 106.024C176.084 106.024 176.852 105.832 177.412 105.448C177.972 105.064 178.252 104.536 178.252 103.864C178.252 103.224 178.004 102.72 177.508 102.352C177.012 101.984 176.212 101.8 175.108 101.8H173.332V99.232L178.012 93.928L178.444 95.32H169.636V92.2H181.396V94.72L176.74 100.024L174.772 98.896H175.9C177.964 98.896 179.524 99.36 180.58 100.288C181.636 101.216 182.164 102.408 182.164 103.864C182.164 104.808 181.916 105.696 181.42 106.528C180.924 107.344 180.164 108.008 179.14 108.52C178.116 109.032 176.804 109.288 175.204 109.288Z" fill="#7D5FFF"/>
<path d="M89.6875 143L89.666 140.658L95.252 135.523C96.7129 134.127 97.4863 133.268 97.4863 132.043C97.4863 130.668 96.4336 129.809 95.0156 129.809C93.5547 129.809 92.6094 130.732 92.6094 132.215H89.5371C89.5156 129.164 91.7715 127.23 95.0586 127.23C98.3887 127.23 100.602 129.121 100.602 131.828C100.602 133.59 99.7422 135.051 96.541 137.951L94.1777 140.25V140.336H100.816V143H89.6875ZM105.006 141.109C103.996 141.109 103.18 140.293 103.201 139.305C103.18 138.316 103.996 137.521 105.006 137.521C105.951 137.521 106.789 138.316 106.789 139.305C106.789 140.293 105.951 141.109 105.006 141.109ZM105.006 132.924C103.996 132.924 103.18 132.107 103.201 131.119C103.18 130.131 103.996 129.336 105.006 129.336C105.951 129.336 106.789 130.131 106.789 131.119C106.789 132.107 105.951 132.924 105.006 132.924ZM116.027 127.445V143H112.783V130.518H112.697L109.131 132.752V129.895L112.977 127.445H116.027ZM140.434 125.447V136.469H137.684V125.447H140.434ZM140.434 137.371V144.762H127.328V137.371H140.434ZM130.035 139.541V142.57H137.748V139.541H130.035ZM131.561 128.047C131.539 130.432 132.979 132.688 136.137 133.676L134.805 135.76C132.57 135.104 131.023 133.751 130.143 132C129.251 133.901 127.661 135.405 125.33 136.125L123.998 133.977C127.264 132.988 128.703 130.496 128.703 128.047V126.156H131.561V128.047ZM160.908 135.051V137.264H143.076V135.051H160.908ZM153.324 125.49V127.166H159.189V129.336H153.561C153.926 130.689 155.935 131.946 160.113 132.193L159.297 134.277C155.688 134.02 153.195 132.967 151.971 131.398C150.735 132.967 148.243 134.02 144.666 134.277L143.828 132.193C148.007 131.946 149.994 130.689 150.381 129.336H144.795V127.166H150.617V125.49H153.324ZM151.971 138.338C156.246 138.338 158.76 139.498 158.781 141.646C158.76 143.816 156.246 144.977 151.971 144.977C147.674 144.977 145.117 143.816 145.117 141.646C145.117 139.498 147.674 138.338 151.971 138.338ZM151.971 140.357C149.242 140.357 147.889 140.766 147.91 141.646C147.889 142.549 149.242 142.957 151.971 142.957C154.635 142.957 156.01 142.549 156.031 141.646C156.01 140.766 154.635 140.357 151.971 140.357ZM172.188 127.016V128.498H175.84V125.447H178.568V139.67H175.84V134.879H172.188V136.533H162.906V127.016H172.188ZM165.635 129.186V134.406H169.502V129.186H165.635ZM178.977 142.441V144.633H165.549V138.316H168.32V142.441H178.977ZM172.188 132.709H175.84V130.711H172.188V132.709ZM197.582 125.426V136.125H194.854V132.043H191.76V129.809H194.854V125.426H197.582ZM187.248 136.877V138.725H194.854V136.877H197.582V144.762H184.541V136.877H187.248ZM187.248 142.57H194.854V140.83H187.248V142.57ZM192.383 126.307V128.541H188.516C188.623 130.722 190.02 132.988 192.984 133.955L191.631 136.061C189.461 135.341 187.968 133.944 187.119 132.172C186.26 134.138 184.702 135.717 182.393 136.469L180.996 134.32C184.068 133.3 185.54 130.926 185.701 128.541H181.77V126.307H192.383Z" fill="#333333"/>
<defs>
<clipPath id="clip0_60_1687">
<rect width="64" height="64" fill="white" transform="translate(112)"/>
</clipPath>
</defs>
</svg>
