<svg width="288" height="140" viewBox="0 0 288 140" fill="none" xmlns="http://www.w3.org/2000/svg">
<g clip-path="url(#clip0_60_1656)">
<path d="M166 12H122C120.895 12 120 12.8954 120 14V50C120 51.1046 120.895 52 122 52H166C167.105 52 168 51.1046 168 50V14C168 12.8954 167.105 12 166 12Z" fill="white" stroke="black" stroke-width="3" stroke-linecap="round" stroke-linejoin="round"/>
<path d="M144 42C149.523 42 154 37.5228 154 32C154 26.4772 149.523 22 144 22C138.477 22 134 26.4772 134 32C134 37.5228 138.477 42 144 42Z" fill="white" stroke="black" stroke-width="3" stroke-linecap="round" stroke-linejoin="round"/>
<path d="M127.87 52C129.36 48.9968 131.659 46.4692 134.508 44.7023C137.357 42.9353 140.643 41.999 143.995 41.999C147.348 41.999 150.633 42.9353 153.482 44.7023C156.331 46.4692 158.63 48.9968 160.12 52" fill="#FFEDB8"/>
<path d="M127.87 52C129.36 48.9968 131.659 46.4692 134.508 44.7023C137.357 42.9353 140.643 41.999 143.995 41.999C147.348 41.999 150.633 42.9353 153.482 44.7023C156.331 46.4692 158.63 48.9968 160.12 52" stroke="black" stroke-width="3" stroke-linecap="round" stroke-linejoin="round"/>
</g>
<path d="M114.891 101.288C113.547 101.288 112.259 101.112 111.027 100.76C109.795 100.392 108.803 99.92 108.051 99.344L109.371 96.416C110.091 96.928 110.939 97.352 111.915 97.688C112.907 98.008 113.907 98.168 114.915 98.168C115.683 98.168 116.299 98.096 116.763 97.952C117.243 97.792 117.595 97.576 117.819 97.304C118.043 97.032 118.155 96.72 118.155 96.368C118.155 95.92 117.979 95.568 117.627 95.312C117.275 95.04 116.811 94.824 116.235 94.664C115.659 94.488 115.019 94.328 114.315 94.184C113.627 94.024 112.931 93.832 112.227 93.608C111.539 93.384 110.907 93.096 110.331 92.744C109.755 92.392 109.283 91.928 108.915 91.352C108.563 90.776 108.387 90.04 108.387 89.144C108.387 88.184 108.643 87.312 109.155 86.528C109.683 85.728 110.467 85.096 111.507 84.632C112.563 84.152 113.883 83.912 115.467 83.912C116.523 83.912 117.563 84.04 118.587 84.296C119.611 84.536 120.515 84.904 121.299 85.4L120.099 88.352C119.315 87.904 118.531 87.576 117.747 87.368C116.963 87.144 116.195 87.032 115.443 87.032C114.691 87.032 114.075 87.12 113.595 87.296C113.115 87.472 112.771 87.704 112.563 87.992C112.355 88.264 112.251 88.584 112.251 88.952C112.251 89.384 112.427 89.736 112.779 90.008C113.131 90.264 113.595 90.472 114.171 90.632C114.747 90.792 115.379 90.952 116.067 91.112C116.771 91.272 117.467 91.456 118.155 91.664C118.859 91.872 119.499 92.152 120.075 92.504C120.651 92.856 121.115 93.32 121.467 93.896C121.835 94.472 122.019 95.2 122.019 96.08C122.019 97.024 121.755 97.888 121.227 98.672C120.699 99.456 119.907 100.088 118.851 100.568C117.811 101.048 116.491 101.288 114.891 101.288ZM129.692 101.192C128.172 101.192 126.988 100.808 126.14 100.04C125.292 99.256 124.868 98.096 124.868 96.56V85.232H128.612V96.512C128.612 97.056 128.756 97.48 129.044 97.784C129.332 98.072 129.724 98.216 130.22 98.216C130.812 98.216 131.316 98.056 131.732 97.736L132.74 100.376C132.356 100.648 131.892 100.856 131.348 101C130.82 101.128 130.268 101.192 129.692 101.192ZM122.876 91.256V88.376H131.828V91.256H122.876ZM140.851 101.192C139.379 101.192 138.083 100.904 136.963 100.328C135.859 99.752 135.003 98.968 134.395 97.976C133.787 96.968 133.483 95.824 133.483 94.544C133.483 93.248 133.779 92.104 134.371 91.112C134.979 90.104 135.803 89.32 136.843 88.76C137.883 88.184 139.059 87.896 140.371 87.896C141.635 87.896 142.771 88.168 143.779 88.712C144.803 89.24 145.611 90.008 146.203 91.016C146.795 92.008 147.091 93.2 147.091 94.592C147.091 94.736 147.083 94.904 147.067 95.096C147.051 95.272 147.035 95.44 147.019 95.6H136.531V93.416H145.051L143.611 94.064C143.611 93.392 143.475 92.808 143.203 92.312C142.931 91.816 142.555 91.432 142.075 91.16C141.595 90.872 141.035 90.728 140.395 90.728C139.755 90.728 139.187 90.872 138.691 91.16C138.211 91.432 137.835 91.824 137.563 92.336C137.291 92.832 137.155 93.424 137.155 94.112V94.688C137.155 95.392 137.307 96.016 137.611 96.56C137.931 97.088 138.371 97.496 138.931 97.784C139.507 98.056 140.179 98.192 140.947 98.192C141.635 98.192 142.235 98.088 142.747 97.88C143.275 97.672 143.755 97.36 144.187 96.944L146.179 99.104C145.587 99.776 144.843 100.296 143.947 100.664C143.051 101.016 142.019 101.192 140.851 101.192ZM157.215 101.192C156.127 101.192 155.175 100.952 154.359 100.472C153.543 99.992 152.903 99.264 152.439 98.288C151.991 97.296 151.767 96.048 151.767 94.544C151.767 93.024 151.983 91.776 152.415 90.8C152.847 89.824 153.471 89.096 154.287 88.616C155.103 88.136 156.079 87.896 157.215 87.896C158.431 87.896 159.519 88.176 160.479 88.736C161.455 89.28 162.223 90.048 162.783 91.04C163.359 92.032 163.647 93.2 163.647 94.544C163.647 95.904 163.359 97.08 162.783 98.072C162.223 99.064 161.455 99.832 160.479 100.376C159.519 100.92 158.431 101.192 157.215 101.192ZM149.583 105.656V88.088H153.159V90.728L153.087 94.568L153.327 98.384V105.656H149.583ZM156.567 98.12C157.191 98.12 157.743 97.976 158.223 97.688C158.719 97.4 159.111 96.992 159.399 96.464C159.703 95.92 159.855 95.28 159.855 94.544C159.855 93.792 159.703 93.152 159.399 92.624C159.111 92.096 158.719 91.688 158.223 91.4C157.743 91.112 157.191 90.968 156.567 90.968C155.943 90.968 155.383 91.112 154.887 91.4C154.391 91.688 153.999 92.096 153.711 92.624C153.423 93.152 153.279 93.792 153.279 94.544C153.279 95.28 153.423 95.92 153.711 96.464C153.999 96.992 154.391 97.4 154.887 97.688C155.383 97.976 155.943 98.12 156.567 98.12ZM174.751 101V85.64L176.431 87.32H171.391V84.2H178.639V101H174.751Z" fill="#7D5FFF"/>
<path d="M101.901 121.852C101.901 125.525 103.384 129.092 106.649 130.51L104.974 132.701C102.804 131.638 101.354 129.693 100.548 127.287C99.6885 129.844 98.1846 131.938 95.9502 133.045L94.2314 130.811C97.583 129.307 99.1084 125.525 99.1299 121.852V118.93H101.901V121.852ZM111.011 117.426V137.02H108.304V125.783H104.458V123.57H108.304V117.426H111.011ZM123.622 119.016V120.498H127.274V117.447H130.003V131.67H127.274V126.879H123.622V128.533H114.341V119.016H123.622ZM117.069 121.186V126.406H120.937V121.186H117.069ZM130.411 134.441V136.633H116.983V130.316H119.755V134.441H130.411ZM123.622 124.709H127.274V122.711H123.622V124.709ZM153.979 117.447V131.498H151.229V117.447H153.979ZM154.495 134.441V136.633H140.874V130.08H143.646V134.441H154.495ZM143.259 118.693C146.267 118.693 148.608 120.756 148.608 123.613C148.608 126.535 146.267 128.576 143.259 128.576C140.251 128.576 137.909 126.535 137.909 123.613C137.909 120.756 140.251 118.693 143.259 118.693ZM143.259 121.078C141.733 121.057 140.573 122.023 140.595 123.613C140.573 125.246 141.733 126.191 143.259 126.191C144.741 126.191 145.901 125.246 145.901 123.613C145.901 122.023 144.741 121.057 143.259 121.078ZM173.122 117.426V137.02H170.415V126.535H166.978V124.322H170.415V117.426H173.122ZM166.655 119.059V121.271H160.253V124.516H165.946V126.664H160.253V130.359C162.96 130.338 165.13 130.241 167.558 129.865L167.837 132.057C164.979 132.486 162.423 132.594 159.071 132.594H157.524V119.059H166.655ZM193.511 128.49V130.703H189.472V136.977H186.722V130.703H182.446V136.977H179.632V130.703H175.614V128.49H193.511ZM180.427 118.156V120.326H188.634V118.156H191.384V126.643H177.72V118.156H180.427ZM180.427 124.473H188.634V122.475H180.427V124.473Z" fill="#333333"/>
<defs>
<clipPath id="clip0_60_1656">
<rect width="64" height="64" fill="white" transform="translate(112)"/>
</clipPath>
</defs>
</svg>
