<svg width="240" height="220" viewBox="0 0 240 220" fill="none" xmlns="http://www.w3.org/2000/svg">
<g clip-path="url(#clip0_60_1418)">
<path d="M120 65.875C128.629 65.875 135.625 58.8794 135.625 50.25C135.625 41.6206 128.629 34.625 120 34.625C111.371 34.625 104.375 41.6206 104.375 50.25C104.375 58.8794 111.371 65.875 120 65.875Z" stroke="black" stroke-width="3" stroke-linecap="round" stroke-linejoin="round"/>
<path d="M98.125 78.375C100.368 74.5682 103.566 71.4127 107.403 69.2204C111.239 67.0281 115.581 65.875 120 65.875C124.419 65.875 128.761 67.0281 132.597 69.2204C136.434 71.4127 139.632 74.5682 141.875 78.375" stroke="black" stroke-width="3" stroke-linecap="round" stroke-linejoin="round"/>
<path d="M126 31.4603C126.97 29.7023 128.35 28.2039 130.021 27.0919C131.693 25.9799 133.609 25.2871 135.605 25.0719C137.601 24.8568 139.62 25.1258 141.49 25.8561C143.361 26.5864 145.028 27.7566 146.35 29.2675C147.673 30.7785 148.612 32.5857 149.088 34.5364C149.564 36.4871 149.563 38.5237 149.085 40.474C148.607 42.4243 147.667 44.2307 146.343 45.7405C145.019 47.2504 143.351 48.4191 141.48 49.1478C147.078 50.3587 152.375 54.9447 155.699 59.3704" stroke="black" stroke-width="3" stroke-linecap="round" stroke-linejoin="round"/>
<path d="M84 59.3762C87.3242 54.9505 92.6172 50.3645 98.2188 49.1536C96.3459 48.4269 94.6758 47.2596 93.3498 45.7505C92.0239 44.2413 91.0812 42.4348 90.6017 40.484C90.1221 38.5333 90.1198 36.4956 90.5949 34.5437C91.07 32.5918 92.0085 30.7832 93.331 29.271C94.6535 27.7589 96.3209 26.5877 98.1921 25.8568C100.063 25.1259 102.083 24.8567 104.08 25.072C106.078 25.2874 107.994 25.981 109.666 27.094C111.338 28.2071 112.718 29.7067 113.688 31.4661" stroke="black" stroke-width="3" stroke-linecap="round" stroke-linejoin="round"/>
</g>
<line y1="121" x2="106" y2="121" stroke="#E8E8E8" stroke-width="2"/>
<rect x="106.5" y="108.5" width="27" height="27" rx="13.5" fill="white"/>
<rect x="106.5" y="108.5" width="27" height="27" rx="13.5" stroke="#E8E8E8"/>
<rect x="112" y="114" width="16" height="16" rx="8" fill="#FFD401"/>
<line x1="134" y1="121" x2="240" y2="121" stroke="#E8E8E8" stroke-width="2"/>
<path d="M88.4886 181.288C87.1446 181.288 85.8566 181.112 84.6246 180.76C83.3926 180.392 82.4006 179.92 81.6486 179.344L82.9686 176.416C83.6886 176.928 84.5366 177.352 85.5126 177.688C86.5046 178.008 87.5046 178.168 88.5126 178.168C89.2806 178.168 89.8966 178.096 90.3606 177.952C90.8406 177.792 91.1926 177.576 91.4166 177.304C91.6406 177.032 91.7526 176.72 91.7526 176.368C91.7526 175.92 91.5766 175.568 91.2246 175.312C90.8726 175.04 90.4086 174.824 89.8326 174.664C89.2566 174.488 88.6166 174.328 87.9126 174.184C87.2246 174.024 86.5286 173.832 85.8246 173.608C85.1366 173.384 84.5046 173.096 83.9286 172.744C83.3526 172.392 82.8806 171.928 82.5126 171.352C82.1606 170.776 81.9846 170.04 81.9846 169.144C81.9846 168.184 82.2406 167.312 82.7526 166.528C83.2806 165.728 84.0646 165.096 85.1046 164.632C86.1606 164.152 87.4806 163.912 89.0646 163.912C90.1206 163.912 91.1606 164.04 92.1846 164.296C93.2086 164.536 94.1126 164.904 94.8966 165.4L93.6966 168.352C92.9126 167.904 92.1286 167.576 91.3446 167.368C90.5606 167.144 89.7926 167.032 89.0406 167.032C88.2886 167.032 87.6726 167.12 87.1926 167.296C86.7126 167.472 86.3686 167.704 86.1606 167.992C85.9526 168.264 85.8486 168.584 85.8486 168.952C85.8486 169.384 86.0246 169.736 86.3766 170.008C86.7286 170.264 87.1926 170.472 87.7686 170.632C88.3446 170.792 88.9766 170.952 89.6646 171.112C90.3686 171.272 91.0646 171.456 91.7526 171.664C92.4566 171.872 93.0966 172.152 93.6726 172.504C94.2486 172.856 94.7126 173.32 95.0646 173.896C95.4326 174.472 95.6166 175.2 95.6166 176.08C95.6166 177.024 95.3526 177.888 94.8246 178.672C94.2966 179.456 93.5046 180.088 92.4486 180.568C91.4086 181.048 90.0886 181.288 88.4886 181.288ZM103.289 181.192C101.769 181.192 100.585 180.808 99.7373 180.04C98.8893 179.256 98.4653 178.096 98.4653 176.56V165.232H102.209V176.512C102.209 177.056 102.353 177.48 102.641 177.784C102.929 178.072 103.321 178.216 103.817 178.216C104.409 178.216 104.913 178.056 105.329 177.736L106.337 180.376C105.953 180.648 105.489 180.856 104.945 181C104.417 181.128 103.865 181.192 103.289 181.192ZM96.4733 171.256V168.376H105.425V171.256H96.4733ZM114.449 181.192C112.977 181.192 111.681 180.904 110.561 180.328C109.457 179.752 108.601 178.968 107.993 177.976C107.385 176.968 107.081 175.824 107.081 174.544C107.081 173.248 107.377 172.104 107.969 171.112C108.577 170.104 109.401 169.32 110.441 168.76C111.481 168.184 112.657 167.896 113.969 167.896C115.233 167.896 116.369 168.168 117.377 168.712C118.401 169.24 119.209 170.008 119.801 171.016C120.393 172.008 120.689 173.2 120.689 174.592C120.689 174.736 120.681 174.904 120.665 175.096C120.649 175.272 120.633 175.44 120.617 175.6H110.129V173.416H118.648L117.209 174.064C117.209 173.392 117.073 172.808 116.801 172.312C116.529 171.816 116.153 171.432 115.673 171.16C115.193 170.872 114.633 170.728 113.993 170.728C113.353 170.728 112.785 170.872 112.289 171.16C111.809 171.432 111.433 171.824 111.161 172.336C110.889 172.832 110.753 173.424 110.753 174.112V174.688C110.753 175.392 110.905 176.016 111.209 176.56C111.529 177.088 111.969 177.496 112.529 177.784C113.105 178.056 113.777 178.192 114.545 178.192C115.233 178.192 115.833 178.088 116.345 177.88C116.873 177.672 117.353 177.36 117.785 176.944L119.777 179.104C119.185 179.776 118.441 180.296 117.545 180.664C116.649 181.016 115.617 181.192 114.449 181.192ZM130.813 181.192C129.725 181.192 128.773 180.952 127.957 180.472C127.141 179.992 126.501 179.264 126.037 178.288C125.589 177.296 125.365 176.048 125.365 174.544C125.365 173.024 125.581 171.776 126.013 170.8C126.445 169.824 127.069 169.096 127.885 168.616C128.701 168.136 129.677 167.896 130.813 167.896C132.029 167.896 133.117 168.176 134.077 168.736C135.053 169.28 135.821 170.048 136.381 171.04C136.957 172.032 137.245 173.2 137.245 174.544C137.245 175.904 136.957 177.08 136.381 178.072C135.821 179.064 135.053 179.832 134.077 180.376C133.117 180.92 132.029 181.192 130.813 181.192ZM123.181 185.656V168.088H126.757V170.728L126.685 174.568L126.925 178.384V185.656H123.181ZM130.165 178.12C130.789 178.12 131.341 177.976 131.821 177.688C132.317 177.4 132.709 176.992 132.997 176.464C133.301 175.92 133.453 175.28 133.453 174.544C133.453 173.792 133.301 173.152 132.997 172.624C132.709 172.096 132.317 171.688 131.821 171.4C131.341 171.112 130.789 170.968 130.165 170.968C129.541 170.968 128.981 171.112 128.485 171.4C127.989 171.688 127.597 172.096 127.309 172.624C127.021 173.152 126.877 173.792 126.877 174.544C126.877 175.28 127.021 175.92 127.309 176.464C127.597 176.992 127.989 177.4 128.485 177.688C128.981 177.976 129.541 178.12 130.165 178.12ZM151.204 181.288C150.036 181.288 148.876 181.136 147.724 180.832C146.572 180.512 145.596 180.064 144.796 179.488L146.308 176.512C146.948 176.976 147.692 177.344 148.54 177.616C149.388 177.888 150.244 178.024 151.108 178.024C152.084 178.024 152.852 177.832 153.412 177.448C153.972 177.064 154.252 176.536 154.252 175.864C154.252 175.224 154.004 174.72 153.508 174.352C153.012 173.984 152.212 173.8 151.108 173.8H149.332V171.232L154.012 165.928L154.444 167.32H145.636V164.2H157.396V166.72L152.74 172.024L150.772 170.896H151.9C153.964 170.896 155.524 171.36 156.58 172.288C157.636 173.216 158.164 174.408 158.164 175.864C158.164 176.808 157.916 177.696 157.42 178.528C156.924 179.344 156.164 180.008 155.14 180.52C154.116 181.032 152.804 181.288 151.204 181.288Z" fill="#7D5FFF"/>
<path d="M65.6875 215L65.666 212.658L71.252 207.523C72.7129 206.127 73.4863 205.268 73.4863 204.043C73.4863 202.668 72.4336 201.809 71.0156 201.809C69.5547 201.809 68.6094 202.732 68.6094 204.215H65.5371C65.5156 201.164 67.7715 199.23 71.0586 199.23C74.3887 199.23 76.6016 201.121 76.6016 203.828C76.6016 205.59 75.7422 207.051 72.541 209.951L70.1777 212.25V212.336H76.8164V215H65.6875ZM81.0059 213.109C79.9961 213.109 79.1797 212.293 79.2012 211.305C79.1797 210.316 79.9961 209.521 81.0059 209.521C81.9512 209.521 82.7891 210.316 82.7891 211.305C82.7891 212.293 81.9512 213.109 81.0059 213.109ZM81.0059 204.924C79.9961 204.924 79.1797 204.107 79.2012 203.119C79.1797 202.131 79.9961 201.336 81.0059 201.336C81.9512 201.336 82.7891 202.131 82.7891 203.119C82.7891 204.107 81.9512 204.924 81.0059 204.924ZM92.0273 199.445V215H88.7832V202.518H88.6973L85.1309 204.752V201.895L88.9766 199.445H92.0273ZM116.434 197.447V208.469H113.684V197.447H116.434ZM116.434 209.371V216.762H103.328V209.371H116.434ZM106.035 211.541V214.57H113.748V211.541H106.035ZM107.561 200.047C107.539 202.432 108.979 204.688 112.137 205.676L110.805 207.76C108.57 207.104 107.023 205.751 106.143 204C105.251 205.901 103.661 207.405 101.33 208.125L99.998 205.977C103.264 204.988 104.703 202.496 104.703 200.047V198.156H107.561V200.047ZM136.908 207.051V209.264H119.076V207.051H136.908ZM129.324 197.49V199.166H135.189V201.336H129.561C129.926 202.689 131.935 203.946 136.113 204.193L135.297 206.277C131.688 206.02 129.195 204.967 127.971 203.398C126.735 204.967 124.243 206.02 120.666 206.277L119.828 204.193C124.007 203.946 125.994 202.689 126.381 201.336H120.795V199.166H126.617V197.49H129.324ZM127.971 210.338C132.246 210.338 134.76 211.498 134.781 213.646C134.76 215.816 132.246 216.977 127.971 216.977C123.674 216.977 121.117 215.816 121.117 213.646C121.117 211.498 123.674 210.338 127.971 210.338ZM127.971 212.357C125.242 212.357 123.889 212.766 123.91 213.646C123.889 214.549 125.242 214.957 127.971 214.957C130.635 214.957 132.01 214.549 132.031 213.646C132.01 212.766 130.635 212.357 127.971 212.357ZM148.188 199.016V200.498H151.84V197.447H154.568V211.67H151.84V206.879H148.188V208.533H138.906V199.016H148.188ZM141.635 201.186V206.406H145.502V201.186H141.635ZM154.977 214.441V216.633H141.549V210.316H144.32V214.441H154.977ZM148.188 204.709H151.84V202.711H148.188V204.709ZM173.582 197.426V208.125H170.854V204.043H167.76V201.809H170.854V197.426H173.582ZM163.248 208.877V210.725H170.854V208.877H173.582V216.762H160.541V208.877H163.248ZM163.248 214.57H170.854V212.83H163.248V214.57ZM168.383 198.307V200.541H164.516C164.623 202.722 166.02 204.988 168.984 205.955L167.631 208.061C165.461 207.341 163.968 205.944 163.119 204.172C162.26 206.138 160.702 207.717 158.393 208.469L156.996 206.32C160.068 205.3 161.54 202.926 161.701 200.541H157.77V198.307H168.383Z" fill="#333333"/>
<defs>
<clipPath id="clip0_60_1418">
<rect width="100" height="100" fill="white" transform="translate(70)"/>
</clipPath>
</defs>
</svg>
