<svg width="241" height="220" viewBox="0 0 241 220" fill="none" xmlns="http://www.w3.org/2000/svg">
<g clip-path="url(#clip0_60_1436)">
<path d="M110.625 68.75C116.666 68.75 121.562 63.8531 121.562 57.8125C121.562 51.7719 116.666 46.875 110.625 46.875C104.584 46.875 99.6875 51.7719 99.6875 57.8125C99.6875 63.8531 104.584 68.75 110.625 68.75Z" stroke="black" stroke-width="3" stroke-linecap="round" stroke-linejoin="round"/>
<path d="M143.438 67.1875V32.8125H96.5625" stroke="#FFDB43" stroke-width="3" stroke-linecap="round" stroke-linejoin="round"/>
<path d="M128.305 81.25H154.375C155.204 81.25 155.999 80.9208 156.585 80.3347C157.171 79.7487 157.5 78.9538 157.5 78.125V21.875C157.5 21.0462 157.171 20.2513 156.585 19.6653C155.999 19.0792 155.204 18.75 154.375 18.75H85.625C84.7962 18.75 84.0013 19.0792 83.4153 19.6653C82.8292 20.2513 82.5 21.0462 82.5 21.875V78.125C82.5 78.9538 82.8292 79.7487 83.4153 80.3347C84.0013 80.9208 84.7962 81.25 85.625 81.25H92.9414C94.2314 77.5903 96.6251 74.4209 99.7924 72.179C102.96 69.9372 106.745 68.7332 110.625 68.7332C114.505 68.7332 118.29 69.9372 121.458 72.179C124.625 74.4209 127.019 77.5903 128.309 81.25H128.305Z" stroke="black" stroke-width="3" stroke-linecap="round" stroke-linejoin="round"/>
</g>
<line y1="121" x2="106" y2="121" stroke="#E8E8E8" stroke-width="2"/>
<rect x="106.5" y="108.5" width="27" height="27" rx="13.5" fill="white"/>
<rect x="106.5" y="108.5" width="27" height="27" rx="13.5" stroke="#E8E8E8"/>
<rect x="112" y="114" width="16" height="16" rx="8" fill="#FFD401"/>
<path d="M240.707 122.707C241.098 122.317 241.098 121.683 240.707 121.293L234.343 114.929C233.953 114.538 233.319 114.538 232.929 114.929C232.538 115.319 232.538 115.953 232.929 116.343L238.586 122L232.929 127.657C232.538 128.047 232.538 128.681 232.929 129.071C233.319 129.462 233.953 129.462 234.343 129.071L240.707 122.707ZM134 123H240V121H134V123Z" fill="#E8E8E8"/>
<path d="M87.3167 181.288C85.9727 181.288 84.6847 181.112 83.4527 180.76C82.2207 180.392 81.2287 179.92 80.4767 179.344L81.7967 176.416C82.5167 176.928 83.3647 177.352 84.3407 177.688C85.3327 178.008 86.3327 178.168 87.3407 178.168C88.1087 178.168 88.7247 178.096 89.1887 177.952C89.6687 177.792 90.0207 177.576 90.2447 177.304C90.4687 177.032 90.5807 176.72 90.5807 176.368C90.5807 175.92 90.4047 175.568 90.0527 175.312C89.7007 175.04 89.2367 174.824 88.6607 174.664C88.0847 174.488 87.4447 174.328 86.7407 174.184C86.0527 174.024 85.3567 173.832 84.6527 173.608C83.9647 173.384 83.3327 173.096 82.7567 172.744C82.1807 172.392 81.7087 171.928 81.3407 171.352C80.9887 170.776 80.8127 170.04 80.8127 169.144C80.8127 168.184 81.0687 167.312 81.5807 166.528C82.1087 165.728 82.8927 165.096 83.9327 164.632C84.9887 164.152 86.3087 163.912 87.8927 163.912C88.9487 163.912 89.9887 164.04 91.0127 164.296C92.0367 164.536 92.9407 164.904 93.7247 165.4L92.5247 168.352C91.7407 167.904 90.9567 167.576 90.1727 167.368C89.3887 167.144 88.6207 167.032 87.8687 167.032C87.1167 167.032 86.5007 167.12 86.0207 167.296C85.5407 167.472 85.1967 167.704 84.9887 167.992C84.7807 168.264 84.6767 168.584 84.6767 168.952C84.6767 169.384 84.8527 169.736 85.2047 170.008C85.5567 170.264 86.0207 170.472 86.5967 170.632C87.1727 170.792 87.8047 170.952 88.4927 171.112C89.1967 171.272 89.8927 171.456 90.5807 171.664C91.2847 171.872 91.9247 172.152 92.5007 172.504C93.0767 172.856 93.5407 173.32 93.8927 173.896C94.2607 174.472 94.4447 175.2 94.4447 176.08C94.4447 177.024 94.1807 177.888 93.6527 178.672C93.1247 179.456 92.3327 180.088 91.2767 180.568C90.2367 181.048 88.9167 181.288 87.3167 181.288ZM102.117 181.192C100.597 181.192 99.4134 180.808 98.5654 180.04C97.7174 179.256 97.2934 178.096 97.2934 176.56V165.232H101.037V176.512C101.037 177.056 101.181 177.48 101.469 177.784C101.757 178.072 102.149 178.216 102.645 178.216C103.237 178.216 103.741 178.056 104.157 177.736L105.165 180.376C104.781 180.648 104.317 180.856 103.773 181C103.245 181.128 102.693 181.192 102.117 181.192ZM95.3014 171.256V168.376H104.253V171.256H95.3014ZM113.277 181.192C111.805 181.192 110.509 180.904 109.389 180.328C108.285 179.752 107.429 178.968 106.821 177.976C106.213 176.968 105.909 175.824 105.909 174.544C105.909 173.248 106.205 172.104 106.797 171.112C107.405 170.104 108.229 169.32 109.269 168.76C110.309 168.184 111.485 167.896 112.797 167.896C114.061 167.896 115.197 168.168 116.205 168.712C117.229 169.24 118.037 170.008 118.629 171.016C119.221 172.008 119.517 173.2 119.517 174.592C119.517 174.736 119.509 174.904 119.493 175.096C119.477 175.272 119.461 175.44 119.445 175.6H108.957V173.416H117.477L116.037 174.064C116.037 173.392 115.901 172.808 115.629 172.312C115.357 171.816 114.981 171.432 114.501 171.16C114.021 170.872 113.461 170.728 112.821 170.728C112.181 170.728 111.613 170.872 111.117 171.16C110.637 171.432 110.261 171.824 109.989 172.336C109.717 172.832 109.581 173.424 109.581 174.112V174.688C109.581 175.392 109.733 176.016 110.037 176.56C110.357 177.088 110.797 177.496 111.357 177.784C111.933 178.056 112.605 178.192 113.373 178.192C114.061 178.192 114.661 178.088 115.173 177.88C115.701 177.672 116.181 177.36 116.613 176.944L118.605 179.104C118.013 179.776 117.269 180.296 116.373 180.664C115.477 181.016 114.445 181.192 113.277 181.192ZM129.641 181.192C128.553 181.192 127.601 180.952 126.785 180.472C125.969 179.992 125.329 179.264 124.865 178.288C124.417 177.296 124.193 176.048 124.193 174.544C124.193 173.024 124.409 171.776 124.841 170.8C125.273 169.824 125.897 169.096 126.713 168.616C127.529 168.136 128.505 167.896 129.641 167.896C130.857 167.896 131.945 168.176 132.905 168.736C133.881 169.28 134.649 170.048 135.209 171.04C135.785 172.032 136.073 173.2 136.073 174.544C136.073 175.904 135.785 177.08 135.209 178.072C134.649 179.064 133.881 179.832 132.905 180.376C131.945 180.92 130.857 181.192 129.641 181.192ZM122.009 185.656V168.088H125.585V170.728L125.513 174.568L125.753 178.384V185.656H122.009ZM128.993 178.12C129.617 178.12 130.169 177.976 130.649 177.688C131.145 177.4 131.537 176.992 131.825 176.464C132.129 175.92 132.281 175.28 132.281 174.544C132.281 173.792 132.129 173.152 131.825 172.624C131.537 172.096 131.145 171.688 130.649 171.4C130.169 171.112 129.617 170.968 128.993 170.968C128.369 170.968 127.809 171.112 127.313 171.4C126.817 171.688 126.425 172.096 126.137 172.624C125.849 173.152 125.705 173.792 125.705 174.544C125.705 175.28 125.849 175.92 126.137 176.464C126.425 176.992 126.817 177.4 127.313 177.688C127.809 177.976 128.369 178.12 128.993 178.12ZM144.392 177.472V174.856L152.312 164.2H156.392L148.64 174.856L146.744 174.304H159.968V177.472H144.392ZM153.44 181V177.472L153.56 174.304V171.16H157.232V181H153.44Z" fill="#7D5FFF"/>
<path d="M35.0186 201.852C35.0186 205.439 36.6514 209.049 39.96 210.445L38.3486 212.637C36.1143 211.627 34.5674 209.683 33.6865 207.266C32.7949 209.897 31.1943 212.024 28.8096 213.109L27.1553 210.832C30.5713 209.393 32.2256 205.654 32.2471 201.852V198.93H35.0186V201.852ZM43.7842 197.426V217.02H41.0127V197.426H43.7842ZM50.0146 198.543V201.143H53.8604V198.543H56.5674V202.066H60.1768V197.426H62.9053V208.748H60.1768V204.301H56.5674V207.91H47.2646V198.543H50.0146ZM50.0146 205.719H53.8604V203.27H50.0146V205.719ZM62.9053 209.521V216.762H49.7568V209.521H62.9053ZM52.5068 211.713V214.57H60.2197V211.713H52.5068ZM80.9521 197.426V202.023H83.5947V204.258H80.9521V208.77H78.2021V197.426H80.9521ZM75.4951 198.715C75.5166 203.936 72.2295 207.588 66.4072 209.199L65.3115 206.986C69.6191 205.837 72.0898 203.624 72.5088 200.906H66.2354V198.715H75.4951ZM74.5713 209.006C78.5459 209.006 81.167 210.553 81.167 213.002C81.167 215.473 78.5459 216.998 74.5713 216.998C70.5967 216.998 67.9326 215.473 67.9541 213.002C67.9326 210.553 70.5967 209.006 74.5713 209.006ZM74.5713 211.133C72.1006 211.133 70.6396 211.799 70.6611 213.002C70.6396 214.184 72.1006 214.871 74.5713 214.85C76.999 214.871 78.46 214.184 78.46 213.002C78.46 211.799 76.999 211.133 74.5713 211.133ZM90.792 198.736C93.8857 198.715 96.2061 200.734 96.2061 203.527C96.2061 206.342 93.8857 208.34 90.792 208.34C87.6982 208.34 85.3564 206.342 85.3564 203.527C85.3564 200.734 87.6982 198.715 90.792 198.736ZM90.792 201.1C89.2451 201.1 88.0635 202.002 88.085 203.527C88.0635 205.074 89.2451 205.955 90.792 205.955C92.3389 205.955 93.5205 205.074 93.542 203.527C93.5205 202.002 92.3604 201.1 90.792 201.1ZM100.89 197.426V217.02H98.1611V197.426H100.89ZM84.54 210.789C88.0205 210.811 92.8545 210.746 97.0439 210.166L97.2588 212.143C92.9189 212.98 88.2783 213.023 84.8623 213.023L84.54 210.789ZM116.165 201.293C116.165 203.635 117.604 206.02 120.827 206.986L119.431 209.135C117.239 208.447 115.692 207.04 114.812 205.268C113.92 207.19 112.33 208.737 110.042 209.5L108.624 207.352C111.868 206.299 113.372 203.764 113.372 201.293V201.014H109.354V198.822H120.097V201.014H116.165V201.293ZM124.909 197.447V211.584H122.159V197.447H124.909ZM125.425 214.441V216.633H111.804V210.295H114.575V214.441H125.425ZM144.353 197.426V209.693H141.753V204.494H140.185V209.049H137.628V197.791H140.185V202.26H141.753V197.426H144.353ZM137.048 199.445V201.572H127.444V199.445H130.903V197.598H133.632V199.445H137.048ZM132.278 202.217C134.771 202.217 136.532 203.592 136.554 205.633C136.532 207.652 134.771 209.027 132.278 209.027C129.829 209.027 128.046 207.652 128.046 205.633C128.046 203.592 129.829 202.217 132.278 202.217ZM132.278 204.193C131.204 204.193 130.495 204.73 130.495 205.633C130.495 206.535 131.204 207.094 132.278 207.072C133.353 207.094 134.062 206.535 134.083 205.633C134.062 204.73 133.353 204.193 132.278 204.193ZM137.671 209.865C141.903 209.865 144.438 211.154 144.46 213.432C144.438 215.688 141.903 216.977 137.671 216.977C133.46 216.977 130.903 215.688 130.903 213.432C130.903 211.154 133.46 209.865 137.671 209.865ZM137.671 211.928C135.028 211.928 133.632 212.4 133.653 213.432C133.632 214.42 135.028 214.914 137.671 214.914C140.335 214.914 141.688 214.42 141.688 213.432C141.688 212.4 140.335 211.928 137.671 211.928ZM162.185 198.607V206.836H152.624V198.607H162.185ZM155.331 200.734V204.688H159.456V200.734H155.331ZM167.985 197.426V208.512H165.257V197.426H167.985ZM168.329 209.586V211.627H162.851C163.151 212.959 165.214 214.495 169.081 214.871L168.157 216.934C164.902 216.633 162.593 215.451 161.411 213.904C160.197 215.473 157.877 216.622 154.601 216.934L153.655 214.871C157.576 214.56 159.639 212.991 159.929 211.627H154.45V209.586H160.015V207.975H162.765V209.586H168.329ZM186.634 198.715V200.906H185.022V206.127C185.678 206.073 186.322 206.009 186.935 205.934L187.042 207.953C183.368 208.576 179.093 208.641 175.999 208.641L175.72 206.428L177.804 206.406V200.906H176.214V198.715H186.634ZM192.198 197.426V209.371H189.47V206.449H187.063V204.258H189.47V202.754H187.063V200.605H189.47V197.426H192.198ZM185.517 209.672C189.728 209.693 192.241 211.004 192.263 213.346C192.241 215.623 189.728 216.977 185.517 216.977C181.327 216.977 178.792 215.623 178.792 213.346C178.792 211.004 181.327 209.693 185.517 209.672ZM185.517 211.777C182.896 211.777 181.521 212.271 181.521 213.346C181.521 214.377 182.896 214.893 185.517 214.893C188.138 214.893 189.534 214.377 189.534 213.346C189.534 212.271 188.138 211.777 185.517 211.777ZM180.446 206.342L182.401 206.277V200.906H180.446V206.342ZM210.159 197.426V204.924H212.931V207.18H210.159V216.934H207.409V197.426H210.159ZM204.938 199.424C204.917 205.268 202.64 210.338 196.065 213.561L194.519 211.455C199.148 209.135 201.63 206.02 202.146 201.658H195.636V199.424H204.938Z" fill="#333333"/>
<defs>
<clipPath id="clip0_60_1436">
<rect width="100" height="100" fill="white" transform="translate(70)"/>
</clipPath>
</defs>
</svg>
