<svg width="241" height="220" viewBox="0 0 241 220" fill="none" xmlns="http://www.w3.org/2000/svg">
<g clip-path="url(#clip0_60_1401)">
<path d="M102.812 26.5625V14.0625C102.812 13.2337 103.142 12.4388 103.728 11.8528C104.314 11.2667 105.109 10.9375 105.938 10.9375H137.188L152.812 26.5625V68.75C152.812 69.5788 152.483 70.3737 151.897 70.9597C151.311 71.5458 150.516 71.875 149.688 71.875H137.188" fill="white"/>
<path d="M102.812 26.5625V14.0625C102.812 13.2337 103.142 12.4388 103.728 11.8528C104.314 11.2667 105.109 10.9375 105.938 10.9375H137.188L152.812 26.5625V68.75C152.812 69.5788 152.483 70.3737 151.897 70.9597C151.311 71.5458 150.516 71.875 149.688 71.875H137.188" stroke="black" stroke-width="3" stroke-linecap="round" stroke-linejoin="round"/>
<path d="M134.062 87.5H91.875C91.0462 87.5 90.2513 87.1708 89.6653 86.5847C89.0792 85.9987 88.75 85.2038 88.75 84.375V29.6875C88.75 28.8587 89.0792 28.0638 89.6653 27.4778C90.2513 26.8917 91.0462 26.5625 91.875 26.5625H121.562L137.188 42.1875V84.375C137.188 85.2038 136.858 85.9987 136.272 86.5847C135.686 87.1708 134.891 87.5 134.062 87.5Z" fill="white" stroke="black" stroke-width="3" stroke-linecap="round" stroke-linejoin="round"/>
<path d="M104.375 56.25H121.562" stroke="#E8E8E8" stroke-width="3" stroke-linecap="round" stroke-linejoin="round"/>
<path d="M104.375 71.875H121.562" stroke="#E8E8E8" stroke-width="3" stroke-linecap="round" stroke-linejoin="round"/>
</g>
<line y1="121" x2="106" y2="121" stroke="#E8E8E8" stroke-width="2"/>
<rect x="106.5" y="108.5" width="27" height="27" rx="13.5" fill="white"/>
<rect x="106.5" y="108.5" width="27" height="27" rx="13.5" stroke="#E8E8E8"/>
<rect x="112" y="114" width="16" height="16" rx="8" fill="#FFD401"/>
<path d="M240.707 122.707C241.098 122.317 241.098 121.683 240.707 121.293L234.343 114.929C233.953 114.538 233.319 114.538 232.929 114.929C232.538 115.319 232.538 115.953 232.929 116.343L238.586 122L232.929 127.657C232.538 128.047 232.538 128.681 232.929 129.071C233.319 129.462 233.953 129.462 234.343 129.071L240.707 122.707ZM134 123H240V121H134V123Z" fill="#E8E8E8"/>
<path d="M88.512 181.288C87.168 181.288 85.88 181.112 84.648 180.76C83.416 180.392 82.424 179.92 81.672 179.344L82.992 176.416C83.712 176.928 84.56 177.352 85.536 177.688C86.528 178.008 87.528 178.168 88.536 178.168C89.304 178.168 89.92 178.096 90.384 177.952C90.864 177.792 91.216 177.576 91.44 177.304C91.664 177.032 91.776 176.72 91.776 176.368C91.776 175.92 91.6 175.568 91.248 175.312C90.896 175.04 90.432 174.824 89.856 174.664C89.28 174.488 88.64 174.328 87.936 174.184C87.248 174.024 86.552 173.832 85.848 173.608C85.16 173.384 84.528 173.096 83.952 172.744C83.376 172.392 82.904 171.928 82.536 171.352C82.184 170.776 82.008 170.04 82.008 169.144C82.008 168.184 82.264 167.312 82.776 166.528C83.304 165.728 84.088 165.096 85.128 164.632C86.184 164.152 87.504 163.912 89.088 163.912C90.144 163.912 91.184 164.04 92.208 164.296C93.232 164.536 94.136 164.904 94.92 165.4L93.72 168.352C92.936 167.904 92.152 167.576 91.368 167.368C90.584 167.144 89.816 167.032 89.064 167.032C88.312 167.032 87.696 167.12 87.216 167.296C86.736 167.472 86.392 167.704 86.184 167.992C85.976 168.264 85.872 168.584 85.872 168.952C85.872 169.384 86.048 169.736 86.4 170.008C86.752 170.264 87.216 170.472 87.792 170.632C88.368 170.792 89 170.952 89.688 171.112C90.392 171.272 91.088 171.456 91.776 171.664C92.48 171.872 93.12 172.152 93.696 172.504C94.272 172.856 94.736 173.32 95.088 173.896C95.456 174.472 95.64 175.2 95.64 176.08C95.64 177.024 95.376 177.888 94.848 178.672C94.32 179.456 93.528 180.088 92.472 180.568C91.432 181.048 90.112 181.288 88.512 181.288ZM103.313 181.192C101.793 181.192 100.609 180.808 99.7607 180.04C98.9127 179.256 98.4887 178.096 98.4887 176.56V165.232H102.233V176.512C102.233 177.056 102.377 177.48 102.665 177.784C102.953 178.072 103.345 178.216 103.841 178.216C104.433 178.216 104.937 178.056 105.353 177.736L106.361 180.376C105.977 180.648 105.513 180.856 104.969 181C104.441 181.128 103.889 181.192 103.313 181.192ZM96.4967 171.256V168.376H105.449V171.256H96.4967ZM114.472 181.192C113 181.192 111.704 180.904 110.584 180.328C109.48 179.752 108.624 178.968 108.016 177.976C107.408 176.968 107.104 175.824 107.104 174.544C107.104 173.248 107.4 172.104 107.992 171.112C108.6 170.104 109.424 169.32 110.464 168.76C111.504 168.184 112.68 167.896 113.992 167.896C115.256 167.896 116.392 168.168 117.4 168.712C118.424 169.24 119.232 170.008 119.824 171.016C120.416 172.008 120.712 173.2 120.712 174.592C120.712 174.736 120.704 174.904 120.688 175.096C120.672 175.272 120.656 175.44 120.64 175.6H110.152V173.416H118.672L117.232 174.064C117.232 173.392 117.096 172.808 116.824 172.312C116.552 171.816 116.176 171.432 115.696 171.16C115.216 170.872 114.656 170.728 114.016 170.728C113.376 170.728 112.808 170.872 112.312 171.16C111.832 171.432 111.456 171.824 111.184 172.336C110.912 172.832 110.776 173.424 110.776 174.112V174.688C110.776 175.392 110.928 176.016 111.232 176.56C111.552 177.088 111.992 177.496 112.552 177.784C113.128 178.056 113.8 178.192 114.568 178.192C115.256 178.192 115.856 178.088 116.368 177.88C116.896 177.672 117.376 177.36 117.808 176.944L119.8 179.104C119.208 179.776 118.464 180.296 117.568 180.664C116.672 181.016 115.64 181.192 114.472 181.192ZM130.837 181.192C129.749 181.192 128.797 180.952 127.981 180.472C127.165 179.992 126.525 179.264 126.061 178.288C125.613 177.296 125.389 176.048 125.389 174.544C125.389 173.024 125.605 171.776 126.037 170.8C126.469 169.824 127.093 169.096 127.909 168.616C128.725 168.136 129.701 167.896 130.837 167.896C132.053 167.896 133.141 168.176 134.101 168.736C135.077 169.28 135.845 170.048 136.405 171.04C136.981 172.032 137.269 173.2 137.269 174.544C137.269 175.904 136.981 177.08 136.405 178.072C135.845 179.064 135.077 179.832 134.101 180.376C133.141 180.92 132.053 181.192 130.837 181.192ZM123.205 185.656V168.088H126.781V170.728L126.709 174.568L126.949 178.384V185.656H123.205ZM130.189 178.12C130.813 178.12 131.365 177.976 131.845 177.688C132.341 177.4 132.733 176.992 133.021 176.464C133.325 175.92 133.477 175.28 133.477 174.544C133.477 173.792 133.325 173.152 133.021 172.624C132.733 172.096 132.341 171.688 131.845 171.4C131.365 171.112 130.813 170.968 130.189 170.968C129.565 170.968 129.005 171.112 128.509 171.4C128.013 171.688 127.621 172.096 127.333 172.624C127.045 173.152 126.901 173.792 126.901 174.544C126.901 175.28 127.045 175.92 127.333 176.464C127.621 176.992 128.013 177.4 128.509 177.688C129.005 177.976 129.565 178.12 130.189 178.12ZM145.636 181V178.48L152.116 172.36C152.628 171.896 153.004 171.48 153.244 171.112C153.484 170.744 153.644 170.408 153.724 170.104C153.82 169.8 153.868 169.52 153.868 169.264C153.868 168.592 153.636 168.08 153.172 167.728C152.724 167.36 152.06 167.176 151.18 167.176C150.476 167.176 149.82 167.312 149.212 167.584C148.62 167.856 148.116 168.28 147.7 168.856L144.868 167.032C145.508 166.072 146.404 165.312 147.556 164.752C148.708 164.192 150.036 163.912 151.54 163.912C152.788 163.912 153.876 164.12 154.804 164.536C155.748 164.936 156.476 165.504 156.988 166.24C157.516 166.976 157.78 167.856 157.78 168.88C157.78 169.424 157.708 169.968 157.564 170.512C157.436 171.04 157.164 171.6 156.748 172.192C156.348 172.784 155.756 173.448 154.972 174.184L149.596 179.248L148.852 177.832H158.332V181H145.636Z" fill="#7D5FFF"/>
<path d="M87.4082 201.852C87.4082 205.525 88.8906 209.092 92.1562 210.51L90.4805 212.701C88.3105 211.638 86.8604 209.693 86.0547 207.287C85.1953 209.844 83.6914 211.938 81.457 213.045L79.7383 210.811C83.0898 209.307 84.6152 205.525 84.6367 201.852V198.93H87.4082V201.852ZM96.5176 197.426V217.02H93.8105V205.783H89.9648V203.57H93.8105V197.426H96.5176ZM116.906 208.898V211.047H112.781V216.977H110.01V211.047H105.928V216.977H103.199V211.047H99.0098V208.898H116.906ZM114.844 198.006V203.699H103.908V205.289H115.295V207.48H101.137V201.701H112.029V200.24H101.072V198.006H114.844ZM139.486 197.447V208.469H136.736V197.447H139.486ZM139.486 209.371V216.762H126.381V209.371H139.486ZM129.088 211.541V214.57H136.801V211.541H129.088ZM130.613 200.047C130.592 202.432 132.031 204.688 135.189 205.676L133.857 207.76C131.623 207.104 130.076 205.751 129.195 204C128.304 205.901 126.714 207.405 124.383 208.125L123.051 205.977C126.316 204.988 127.756 202.496 127.756 200.047V198.156H130.613V200.047ZM149.326 201.852C149.305 205.354 150.809 208.898 153.945 210.402L152.291 212.594C150.196 211.562 148.789 209.629 147.973 207.266C147.124 209.801 145.609 211.874 143.396 212.959L141.699 210.746C145.008 209.221 146.576 205.482 146.576 201.852V198.93H149.326V201.852ZM157.555 197.426V204.967H160.434V207.287H157.555V216.977H154.805V197.426H157.555Z" fill="#333333"/>
<defs>
<clipPath id="clip0_60_1401">
<rect width="100" height="100" fill="white" transform="translate(70)"/>
</clipPath>
</defs>
</svg>
