<svg width="64" height="64" viewBox="0 0 64 64" fill="none" xmlns="http://www.w3.org/2000/svg">
<path d="M56.465 25.705C55.5225 24.72 54.5475 23.705 54.18 22.8125C53.84 21.995 53.82 20.64 53.8 19.3275C53.7625 16.8875 53.7225 14.1225 51.8 12.2C49.8775 10.2775 47.1125 10.2375 44.6725 10.2C43.36 10.18 42.005 10.16 41.1875 9.82C40.2975 9.4525 39.28 8.4775 38.295 7.535C36.57 5.8775 34.61 4 32 4C29.39 4 27.4325 5.8775 25.705 7.535C24.72 8.4775 23.705 9.4525 22.8125 9.82C22 10.16 20.64 10.18 19.3275 10.2C16.8875 10.2375 14.1225 10.2775 12.2 12.2C10.2775 14.1225 10.25 16.8875 10.2 19.3275C10.18 20.64 10.16 21.995 9.82 22.8125C9.4525 23.7025 8.4775 24.72 7.535 25.705C5.8775 27.43 4 29.39 4 32C4 34.61 5.8775 36.5675 7.535 38.295C8.4775 39.28 9.4525 40.295 9.82 41.1875C10.16 42.005 10.18 43.36 10.2 44.6725C10.2375 47.1125 10.2775 49.8775 12.2 51.8C14.1225 53.7225 16.8875 53.7625 19.3275 53.8C20.64 53.82 21.995 53.84 22.8125 54.18C23.7025 54.5475 24.72 55.5225 25.705 56.465C27.43 58.1225 29.39 60 32 60C34.61 60 36.5675 58.1225 38.295 56.465C39.28 55.5225 40.295 54.5475 41.1875 54.18C42.005 53.84 43.36 53.82 44.6725 53.8C47.1125 53.7625 49.8775 53.7225 51.8 51.8C53.7225 49.8775 53.7625 47.1125 53.8 44.6725C53.82 43.36 53.84 42.005 54.18 41.1875C54.5475 40.2975 55.5225 39.28 56.465 38.295C58.1225 36.57 60 34.61 60 32C60 29.39 58.1225 27.4325 56.465 25.705ZM43.415 27.415L29.415 41.415C29.2293 41.601 29.0087 41.7485 28.7659 41.8491C28.5231 41.9498 28.2628 42.0016 28 42.0016C27.7372 42.0016 27.4769 41.9498 27.2341 41.8491C26.9913 41.7485 26.7707 41.601 26.585 41.415L20.585 35.415C20.2097 35.0397 19.9989 34.5307 19.9989 34C19.9989 33.4693 20.2097 32.9603 20.585 32.585C20.9603 32.2097 21.4693 31.9989 22 31.9989C22.5307 31.9989 23.0397 32.2097 23.415 32.585L28 37.1725L40.585 24.585C40.7708 24.3992 40.9914 24.2518 41.2342 24.1512C41.477 24.0506 41.7372 23.9989 42 23.9989C42.2628 23.9989 42.523 24.0506 42.7658 24.1512C43.0086 24.2518 43.2292 24.3992 43.415 24.585C43.6008 24.7708 43.7482 24.9914 43.8488 25.2342C43.9494 25.477 44.0011 25.7372 44.0011 26C44.0011 26.2628 43.9494 26.523 43.8488 26.7658C43.7482 27.0086 43.6008 27.2292 43.415 27.415Z" fill="#7D5FFF"/>
</svg>
